<svg width="40" height="40" viewBox="0 0 40 40" fill="none" xmlns="http://www.w3.org/2000/svg">
<path d="M28.75 19.0625C28.9986 19.0625 29.2371 19.1612 29.4129 19.337C29.5887 19.5129 29.6875 19.7513 29.6875 20C29.6875 20.2486 29.5887 20.4871 29.4129 20.6629C29.2371 20.8387 28.9986 20.9375 28.75 20.9375H20C19.7513 20.9375 19.5129 20.8387 19.3371 20.6629C19.1612 20.4871 19.0625 20.2486 19.0625 20V11.25C19.0625 11.0013 19.1612 10.7629 19.3371 10.587C19.5129 10.4112 19.7513 10.3125 20 10.3125C20.2486 10.3125 20.4871 10.4112 20.6629 10.587C20.8387 10.7629 20.9375 11.0013 20.9375 11.25V19.0625H28.75ZM30.3856 9.61433C32.7883 12.0171 34.2836 15.1786 34.6166 18.5602C34.9497 21.9419 34.0999 25.3344 32.2121 28.1597C30.3243 30.985 27.5152 33.0683 24.2635 34.0547C21.0118 35.0411 17.5187 34.8695 14.3794 33.5691C11.2401 32.2688 8.64875 29.9201 7.04694 26.9234C5.44514 23.9266 4.93198 20.4672 5.59489 17.1345C6.2578 13.8018 8.05577 10.802 10.6824 8.64635C13.3091 6.49068 16.602 5.31247 20 5.31246C21.9295 5.30717 23.841 5.68467 25.6237 6.42309C27.4064 7.16151 29.0249 8.24618 30.3856 9.61433ZM32.8125 20C32.8125 17.0357 31.7848 14.1631 29.9043 11.8716C28.0238 9.58014 25.407 8.0116 22.4997 7.43324C19.5924 6.85488 16.5745 7.30249 13.9602 8.69979C11.3459 10.0971 9.29696 12.3577 8.16254 15.0963C7.02811 17.8349 6.87837 20.8822 7.73881 23.7188C8.59926 26.5555 10.4167 29.006 12.8814 30.6529C15.346 32.2998 18.3055 33.0412 21.2555 32.7506C24.2056 32.4601 26.9636 31.1557 29.0597 29.0596C30.2532 27.8727 31.1994 26.4608 31.8436 24.9057C32.4877 23.3506 32.8171 21.6832 32.8125 20ZM36.5728 8.73043L31.2695 3.4273C31.1829 3.3383 31.0795 3.26739 30.9652 3.2187C30.851 3.17 30.7282 3.14449 30.604 3.14364C30.4799 3.14279 30.3567 3.16662 30.2418 3.21375C30.1269 3.26087 30.0226 3.33036 29.9347 3.41816C29.8469 3.50597 29.7774 3.61035 29.7303 3.72524C29.6831 3.84013 29.6593 3.96324 29.6601 4.08742C29.661 4.2116 29.6865 4.33438 29.7352 4.44863C29.7838 4.56287 29.8547 4.66631 29.9437 4.75293L35.2468 10.0562C35.3336 10.1444 35.437 10.2146 35.5511 10.2626C35.6651 10.3107 35.7876 10.3357 35.9113 10.3362C36.0351 10.3367 36.1577 10.3127 36.2721 10.2656C36.3866 10.2185 36.4905 10.1491 36.578 10.0616C36.6656 9.97412 36.7349 9.87015 36.782 9.75572C36.8291 9.64128 36.8531 9.51865 36.8526 9.3949C36.8521 9.27114 36.8271 9.14871 36.7791 9.03467C36.731 8.92062 36.6608 8.81722 36.5726 8.73043H36.5728ZM10.0562 3.4273C9.88041 3.2515 9.64196 3.15273 9.39333 3.15273C9.1447 3.15273 8.90625 3.2515 8.73044 3.4273L3.42731 8.73043C3.25543 8.90702 3.15998 9.1442 3.16164 9.39063C3.1633 9.63706 3.26192 9.87293 3.43617 10.0472C3.61042 10.2215 3.84627 10.3201 4.0927 10.3218C4.33914 10.3235 4.57632 10.2281 4.75294 10.0562L10.0562 4.75308C10.1433 4.66602 10.2124 4.56267 10.2595 4.44891C10.3066 4.33516 10.3309 4.21324 10.3309 4.09011C10.3309 3.96698 10.3066 3.84506 10.2595 3.73131C10.2124 3.61756 10.1433 3.5142 10.0562 3.42714V3.4273Z" fill="#1A427C"/>
</svg>
