<svg width="26" height="26" viewBox="0 0 26 26" fill="none" xmlns="http://www.w3.org/2000/svg">
<path d="M13 0.25C10.4783 0.25 8.01321 0.997774 5.91649 2.39876C3.81976 3.79975 2.18556 5.79103 1.22054 8.12079C0.255524 10.4505 0.00303188 13.0141 0.494994 15.4874C0.986955 17.9607 2.20127 20.2325 3.98439 22.0156C5.76751 23.7987 8.03935 25.0131 10.5126 25.505C12.9859 25.997 15.5495 25.7445 17.8792 24.7795C20.209 23.8144 22.2003 22.1802 23.6012 20.0835C25.0022 17.9868 25.75 15.5217 25.75 13C25.7462 9.61966 24.4017 6.37886 22.0114 3.98859C19.6212 1.59833 16.3804 0.253805 13 0.25ZM13 24.25C10.775 24.25 8.59989 23.5902 6.74984 22.354C4.89979 21.1179 3.45785 19.3609 2.60636 17.3052C1.75488 15.2495 1.53209 12.9875 1.96617 10.8052C2.40026 8.62295 3.47171 6.61839 5.04505 5.04505C6.6184 3.47171 8.62295 2.40025 10.8052 1.96617C12.9875 1.53208 15.2495 1.75487 17.3052 2.60636C19.3609 3.45784 21.1179 4.89978 22.354 6.74984C23.5902 8.59989 24.25 10.775 24.25 13C24.2466 15.9826 23.0603 18.8422 20.9512 20.9512C18.8422 23.0603 15.9827 24.2466 13 24.25ZM18.5304 12.4696C18.6 12.5393 18.6553 12.622 18.693 12.713C18.7307 12.804 18.7501 12.9015 18.7501 13C18.7501 13.0985 18.7307 13.196 18.693 13.287C18.6553 13.378 18.6 13.4607 18.5304 13.5304L14.2878 17.7729C14.2181 17.8425 14.1354 17.8978 14.0444 17.9355C13.9534 17.9732 13.8559 17.9926 13.7574 17.9926C13.6589 17.9926 13.5614 17.9732 13.4704 17.9355C13.3794 17.8978 13.2967 17.8426 13.2271 17.7729C13.1574 17.7033 13.1022 17.6206 13.0645 17.5296C13.0268 17.4386 13.0074 17.3411 13.0074 17.2426C13.0074 17.1441 13.0268 17.0466 13.0644 16.9556C13.1021 16.8646 13.1574 16.7819 13.227 16.7122L16.1894 13.75H8.00001C7.80109 13.75 7.61033 13.671 7.46968 13.5303C7.32902 13.3897 7.25001 13.1989 7.25001 13C7.25001 12.8011 7.32902 12.6103 7.46968 12.4697C7.61033 12.329 7.80109 12.25 8.00001 12.25H16.1894L13.227 9.28775C13.1574 9.2181 13.1021 9.13541 13.0644 9.04441C13.0267 8.95341 13.0073 8.85587 13.0073 8.75737C13.0073 8.65888 13.0267 8.56134 13.0644 8.47034C13.1021 8.37934 13.1574 8.29665 13.227 8.227C13.3677 8.08634 13.5585 8.00731 13.7574 8.00731C13.8559 8.00731 13.9534 8.02671 14.0444 8.06441C14.1354 8.1021 14.2181 8.15735 14.2878 8.227L18.5304 12.4696Z" fill="#B48154"/>
</svg>
