<svg width="0%" height="0%" fill="none" xmlns="http://www.w3.org/2000/svg">
<path d="M712.007 97.7896V98.4276L537 77.5231V65L712.007 97.7896Z" fill="white"/>
<path d="M720 95.3469V98L1451 11.0741V-41L720 95.3469Z" fill="url(#paint0_linear)"/>
<path d="M712 95.3469V98L-19 11.0741V-41L712 95.3469Z" fill="url(#paint1_linear)"/>
<path d="M872.407 160.395V159.76C872.407 159.974 872.395 160.168 872.386 160.382L872.407 160.395Z" fill="white"/>
<path d="M721.149 199.211L725.372 203.418H706.929L711.158 199.211V199.263H701.671C690.955 199.263 682.164 190.481 682.164 179.778V131.119C682.164 120.412 690.955 111.625 701.671 111.625H711.158V88.6648L706.929 84.4487H725.372L721.149 88.6648V111.625H730.645C741.358 111.625 750.14 120.412 750.14 131.119V179.778C750.14 190.481 741.358 199.263 730.645 199.263H721.149V199.211ZM692.184 179.778C692.184 185.924 696.409 191.018 701.671 191.018H711.158V119.883H701.671C696.409 119.883 692.184 124.982 692.184 131.119V179.778ZM740.129 131.119C740.129 124.982 735.904 119.883 730.645 119.883H721.149V191.018H730.645C735.904 191.018 740.129 185.924 740.129 179.778V131.119Z" fill="white"/>
<path d="M611.354 200.115L609.453 198.212L607.47 177.112L606.739 169.283L603.966 139.876H588.046L589.96 141.779L587.129 171.861L586.206 181.491L584.626 198.212L582.713 200.115H593.933L592.028 198.212L593.148 185.468H600.542L601.731 198.212L599.828 200.115H611.354ZM596.732 146.78H597.042L599.161 170.273L599.909 178.544H593.781L594.486 170.894L596.732 146.78Z" fill="white"/>
<path d="M781.664 168.217V163.51V141.779L783.573 139.876H759.786L761.686 141.779L760.696 160.762L760.527 163.882L759.143 190.331C758.983 192.941 757.874 193.597 756.685 193.597C755.873 193.597 754.936 193.508 754.541 193.343V199.947C755.251 200.266 756.832 200.507 758.593 200.507C762.804 200.507 765.914 197.492 766.38 190.331L767.848 165.373L768.062 161.735L768.932 146.78H773.951V162.499V166.639V198.212L772.043 200.115H783.573L781.664 198.212V168.217Z" fill="white"/>
<path d="M801.726 139.471C794.09 139.471 789.319 145.049 789.319 151.879V164.518V169.792V188.09C789.319 194.942 794.09 200.507 801.726 200.507C809.377 200.507 814.148 194.942 814.148 188.09V174.9V167.779V151.879C814.148 145.049 809.377 139.471 801.726 139.471ZM806.435 173.312V188.09C806.435 190.726 805.148 193.597 801.726 193.597C798.315 193.597 797.017 190.726 797.017 188.09V171.377V165.533V151.879C797.017 149.265 798.315 146.385 801.726 146.385C805.148 146.385 806.435 149.265 806.435 151.879V166.767V173.312Z" fill="white"/>
<path d="M819.068 139.876V148.71L820.986 146.78H826.563V169.408V177.456V198.212L824.651 200.115H836.188L834.285 198.212V179.055V170.42V146.78H839.844L841.753 148.71V139.876H819.068Z" fill="white"/>
<path d="M866.99 160.954H862.295V141.779L864.204 139.876H847.887V148.71L849.803 146.78H854.577V173.095V183.209V198.212L852.665 200.115H866.99C873.62 200.115 879.034 194.879 879.384 188.33C879.384 188.112 879.397 187.922 879.397 187.703V176.343V173.37C879.397 166.528 873.823 160.954 866.99 160.954ZM871.693 186.74V187.703C871.693 190.331 870.406 193.184 866.99 193.184H862.295V184.81V174.097V167.88H866.99C870.406 167.88 871.693 170.766 871.693 173.37V175.326V186.74Z" fill="white"/>
<path d="M577.642 173.108C576.77 167.104 571.606 162.466 565.374 162.466H560.67V146.78H573.721L575.633 148.71V139.876H551.042L552.951 141.779V198.212L551.042 200.115H565.374C572.209 200.115 577.788 194.547 577.788 187.703V183.216V174.891C577.788 174.284 577.725 173.693 577.642 173.108ZM570.067 187.703C570.067 190.331 568.791 193.184 565.374 193.184H560.67V186.74V175.326V169.399H565.374C568.457 169.399 569.78 171.719 570.022 174.103C570.043 174.355 570.067 174.621 570.067 174.891V184.819V187.703Z" fill="white"/>
<path d="M644.236 169.559V164.366V141.779L646.143 139.876H622.343L624.256 141.779L622.927 167.153L622.568 174.005L621.711 190.331C621.551 192.941 620.435 193.597 619.246 193.597C618.445 193.597 617.504 193.508 617.087 193.343V199.947C617.81 200.266 619.403 200.507 621.156 200.507C625.374 200.507 628.483 197.492 628.948 190.331L630 172.479L630.368 166.176L631.504 146.78H636.509V165.37V171.134V198.212L634.609 200.115H646.143L644.236 198.212V169.559Z" fill="white"/>
<path d="M651.876 139.876V148.71L653.777 146.78H659.355V162.386V166.452V198.212L657.442 200.115H668.976L667.067 198.212V164.864V161.362V146.78H672.65L674.559 148.71V139.876H651.876Z" fill="white"/>
<path d="M733.468 204.944C733.499 204.714 733.526 204.5 733.511 204.273L732.793 187.077C732.757 185.934 732.11 184.948 731.168 184.42L728.621 122.542L729.939 119.836C730.441 118.859 730.397 117.692 729.788 116.706C729.491 116.227 729.065 115.85 728.59 115.602V114.462V112.323V110.264V108.116V105.962V105.937H725.48V103.921H727.086V97.5538H722.076L716.094 93.481L710.14 97.5538H705.13V103.921H706.748V105.937H703.616V105.962V108.116V110.264V112.323V114.462V115.602C703.127 115.859 702.697 116.245 702.413 116.72C701.818 117.67 701.762 118.859 702.259 119.827L703.598 122.528L701.046 184.42C700.114 184.948 699.462 185.934 699.418 187.074L698.699 204.239C698.695 204.478 698.699 204.708 698.757 204.944H733.468Z" fill="white"/>
<path d="M730.165 187.175C730.143 186.887 729.898 186.661 729.628 186.661H728.621L725.954 121.966L727.591 118.645C727.671 118.491 727.658 118.29 727.56 118.127C727.455 117.971 727.285 117.873 727.107 117.873H725.954V112.899H722.835V101.277H724.366L716.094 96.6841L707.839 101.277H709.384V112.899H709.375H706.261V117.873H705.097C704.912 117.873 704.747 117.971 704.658 118.127C704.551 118.29 704.544 118.491 704.627 118.645L706.264 121.966L703.598 186.661H702.59C702.307 186.661 702.066 186.887 702.066 187.175L701.334 204.393C701.334 204.527 701.392 204.665 701.49 204.77C701.588 204.886 701.738 204.944 701.867 204.944H730.333C730.468 204.944 730.622 204.886 730.734 204.77C730.808 204.665 730.87 204.527 730.863 204.393L730.165 187.175ZM717.279 112.899H714.923V109.829C714.923 109.18 715.454 108.649 716.094 108.649C716.759 108.649 717.279 109.18 717.279 109.829V112.899ZM716.648 117.873V113.969H718.358H721.747V117.873H716.648ZM713.853 113.969H715.566V117.873H710.453V113.969H713.853ZM724.876 117.873H722.835V113.969H724.876V117.873ZM710.453 101.277H721.747V112.899H718.358V109.829C718.358 108.582 717.354 107.57 716.094 107.57C714.869 107.57 713.853 108.582 713.853 109.833V112.899H710.453V101.277ZM707.334 113.969H709.375V117.873H707.334V113.969ZM706.754 136.144H725.458L726.126 152.265H706.087L706.754 136.144ZM704.685 186.661L705.342 170.543H726.864L727.529 186.661H704.685Z" fill="white"/>
<path d="M713.854 113.969H715.566V117.873H710.453V113.969H713.854Z" fill="#B48154"/>
<path d="M723.248 188.702C723.212 188.702 709.007 188.702 708.954 188.702C706.629 188.702 704.051 188.919 704.051 188.919C704.051 188.919 706.629 189.155 708.954 189.155H723.248C725.603 189.155 728.17 188.919 728.17 188.919C728.17 188.919 725.603 188.702 723.248 188.702Z" fill="#B48154"/>
<path d="M725.093 151.094C725.093 151.094 724.667 150.76 723.549 150.76C722.421 150.76 719.973 151.094 719.973 151.094C719.973 151.094 722.421 151.435 723.549 151.435C724.667 151.435 725.093 151.094 725.093 151.094Z" fill="#B48154"/>
<path d="M725.05 149.572C725.05 149.572 724.627 149.229 723.531 149.229C722.409 149.229 719.973 149.572 719.973 149.572C719.973 149.572 722.409 149.896 723.531 149.896C724.627 149.896 725.05 149.572 725.05 149.572Z" fill="#B48154"/>
<path d="M725.017 148.036C725.017 148.036 724.6 147.708 723.487 147.708C722.394 147.708 719.973 148.036 719.973 148.036C719.973 148.036 722.394 148.37 723.487 148.37C724.6 148.37 725.017 148.036 725.017 148.036Z" fill="#B48154"/>
<path d="M724.974 146.505C724.974 146.505 724.566 146.164 723.46 146.164C722.369 146.164 719.973 146.505 719.973 146.505C719.973 146.505 722.369 146.851 723.46 146.851C724.566 146.851 724.974 146.505 724.974 146.505Z" fill="#B48154"/>
<path d="M724.937 144.975C724.937 144.975 724.548 144.637 723.433 144.637C722.354 144.637 719.973 144.975 719.973 144.975C719.973 144.975 722.354 145.312 723.433 145.312C724.548 145.312 724.937 144.975 724.937 144.975Z" fill="#B48154"/>
<path d="M724.912 143.456C724.912 143.456 724.502 143.106 723.42 143.106C722.342 143.106 719.973 143.456 719.973 143.456C719.973 143.456 722.342 143.777 723.42 143.777C724.502 143.777 724.912 143.456 724.912 143.456Z" fill="#B48154"/>
<path d="M724.863 141.92C724.863 141.92 724.459 141.58 723.398 141.58C722.324 141.58 719.973 141.92 719.973 141.92C719.973 141.92 722.324 142.254 723.398 142.254C724.459 142.254 724.863 141.92 724.863 141.92Z" fill="#B48154"/>
<path d="M724.832 140.391C724.832 140.391 724.428 140.048 723.371 140.048C722.298 140.048 719.973 140.391 719.973 140.391C719.973 140.391 722.298 140.728 723.371 140.728C724.428 140.728 724.832 140.391 724.832 140.391Z" fill="#B48154"/>
<path d="M724.796 138.868C724.796 138.868 724.401 138.528 723.349 138.528C722.275 138.528 719.973 138.868 719.973 138.868C719.973 138.868 722.275 139.187 723.349 139.187C724.401 139.187 724.796 138.868 724.796 138.868Z" fill="#B48154"/>
<path d="M724.765 137.324C724.765 137.324 724.37 136.996 723.319 136.996C722.266 136.996 719.973 137.324 719.973 137.324C719.973 137.324 722.266 137.665 723.319 137.665C724.37 137.665 724.765 137.324 724.765 137.324Z" fill="#B48154"/>
<path d="M725.74 168.281C725.74 168.281 725.332 167.947 724.21 167.947C723.087 167.947 720.634 168.281 720.634 168.281C720.634 168.281 723.087 168.618 724.21 168.618C725.332 168.618 725.74 168.281 725.74 168.281Z" fill="#B48154"/>
<path d="M725.706 166.762C725.706 166.762 725.28 166.421 724.171 166.421C723.065 166.421 720.634 166.762 720.634 166.762C720.634 166.762 723.065 167.095 724.171 167.095C725.28 167.095 725.706 166.762 725.706 166.762Z" fill="#B48154"/>
<path d="M725.657 165.241C725.657 165.241 725.265 164.898 724.153 164.898C723.056 164.898 720.634 165.241 720.634 165.241C720.634 165.241 723.056 165.564 724.153 165.564C725.265 165.564 725.657 165.241 725.657 165.241Z" fill="#B48154"/>
<path d="M725.63 163.7C725.63 163.7 725.235 163.363 724.134 163.363C723.047 163.363 720.634 163.7 720.634 163.7C720.634 163.7 723.047 164.034 724.134 164.034C725.235 164.034 725.63 163.7 725.63 163.7Z" fill="#B48154"/>
<path d="M725.603 162.161C725.603 162.161 725.195 161.846 724.122 161.846C723.025 161.846 720.634 162.161 720.634 162.161C720.634 162.161 723.025 162.508 724.122 162.508C725.195 162.508 725.603 162.161 725.603 162.161Z" fill="#B48154"/>
<path d="M725.559 160.643C725.559 160.643 725.155 160.314 724.085 160.314C723.003 160.314 720.634 160.643 720.634 160.643C720.634 160.643 723.003 160.976 724.085 160.976C725.155 160.976 725.559 160.643 725.559 160.643Z" fill="#B48154"/>
<path d="M725.528 159.113C725.528 159.113 725.133 158.788 724.067 158.788C722.985 158.788 720.634 159.113 720.634 159.113C720.634 159.113 722.985 159.435 724.067 159.435C725.133 159.435 725.528 159.113 725.528 159.113Z" fill="#B48154"/>
<path d="M725.497 157.594C725.497 157.594 725.111 157.253 724.042 157.253C722.973 157.253 720.634 157.594 720.634 157.594C720.634 157.594 722.973 157.924 724.042 157.924C725.111 157.924 725.497 157.594 725.497 157.594Z" fill="#B48154"/>
<path d="M725.461 156.055C725.461 156.055 725.071 155.736 724.011 155.736C722.954 155.736 720.634 156.055 720.634 156.055C720.634 156.055 722.954 156.396 724.011 156.396C725.071 156.396 725.461 156.055 725.461 156.055Z" fill="#B48154"/>
<path d="M725.421 154.529C725.421 154.529 725.035 154.192 723.993 154.192C722.942 154.192 720.634 154.529 720.634 154.529C720.634 154.529 722.942 154.851 723.993 154.851C725.035 154.851 725.421 154.529 725.421 154.529Z" fill="#B48154"/>
<path d="M726.491 185.485C726.491 185.485 726.074 185.162 724.959 185.162C723.846 185.162 721.401 185.485 721.401 185.485C721.401 185.485 723.846 185.823 724.959 185.823C726.074 185.823 726.491 185.485 726.491 185.485Z" fill="#B48154"/>
<path d="M726.456 183.955C726.456 183.955 726.043 183.621 724.937 183.621C723.824 183.621 721.401 183.955 721.401 183.955C721.401 183.955 723.824 184.283 724.937 184.283C726.043 184.283 726.456 183.955 726.456 183.955Z" fill="#B48154"/>
<path d="M726.429 182.419C726.429 182.419 726.021 182.098 724.912 182.098C723.806 182.098 721.401 182.419 721.401 182.419C721.401 182.419 723.806 182.756 724.912 182.756C726.021 182.756 726.429 182.419 726.429 182.419Z" fill="#B48154"/>
<path d="M726.402 180.888C726.402 180.888 725.976 180.573 724.879 180.573C723.797 180.573 721.401 180.888 721.401 180.888C721.401 180.888 723.797 181.229 724.879 181.229C725.976 181.229 726.402 180.888 726.402 180.888Z" fill="#B48154"/>
<path d="M726.353 179.38C726.353 179.38 725.954 179.037 724.854 179.037C723.757 179.037 721.401 179.38 721.401 179.38C721.401 179.38 723.757 179.702 724.854 179.702C725.954 179.702 726.353 179.38 726.353 179.38Z" fill="#B48154"/>
<path d="M726.318 177.83C726.318 177.83 725.918 177.511 724.845 177.511C723.757 177.511 721.401 177.83 721.401 177.83C721.401 177.83 723.757 178.173 724.845 178.173C725.918 178.173 726.318 177.83 726.318 177.83Z" fill="#B48154"/>
<path d="M726.286 176.313C726.286 176.313 725.883 175.979 724.805 175.979C723.73 175.979 721.401 176.313 721.401 176.313C721.401 176.313 723.73 176.644 724.805 176.644C725.883 176.644 726.286 176.313 726.286 176.313Z" fill="#B48154"/>
<path d="M726.251 174.796C726.251 174.796 725.853 174.453 724.787 174.453C723.717 174.453 721.401 174.796 721.401 174.796C721.401 174.796 723.717 175.133 724.787 175.133C725.853 175.133 726.251 174.796 726.251 174.796Z" fill="#B48154"/>
<path d="M726.211 173.255C726.211 173.255 725.813 172.927 724.765 172.927C723.705 172.927 721.401 173.255 721.401 173.255C721.401 173.255 723.705 173.592 724.765 173.592C725.813 173.592 726.211 173.255 726.211 173.255Z" fill="#B48154"/>
<path d="M726.166 171.729C726.166 171.729 725.795 171.392 724.734 171.392C723.687 171.392 721.401 171.729 721.401 171.729C721.401 171.729 723.687 172.066 724.734 172.066C725.795 172.066 726.166 171.729 726.166 171.729Z" fill="#B48154"/>
<path d="M724.309 133.84C724.309 133.84 723.913 133.5 722.773 133.5C721.649 133.5 719.201 133.84 719.201 133.84C719.201 133.84 721.649 134.174 722.773 134.174C723.913 134.174 724.309 133.84 724.309 133.84Z" fill="#B48154"/>
<path d="M724.272 132.305C724.272 132.305 723.85 131.971 722.746 131.971C721.637 131.971 719.201 132.305 719.201 132.305C719.201 132.305 721.637 132.642 722.746 132.642C723.85 132.642 724.272 132.305 724.272 132.305Z" fill="#B48154"/>
<path d="M724.245 130.782C724.245 130.782 723.828 130.451 722.719 130.451C721.628 130.451 719.201 130.782 719.201 130.782C719.201 130.782 721.628 131.107 722.719 131.107C723.828 131.107 724.245 130.782 724.245 130.782Z" fill="#B48154"/>
<path d="M724.198 129.251C724.198 129.251 723.797 128.906 722.697 128.906C721.61 128.906 719.201 129.251 719.201 129.251C719.201 129.251 721.61 129.584 722.697 129.584C723.797 129.584 724.198 129.251 724.198 129.251Z" fill="#B48154"/>
<path d="M724.153 127.716C724.153 127.716 723.758 127.387 722.666 127.387C721.57 127.387 719.201 127.716 719.201 127.716C719.201 127.716 721.57 128.067 722.666 128.067C723.758 128.067 724.153 127.716 724.153 127.716Z" fill="#B48154"/>
<path d="M724.135 126.195C724.135 126.195 723.721 125.858 722.639 125.858C721.566 125.858 719.201 126.195 719.201 126.195C719.201 126.195 721.566 126.532 722.639 126.532C723.721 126.532 724.135 126.195 724.135 126.195Z" fill="#B48154"/>
<path d="M724.1 124.654C724.1 124.654 723.705 124.322 722.626 124.322C721.543 124.322 719.201 124.654 719.201 124.654C719.201 124.654 721.543 124.997 722.626 124.997C723.705 124.997 724.1 124.654 724.1 124.654Z" fill="#B48154"/>
<path d="M724.067 123.133C724.067 123.133 723.66 122.809 722.581 122.809C721.526 122.809 719.201 123.133 719.201 123.133C719.201 123.133 721.526 123.47 722.581 123.47C723.66 123.47 724.067 123.133 724.067 123.133Z" fill="#B48154"/>
<path d="M724.037 121.614C724.037 121.614 723.625 121.277 722.568 121.277C721.526 121.277 719.201 121.614 719.201 121.614C719.201 121.614 721.526 121.935 722.568 121.935C723.625 121.935 724.037 121.614 724.037 121.614Z" fill="#B48154"/>
<path d="M716.094 142.089C715.291 142.089 714.638 142.76 714.638 143.572V146.345H717.589V143.572C717.589 142.76 716.924 142.089 716.094 142.089Z" fill="#B48154"/>
<path d="M716.094 141.313C716.56 141.313 717.013 141.46 717.354 141.694C717.274 141.5 716.928 140.759 715.791 140.603C714.479 140.431 713.48 141.348 713.147 142.031C712.846 142.609 712.784 142.889 712.784 144.127C712.784 144.397 712.784 147.114 712.784 147.114H713.861V143.572C713.861 142.334 714.869 141.313 716.094 141.313Z" fill="#B48154"/>
<path d="M716.094 124.837C715.291 124.837 714.638 125.497 714.638 126.305V129.079H717.589V126.305C717.589 125.497 716.924 124.837 716.094 124.837Z" fill="#B48154"/>
<path d="M716.094 124.051C716.56 124.051 717.013 124.188 717.354 124.437C717.274 124.252 716.928 123.514 715.791 123.346C714.479 123.168 713.48 124.09 713.147 124.779C712.846 125.365 712.784 125.626 712.784 126.869C712.784 127.148 712.784 129.856 712.784 129.856H713.861V126.305C713.861 125.077 714.869 124.051 716.094 124.051Z" fill="#B48154"/>
<path d="M716.094 159.285C715.291 159.285 714.638 159.95 714.638 160.75V163.532H717.589V160.75C717.589 159.95 716.924 159.285 716.094 159.285Z" fill="#B48154"/>
<path d="M716.094 158.504C716.56 158.504 717.013 158.642 717.354 158.89C717.274 158.703 716.928 157.958 715.791 157.808C714.479 157.621 713.48 158.549 713.147 159.233C712.846 159.827 712.784 160.085 712.784 161.317C712.784 161.593 712.784 164.31 712.784 164.31H713.861V160.75C713.861 159.521 714.869 158.504 716.094 158.504Z" fill="#B48154"/>
<path d="M716.094 176.481C715.291 176.481 714.638 177.146 714.638 177.958V180.737H717.589V177.958C717.589 177.146 716.924 176.481 716.094 176.481Z" fill="#B48154"/>
<path d="M716.094 175.713C716.56 175.713 717.013 175.847 717.354 176.083C717.274 175.905 716.928 175.158 715.791 175.008C714.479 174.808 713.48 175.745 713.147 176.411C712.846 177.014 712.784 177.281 712.784 178.519C712.784 178.794 712.784 181.513 712.784 181.513H713.861V177.959C713.861 176.712 714.869 175.713 716.094 175.713Z" fill="#B48154"/>
<path d="M730.165 187.175C730.143 186.887 729.898 186.661 729.628 186.661H728.621L725.954 121.966L727.591 118.645C727.671 118.491 727.658 118.29 727.56 118.127C727.455 117.971 727.285 117.873 727.107 117.873H725.954V112.899H722.835V101.277H724.365L716.094 96.6841L707.839 101.277H709.384V112.899H709.375H706.261V117.873H705.097C704.912 117.873 704.747 117.971 704.658 118.127C704.551 118.29 704.544 118.491 704.627 118.645L706.264 121.966L703.598 186.661H702.59C702.307 186.661 702.066 186.887 702.066 187.175L701.334 204.393C701.334 204.527 701.392 204.663 701.49 204.77C701.588 204.886 701.738 204.944 701.867 204.944H730.333C730.468 204.944 730.622 204.886 730.734 204.77C730.808 204.663 730.87 204.527 730.863 204.393L730.165 187.175ZM710.453 101.277H721.747V112.899H718.358V109.829C718.358 108.582 717.354 107.57 716.094 107.57C714.869 107.57 713.853 108.582 713.853 109.833V112.899H710.453V101.277ZM706.065 119.001H706.261H707.392H709.331H710.453H715.499H716.648H721.695H722.835H724.818H725.954H726.154L724.919 121.468L724.796 121.725L724.818 122.022L725.36 135.008H706.868L707.392 122.004L707.404 121.725L707.285 121.468L706.065 119.001ZM706.754 136.144H725.458L726.126 152.265H706.087L706.754 136.144ZM706.039 153.347H726.126L726.775 169.465H705.381L706.039 153.347ZM704.685 186.661L705.342 170.543H726.864L727.529 186.661H704.685Z" fill="#B48154"/>
<path d="M716.094 93.0461L715.566 97.5413H716.649L716.094 93.0461Z" fill="#B48154"/>
<path d="M725.954 111.83H706.261V110.748H725.954V111.83Z" fill="#B48154"/>
<path d="M725.954 109.673H706.261V108.594H725.954V109.673Z" fill="#B48154"/>
<path d="M724.432 101.277H707.769V100.199H724.432V101.277Z" fill="#B48154"/>
<path d="M707.334 111.83H706.261V108.576H707.334V111.83Z" fill="#B48154"/>
<path d="M725.954 111.83H724.876V108.576H725.954V111.83Z" fill="#B48154"/>
<path d="M721.394 116.612C721.394 116.612 721.035 116.18 720.082 116.18C719.096 116.18 716.999 116.612 716.999 116.612C716.999 116.612 719.096 117.027 720.082 117.027C721.035 117.027 721.394 116.612 721.394 116.612Z" fill="#B48154"/>
<path d="M720.935 115.171C720.935 115.171 720.651 114.83 719.897 114.83C719.116 114.83 717.457 115.171 717.457 115.171C717.457 115.171 719.116 115.491 719.897 115.491C720.651 115.491 720.935 115.171 720.935 115.171Z" fill="#B48154"/>
<path d="M720.935 104.126C720.935 104.126 720.651 103.802 719.897 103.802C719.116 103.802 717.457 104.126 717.457 104.126C717.457 104.126 719.116 104.449 719.897 104.449C720.651 104.449 720.935 104.126 720.935 104.126Z" fill="#B48154"/>
<path d="M720.935 105.604C720.935 105.604 720.651 105.27 719.897 105.27C719.116 105.27 717.457 105.604 717.457 105.604C717.457 105.604 719.116 105.95 719.897 105.95C720.651 105.95 720.935 105.604 720.935 105.604Z" fill="#B48154"/>
<path d="M720.935 102.64C720.935 102.64 720.651 102.31 719.897 102.31C719.116 102.31 717.457 102.64 717.457 102.64C717.457 102.64 719.116 102.972 719.897 102.972C720.651 102.972 720.935 102.64 720.935 102.64Z" fill="#B48154"/>
<path d="M713.786 202.676C713.786 202.676 711.084 202.907 708.635 202.907C706.168 202.907 703.469 202.676 703.469 202.676C703.469 202.676 706.168 202.459 708.635 202.459C711.084 202.459 713.786 202.676 713.786 202.676Z" fill="#B48154"/>
<path d="M703.549 201.159C703.549 201.159 706.221 200.933 708.669 200.933C711.102 200.933 713.786 201.159 713.786 201.159C713.786 201.159 711.102 201.362 708.669 201.362C706.221 201.362 703.549 201.159 703.549 201.159Z" fill="#B48154"/>
<path d="M703.598 199.628C703.598 199.628 706.264 199.388 708.691 199.388C711.129 199.388 713.799 199.628 713.799 199.628C713.799 199.628 711.129 199.854 708.691 199.854C706.264 199.854 703.598 199.628 703.598 199.628Z" fill="#B48154"/>
<path d="M703.665 198.102C703.665 198.102 706.328 197.866 708.746 197.866C711.158 197.866 713.808 198.102 713.808 198.102C713.808 198.102 711.158 198.323 708.746 198.323C706.328 198.323 703.665 198.102 703.665 198.102Z" fill="#B48154"/>
<path d="M703.736 196.566C703.736 196.566 706.377 196.344 708.771 196.344C711.176 196.344 713.814 196.566 713.814 196.566C713.814 196.566 711.176 196.797 708.771 196.797C706.377 196.797 703.736 196.566 703.736 196.566Z" fill="#B48154"/>
<path d="M703.788 195.038C703.788 195.038 706.442 194.814 708.804 194.814C711.185 194.814 713.823 195.038 713.823 195.038C713.823 195.038 711.185 195.261 708.804 195.261C706.442 195.261 703.788 195.038 703.788 195.038Z" fill="#B48154"/>
<path d="M703.864 193.518C703.864 193.518 706.469 193.282 708.852 193.282C711.225 193.282 713.839 193.518 713.839 193.518C713.839 193.518 711.225 193.735 708.852 193.735C706.469 193.735 703.864 193.518 703.864 193.518Z" fill="#B48154"/>
<path d="M703.913 191.977C703.913 191.977 706.521 191.75 708.892 191.75C711.247 191.75 713.853 191.977 713.853 191.977C713.853 191.977 711.247 192.203 708.892 192.203C706.521 192.203 703.913 191.977 703.913 191.977Z" fill="#B48154"/>
<path d="M703.988 190.451C703.988 190.451 706.576 190.224 708.905 190.224C711.271 190.224 713.861 190.451 713.861 190.451C713.861 190.451 711.271 190.681 708.905 190.681C706.576 190.681 703.988 190.451 703.988 190.451Z" fill="#B48154"/>
<path d="M694.786 218.288H696.426V213.633L696.602 212.832L696.034 213.528L694.989 214.248L694.338 213.363L697.024 211.196H697.885V218.288H699.487V219.584H694.786V218.288Z" fill="white"/>
<path d="M700.406 217.569C700.406 217.295 700.441 217.05 700.511 216.833C700.582 216.619 700.684 216.419 700.812 216.244C700.941 216.068 701.095 215.908 701.271 215.769C701.448 215.626 701.637 215.497 701.844 215.377C701.459 215.134 701.155 214.855 700.934 214.536C700.714 214.219 700.606 213.824 700.606 213.353C700.606 213.046 700.662 212.76 700.778 212.492C700.888 212.225 701.053 211.993 701.271 211.797C701.487 211.6 701.749 211.448 702.054 211.337C702.362 211.228 702.708 211.174 703.092 211.174C703.446 211.174 703.769 211.219 704.059 211.313C704.349 211.408 704.597 211.542 704.807 211.714C705.014 211.886 705.173 212.096 705.289 212.345C705.402 212.591 705.462 212.865 705.462 213.164C705.462 213.626 705.356 214.02 705.146 214.342C704.94 214.665 704.635 214.958 704.233 215.225C704.706 215.5 705.063 215.803 705.3 216.131C705.541 216.463 705.661 216.885 705.661 217.405C705.661 217.759 705.594 218.078 705.465 218.364C705.335 218.653 705.153 218.897 704.92 219.102C704.68 219.307 704.398 219.465 704.069 219.579C703.74 219.693 703.379 219.749 702.984 219.749C702.592 219.749 702.235 219.697 701.918 219.59C701.603 219.485 701.331 219.338 701.106 219.149C700.883 218.961 700.711 218.732 700.588 218.464C700.466 218.198 700.406 217.9 700.406 217.569ZM704.198 217.418C704.198 217.235 704.156 217.07 704.069 216.922C703.981 216.771 703.87 216.637 703.732 216.516C703.596 216.394 703.442 216.282 703.276 216.178C703.103 216.077 702.935 215.979 702.761 215.885C702.393 216.097 702.137 216.327 702.001 216.574C701.865 216.82 701.795 217.067 701.795 217.311C701.795 217.625 701.903 217.893 702.121 218.116C702.333 218.341 702.634 218.453 703.02 218.453C703.373 218.453 703.66 218.366 703.876 218.194C704.089 218.02 704.198 217.763 704.198 217.418ZM702.068 213.376C702.068 213.565 702.103 213.728 702.174 213.871C702.242 214.012 702.34 214.136 702.46 214.241C702.581 214.348 702.719 214.446 702.873 214.536C703.027 214.627 703.187 214.712 703.352 214.788C703.821 214.388 704.059 213.949 704.059 213.47C704.059 213.139 703.961 212.89 703.769 212.722C703.576 212.553 703.341 212.468 703.069 212.468C702.723 212.468 702.471 212.559 702.309 212.738C702.148 212.921 702.068 213.131 702.068 213.376Z" fill="white"/>
<path d="M706.968 218.288H708.606V213.633L708.784 212.832L708.217 213.528L707.167 214.248L706.52 213.363L709.208 211.196H710.067V218.288H711.67V219.584H706.968V218.288Z" fill="white"/>
<path d="M717.994 217.027C717.994 217.413 717.931 217.77 717.802 218.1C717.67 218.43 717.486 218.716 717.253 218.961C717.019 219.204 716.731 219.396 716.399 219.537C716.064 219.678 715.696 219.749 715.297 219.749C714.887 219.749 714.514 219.684 714.171 219.555C713.832 219.425 713.533 219.231 713.283 218.972C713.031 218.712 712.835 218.386 712.694 217.995C712.551 217.601 712.482 217.146 712.482 216.626C712.482 215.85 712.592 215.147 712.817 214.52C713.04 213.889 713.341 213.342 713.724 212.876C714.104 212.408 714.548 212.031 715.056 211.743C715.563 211.457 716.098 211.266 716.665 211.174L717.004 212.385C716.613 212.448 716.252 212.571 715.92 212.751C715.591 212.932 715.297 213.148 715.041 213.4C714.786 213.65 714.574 213.931 714.394 214.241C714.22 214.552 714.093 214.871 714.024 215.201C714.182 215.006 714.383 214.839 714.635 214.701C714.887 214.563 715.203 214.494 715.581 214.494C715.933 214.494 716.259 214.551 716.557 214.659C716.854 214.77 717.109 214.931 717.323 215.149C717.535 215.365 717.7 215.629 717.82 215.945C717.934 216.258 717.994 216.619 717.994 217.027ZM716.511 217.11C716.511 216.231 716.078 215.79 715.213 215.79C714.898 215.79 714.635 215.861 714.42 216.003C714.202 216.144 714.052 216.309 713.965 216.497C713.95 216.584 713.943 216.659 713.943 216.72C713.943 216.784 713.943 216.847 713.943 216.911C713.943 217.099 713.968 217.284 714.024 217.469C714.081 217.654 714.16 217.819 714.266 217.966C714.371 218.111 714.507 218.227 714.672 218.317C714.835 218.41 715.034 218.453 715.262 218.453C715.629 218.453 715.929 218.328 716.161 218.076C716.395 217.824 716.511 217.503 716.511 217.11Z" fill="white"/>
<path d="M725.416 215.049H723.189V219.584H721.61V213.693H725.416V215.049Z" fill="white"/>
<path d="M725.661 216.639C725.661 215.642 725.906 214.874 726.393 214.335C726.879 213.799 727.564 213.529 728.442 213.529C728.915 213.529 729.324 213.603 729.667 213.753C730.013 213.902 730.3 214.112 730.528 214.382C730.754 214.654 730.925 214.982 731.041 215.368C731.153 215.753 731.213 216.175 731.213 216.639C731.213 217.636 730.972 218.404 730.488 218.943C730.002 219.481 729.324 219.749 728.442 219.749C727.974 219.749 727.564 219.675 727.218 219.525C726.872 219.376 726.586 219.166 726.35 218.896C726.12 218.624 725.948 218.297 725.833 217.911C725.721 217.527 725.661 217.103 725.661 216.639ZM727.242 216.639C727.242 216.898 727.263 217.137 727.312 217.359C727.358 217.578 727.432 217.77 727.526 217.935C727.617 218.1 727.742 218.227 727.896 218.317C728.047 218.41 728.233 218.453 728.442 218.453C728.844 218.453 729.141 218.308 729.337 218.017C729.533 217.727 729.631 217.266 729.631 216.639C729.631 216.097 729.544 215.66 729.362 215.325C729.181 214.991 728.877 214.826 728.442 214.826C728.065 214.826 727.771 214.968 727.561 215.249C727.347 215.531 727.242 215.995 727.242 216.639Z" fill="white"/>
<path d="M738.128 220.927H737.008L736.83 219.584H732.87L732.696 220.927H731.576V218.228H732.272C732.335 218.143 732.417 217.996 732.515 217.788C732.612 217.58 732.71 217.295 732.808 216.932C732.906 216.572 732.99 216.124 733.06 215.591C733.133 215.056 733.169 214.426 733.169 213.693H737.267V218.228H738.128V220.927ZM735.736 218.301V214.989H734.498C734.483 215.272 734.456 215.573 734.416 215.89C734.374 216.209 734.325 216.517 734.269 216.816C734.211 217.116 734.14 217.393 734.064 217.652C733.983 217.911 733.896 218.127 733.805 218.301H735.736Z" fill="white"/>
<path d="M689.09 217.877H634.354V216.019H689.09V217.877Z" fill="white"/>
<path d="M797.526 218.042H742.79V215.854H797.526V218.042Z" fill="white"/>
<path d="M644.556 255.365L645.265 255.272C654.446 254.101 665.581 245.348 667.682 237.813C668.545 232.493 656.855 238.884 648.999 249.343C648.577 249.905 645.098 254.328 644.556 255.365ZM641.33 264.412C639.196 262.13 641.002 258.203 642.347 256.235L642.856 255.553C639.945 255.171 636.298 253.913 632.745 254.776C629.734 255.586 627.378 257.353 626.395 259.808C626.167 260.13 626.1 260.136 626.187 259.849C626.85 258.276 627.994 256.924 630.048 255.599C634.458 253.124 638.359 254.79 643.01 255.252C647.199 249.35 657.363 236.093 666.33 235.658C667.541 235.652 668.09 236.629 667.889 237.84C665.975 244.07 659.518 249.463 653.71 252.675C651.12 253.927 647.553 255.278 644.388 255.599C642.782 257.687 640.902 262.345 642.28 264.078C645.486 268.113 659.391 259.153 665.835 254.656C666.37 254.355 666.39 254.489 666.089 254.716C658.983 259.4 645.198 268.621 641.33 264.412Z" fill="white"/>
<path d="M644.556 255.366L644.583 255.6L645.292 255.513C654.593 254.308 665.748 245.562 667.916 237.88V237.854L667.97 237.291C667.97 236.776 667.816 236.341 667.508 236.06C667.193 235.772 666.765 235.659 666.27 235.659C664.51 235.665 661.68 237.084 658.481 239.473C655.289 241.869 651.776 245.241 648.805 249.196C648.383 249.765 644.917 254.161 644.335 255.245L644.348 255.499L644.583 255.6L644.556 255.366L644.77 255.473C645.278 254.502 648.778 250.052 649.2 249.49C652.137 245.576 655.624 242.23 658.775 239.868C661.914 237.499 664.764 236.134 666.27 236.147C666.692 236.147 666.986 236.248 667.173 236.422C667.361 236.596 667.475 236.857 667.481 237.291L667.441 237.773L667.682 237.813L667.441 237.746C665.407 245.141 654.299 253.893 645.232 255.031L644.522 255.118L644.556 255.366L644.77 255.473L644.556 255.366ZM641.33 264.413L641.511 264.245C640.849 263.536 640.594 262.666 640.594 261.716C640.588 259.822 641.672 257.661 642.555 256.376L642.348 256.235L642.548 256.383L643.05 255.7L643.077 255.459L642.89 255.312C640.728 255.031 638.098 254.235 635.382 254.235C634.485 254.235 633.588 254.322 632.685 254.542H632.678C629.62 255.366 627.191 257.172 626.161 259.722L626.395 259.809L626.194 259.675L626.067 259.829L626.053 259.849L626.174 260.003V259.809L626.053 259.849L626.174 260.003V259.809V260.043L626.375 259.936L626.174 259.809V260.043L626.375 259.936L626.207 260.023H626.395L626.375 259.936L626.207 260.023H626.395L626.401 260.003L626.422 259.916L626.187 259.849L626.415 259.943C627.057 258.417 628.155 257.119 630.175 255.8L630.048 255.6L630.162 255.807C631.909 254.83 633.561 254.522 635.228 254.522C637.69 254.516 640.186 255.218 642.983 255.499L643.211 255.392C647.366 249.497 657.584 236.288 666.337 235.906L666.33 235.659V235.906H666.337C667.247 235.92 667.662 236.475 667.689 237.365L667.649 237.8L667.889 237.84L667.662 237.767C665.782 243.889 659.364 249.276 653.589 252.461L653.71 252.675L653.603 252.455C651.033 253.699 647.48 255.044 644.362 255.359L644.194 255.446C642.95 257.079 641.565 260.13 641.558 262.365C641.558 263.088 641.705 263.737 642.087 264.225C642.716 265.015 643.706 265.343 644.87 265.336C650.317 265.316 660.636 258.564 665.976 254.857L665.835 254.656L665.956 254.87L666.196 254.75L666.257 254.723L666.25 254.703V254.723H666.257L666.25 254.703V254.723V254.529L666.136 254.69L666.25 254.723V254.529L666.136 254.69L666.263 254.502H666.042L666.136 254.69L666.263 254.502H666.042H666.21L666.063 254.415L666.042 254.502H666.21L666.063 254.415L666.036 254.442L665.942 254.522L666.089 254.716L665.956 254.516C660.127 258.363 649.728 265.262 644.241 265.242C643.064 265.236 642.14 264.928 641.518 264.245H641.511L641.33 264.413L641.156 264.58C641.899 265.39 642.983 265.731 644.241 265.724C650.043 265.711 660.361 258.772 666.223 254.924L666.237 254.91L666.411 254.757L666.531 254.502L666.411 254.288L666.25 254.235L665.715 254.449L665.695 254.455C660.408 258.156 649.996 264.874 644.87 264.854C643.78 264.848 642.977 264.56 642.468 263.924C642.18 263.563 642.046 263.027 642.046 262.365C642.04 260.324 643.398 257.273 644.583 255.747L644.388 255.6L644.409 255.841C647.627 255.519 651.214 254.154 653.81 252.89H653.824C659.665 249.658 666.17 244.251 668.124 237.914L668.13 237.88L668.177 237.365C668.177 236.83 668.023 236.341 667.709 235.987C667.394 235.625 666.919 235.411 666.337 235.411H666.324L666.317 235.418C657.143 235.9 647.025 249.209 642.809 255.111L643.01 255.252L643.03 255.011C640.287 254.736 637.777 254.034 635.228 254.027C633.501 254.027 631.748 254.362 629.928 255.386L629.915 255.392C627.833 256.737 626.642 258.129 625.966 259.755L625.96 259.775L625.906 260.023L625.94 260.163L626.174 260.304L626.435 260.163L626.589 259.956L626.616 259.902C627.566 257.534 629.848 255.807 632.805 255.011L632.745 254.777L632.799 255.018C633.655 254.803 634.518 254.723 635.382 254.723C638.005 254.723 640.608 255.499 642.823 255.8L642.856 255.553L642.662 255.412L642.153 256.088L642.147 256.095C641.23 257.44 640.113 259.641 640.106 261.716C640.106 262.753 640.394 263.77 641.156 264.58L641.33 264.413Z" fill="white"/>
<path d="M664.938 254.643C665.414 253.626 666.779 254.455 665.126 255.131C665.112 257.587 670.231 251.665 671.208 250.728L672.446 250.855C671.135 252.856 669.482 255.887 672.493 255.453C674.487 255.178 678.737 252.763 679.573 252.2L679.6 252.334C677.699 253.539 674.889 255.105 672.754 255.586C668.759 256.463 669.897 252.903 671.055 251.244C671.195 251.049 670.834 251.351 670.231 252.047C668.244 254.335 664.577 257.895 664.938 254.643Z" fill="white"/>
<path d="M664.938 254.643L665.159 254.75C665.286 254.475 665.46 254.415 665.574 254.409L665.668 254.435L665.675 254.442L665.574 254.589C665.48 254.676 665.306 254.79 665.039 254.904L664.885 255.125V255.138L665.032 255.727L665.521 255.968C665.956 255.954 666.404 255.66 666.953 255.245C668.565 254 670.787 251.471 671.376 250.909L671.208 250.728L671.188 250.976L672.42 251.103L672.446 250.855L672.239 250.722C671.469 251.913 670.566 253.418 670.553 254.522C670.553 254.857 670.646 255.178 670.894 255.406C671.142 255.64 671.503 255.74 671.965 255.74L672.527 255.693C674.628 255.392 678.837 252.983 679.714 252.401L679.573 252.2L679.332 252.247L679.359 252.381L679.6 252.334L679.466 252.127C677.579 253.325 674.775 254.884 672.701 255.345C672.293 255.432 671.938 255.479 671.637 255.479C671.055 255.473 670.713 255.325 670.513 255.111C670.305 254.897 670.211 254.589 670.211 254.194C670.205 253.325 670.727 252.127 671.255 251.384L671.329 251.19L671.255 251.016L671.081 250.942L670.914 250.996C670.767 251.103 670.479 251.391 670.044 251.893C669.342 252.696 668.425 253.666 667.562 254.429C666.712 255.198 665.862 255.727 665.487 255.707L665.266 255.6C665.206 255.519 665.153 255.345 665.153 255.051L665.179 254.67L664.938 254.643L665.159 254.75L664.938 254.643L664.698 254.616L664.664 255.051C664.671 255.399 664.724 255.673 664.865 255.881L665.487 256.195C666.176 256.175 666.986 255.573 667.883 254.797C668.773 254.014 669.696 253.03 670.412 252.207C670.653 251.933 670.847 251.719 670.994 251.585L671.155 251.431L671.188 251.404L671.081 251.243V251.431L671.188 251.404L671.081 251.243V251.431V251.19L670.907 251.357L671.081 251.431V251.19L670.907 251.357L671.081 251.19H670.84L670.907 251.357L671.081 251.19H670.84H671.041L670.867 251.096L670.84 251.19H671.041L670.867 251.096L670.854 251.103C670.292 251.926 669.73 253.144 669.723 254.194C669.723 254.663 669.837 255.118 670.158 255.446C670.479 255.787 670.974 255.968 671.637 255.968C671.978 255.961 672.366 255.921 672.808 255.821C675.003 255.325 677.813 253.746 679.727 252.542L679.841 252.294L679.814 252.16L679.667 251.973L679.439 252C678.643 252.542 674.34 254.957 672.46 255.212L671.965 255.252C671.577 255.252 671.349 255.165 671.229 255.051C671.101 254.937 671.041 254.777 671.041 254.522C671.028 253.679 671.884 252.147 672.647 250.996L672.667 250.755L672.466 250.614L671.235 250.487L671.041 250.554C670.62 250.956 669.509 252.194 668.338 253.345C667.762 253.913 667.167 254.462 666.658 254.857C666.15 255.258 665.688 255.493 665.521 255.479L665.427 255.446L665.373 255.138V255.131H665.126L665.219 255.352C665.828 255.098 666.143 254.823 666.163 254.442C666.156 254.101 665.849 253.927 665.574 253.927C665.26 253.92 664.905 254.128 664.711 254.542L664.698 254.616L664.938 254.643Z" fill="white"/>
<path d="M679.974 251.886C678.703 254.121 681.246 253.043 682.056 251.524C683.815 248.921 681.125 249.811 679.974 251.886ZM683.093 249.919L683.641 249.129C684.204 249.169 684.551 249.383 684.384 249.617C679.278 256.028 688.285 251.705 690.266 250.347L690.286 250.481C688.794 251.652 682.37 254.683 681.801 252.468C677.057 256.001 678.449 248.553 683.093 249.919Z" fill="white"/>
<path d="M679.975 251.886L679.76 251.765C679.506 252.22 679.379 252.548 679.379 252.836L679.546 253.264L679.955 253.405C680.677 253.378 681.728 252.615 682.27 251.638L682.056 251.524L682.256 251.658C682.678 251.029 682.872 250.594 682.879 250.24L682.718 249.818L682.317 249.678C681.581 249.704 680.47 250.534 679.76 251.772V251.765L679.975 251.886L680.182 252.006C680.784 250.895 681.955 250.139 682.317 250.166L682.384 250.173L682.39 250.24C682.397 250.394 682.256 250.795 681.855 251.384L681.835 251.411C681.427 252.227 680.323 252.95 679.955 252.923L679.881 252.91L679.868 252.836C679.861 252.709 679.948 252.421 680.182 252.013V252.006L679.975 251.886ZM683.093 249.918L683.287 250.059L683.842 249.269L683.642 249.129L683.622 249.37L684.103 249.477L684.19 249.537V249.53V249.537V249.53L684.257 249.504H684.184L684.19 249.53L684.257 249.504H684.184H684.217L684.184 249.483V249.504H684.217L684.184 249.483L684.384 249.617L684.19 249.463C683.086 250.875 682.611 251.752 682.598 252.408C682.591 252.689 682.718 252.95 682.932 253.09C683.14 253.231 683.401 253.278 683.688 253.278C685.515 253.258 689.162 251.384 690.4 250.547L690.266 250.347L690.025 250.394L690.045 250.521L690.286 250.481L690.139 250.293C689.095 251.123 685.207 253.03 683.207 253.01C682.504 253.003 682.149 252.823 682.042 252.408L681.888 252.234L681.661 252.267C680.758 252.95 680.095 253.191 679.707 253.184C679.259 253.164 679.125 252.956 679.105 252.508C679.098 252.046 679.359 251.397 679.854 250.889C680.349 250.373 681.059 249.992 681.969 249.992C682.297 249.992 682.645 250.039 683.019 250.153L683.287 250.059L683.093 249.918L683.16 249.684C682.738 249.557 682.343 249.504 681.969 249.504C679.854 249.517 678.623 251.27 678.616 252.508C678.616 252.809 678.69 253.104 678.877 253.324C679.065 253.552 679.359 253.672 679.707 253.672C680.276 253.672 680.998 253.365 681.949 252.662L681.801 252.468L681.567 252.528C681.748 253.244 682.444 253.512 683.207 253.498C685.455 253.485 689.263 251.578 690.44 250.675L690.527 250.44L690.507 250.307L690.36 250.126L690.126 250.146C688.995 250.936 685.241 252.809 683.688 252.789L683.207 252.689L683.086 252.408C683.073 252.02 683.481 251.13 684.578 249.771L684.585 249.758L684.672 249.504L684.311 249.035C684.137 248.955 683.916 248.901 683.655 248.888L683.441 248.988L682.885 249.778L683.093 249.918L683.16 249.684L683.093 249.918Z" fill="white"/>
<path d="M704.907 233.778C705.811 231.851 703.763 232.42 702.545 233.149C699.942 234.715 692.635 244.94 691.751 247.175C697.212 245.355 703.656 236.488 704.907 233.778ZM702.967 232.627C704.285 232.052 705.503 231.864 705.248 233.189C704.639 236.388 696.656 246.104 691.624 247.449C688.847 252.709 692.059 252.28 693.23 250.835C694.555 249.142 693.09 249.851 692.956 249.704C692.233 249.343 694.127 248.112 694.1 249.503C698.008 250.648 699.875 249.075 701.173 248.359L701.2 248.493C699.942 249.229 698.095 250.768 694.06 249.677C693.103 253.063 688.178 252.655 689.998 248.627C695.251 236.97 702.003 233.042 702.967 232.627Z" fill="white"/>
<path d="M704.907 233.778L705.128 233.879C705.289 233.531 705.369 233.243 705.376 232.989L705.101 232.393L704.506 232.219C703.864 232.226 703.054 232.567 702.418 232.942C699.701 234.615 692.474 244.753 691.524 247.088L691.571 247.349L691.825 247.409C697.433 245.509 703.83 236.656 705.128 233.879L704.907 233.778L704.68 233.671C703.475 236.321 696.991 245.194 691.671 246.947L691.752 247.175L691.973 247.269C692.802 245.127 700.19 234.822 702.672 233.357C703.241 233.009 704.044 232.701 704.506 232.708L704.807 232.781L704.887 232.989C704.887 233.129 704.834 233.357 704.687 233.671H704.68L704.907 233.778ZM702.967 232.627L703.067 232.848C703.636 232.594 704.198 232.433 704.553 232.433L704.927 232.534L705.041 232.875L705.008 233.149C704.74 234.628 702.599 237.88 699.909 240.851C697.232 243.829 693.973 246.573 691.564 247.208L691.41 247.329C690.601 248.861 690.28 249.925 690.28 250.681C690.28 251.116 690.393 251.464 690.614 251.698C690.835 251.933 691.143 252.033 691.451 252.033C692.153 252.026 692.923 251.585 693.418 250.982C693.833 250.447 694.007 250.159 694.027 249.858L693.826 249.504L693.518 249.43L693.043 249.484V249.497L693.05 249.484H693.043V249.497L693.05 249.484L693.003 249.658L693.144 249.544L693.05 249.484L693.003 249.658L693.144 249.544L693.063 249.484L693.03 249.463L693.01 249.477H693.036L693.03 249.463L693.01 249.477H693.036L693.07 249.403L693.632 249.102L693.779 249.156L693.853 249.47V249.504L694.027 249.738C695.037 250.032 695.914 250.153 696.69 250.153C698.992 250.153 700.35 249.089 701.287 248.567L701.173 248.359L700.933 248.399L700.959 248.533L701.2 248.493L701.073 248.279C700.103 248.855 698.898 249.811 696.677 249.811C695.947 249.811 695.104 249.704 694.127 249.443L693.826 249.617C693.425 251.043 692.28 251.719 691.33 251.719C690.494 251.698 689.858 251.25 689.838 250.226C689.838 249.825 689.952 249.323 690.219 248.727C695.445 237.124 702.171 233.23 703.067 232.848L702.967 232.627L702.873 232.4C701.836 232.848 695.057 236.81 689.778 248.533C689.483 249.176 689.356 249.738 689.356 250.226C689.349 250.862 689.577 251.371 689.945 251.705C690.313 252.046 690.808 252.207 691.33 252.207C692.501 252.207 693.833 251.377 694.295 249.745L694.06 249.678L694 249.918C695.011 250.193 695.9 250.3 696.677 250.3C699.046 250.307 700.404 249.243 701.321 248.701L701.434 248.446L701.414 248.312L701.274 248.139L701.053 248.145C700.056 248.694 698.838 249.657 696.69 249.664C695.967 249.664 695.131 249.55 694.167 249.269L694.1 249.504H694.341L694.348 249.47C694.348 249.209 694.281 248.988 694.147 248.834L693.632 248.614C693.371 248.614 693.123 248.721 692.923 248.868C692.735 249.022 692.561 249.202 692.548 249.477L692.849 249.918L692.956 249.704L692.776 249.865L693.043 249.972L693.518 249.925H693.572H693.585L693.619 249.858H693.538L693.585 249.925L693.619 249.858H693.538C693.552 249.885 693.438 250.179 693.036 250.681C692.642 251.177 691.939 251.551 691.451 251.545C691.042 251.518 690.795 251.391 690.768 250.681C690.768 250.072 691.049 249.049 691.839 247.556L691.625 247.449L691.685 247.683C694.301 246.974 697.553 244.19 700.277 241.173C702.994 238.155 705.148 234.949 705.49 233.243L705.53 232.875C705.53 232.581 705.436 232.326 705.249 232.159C705.055 231.998 704.807 231.945 704.553 231.945C704.064 231.945 703.475 232.139 702.873 232.4L702.967 232.627Z" fill="white"/>
<path d="M701.575 248.078C700.303 250.313 702.853 249.236 703.656 247.71C705.416 245.114 702.733 246.004 701.575 248.078ZM704.693 246.111L705.249 245.322C705.811 245.362 706.159 245.576 705.991 245.81C700.886 252.221 709.893 247.891 711.867 246.539L711.893 246.673C710.401 247.838 703.977 250.876 703.408 248.654C698.664 252.194 700.049 244.746 704.693 246.111Z" fill="white"/>
<path d="M701.575 248.078L701.361 247.958C701.106 248.413 700.986 248.741 700.979 249.022L701.146 249.45L701.555 249.597C702.284 249.564 703.335 248.801 703.877 247.824L703.656 247.71L703.857 247.851C704.285 247.215 704.479 246.787 704.486 246.432L704.318 246.011L703.923 245.87C703.187 245.897 702.07 246.727 701.361 247.958L701.575 248.078L701.789 248.199C702.384 247.088 703.555 246.325 703.923 246.359L703.984 246.365L703.99 246.432C704.004 246.579 703.857 246.988 703.455 247.576L703.442 247.603C703.033 248.42 701.929 249.142 701.555 249.109L701.481 249.095L701.468 249.022C701.468 248.901 701.548 248.614 701.789 248.199L701.575 248.078ZM704.693 246.111L704.894 246.245L705.442 245.462L705.248 245.321L705.228 245.562L705.71 245.669L705.79 245.723H705.797H705.79H705.797H705.79L705.857 245.689H705.79V245.723L705.857 245.689H705.79H705.824L705.79 245.669V245.689H705.824L705.79 245.669L705.991 245.81L705.797 245.656C704.693 247.061 704.211 247.944 704.198 248.6C704.191 248.875 704.318 249.142 704.539 249.283C704.747 249.423 705.008 249.463 705.295 249.47C707.115 249.45 710.769 247.57 712.007 246.74L711.866 246.539L711.625 246.579L711.652 246.713L711.893 246.673L711.739 246.479C710.695 247.309 706.808 249.223 704.807 249.202C704.111 249.189 703.756 249.008 703.642 248.6L703.489 248.426L703.261 248.46C702.358 249.136 701.695 249.383 701.307 249.376C700.865 249.356 700.732 249.149 700.705 248.701C700.705 248.232 700.959 247.59 701.454 247.075C701.949 246.566 702.659 246.185 703.576 246.185C703.897 246.185 704.245 246.231 704.619 246.345L704.894 246.245L704.693 246.111L704.76 245.877C704.345 245.75 703.944 245.696 703.576 245.696C701.454 245.709 700.223 247.463 700.216 248.701C700.216 249.002 700.297 249.296 700.484 249.517C700.671 249.738 700.966 249.865 701.307 249.865C701.883 249.858 702.605 249.557 703.555 248.854L703.408 248.654L703.174 248.721C703.355 249.43 704.044 249.704 704.807 249.691C707.055 249.671 710.863 247.77 712.04 246.867L712.134 246.633L712.107 246.499L711.96 246.312L711.733 246.338C710.595 247.128 706.848 249.002 705.295 248.982L704.807 248.875L704.686 248.6C704.673 248.205 705.088 247.322 706.179 245.964L706.185 245.95L706.272 245.689L705.918 245.228C705.737 245.141 705.516 245.094 705.262 245.074L705.048 245.181L704.492 245.97L704.693 246.111L704.76 245.877L704.693 246.111Z" fill="white"/>
<path d="M743.043 217.966H798.255V216.895H743.043V217.966Z" fill="white"/>
<path d="M748.63 226.933C754.01 227.99 744.883 242.625 737.79 241.487L737.736 241.394C743.886 242.277 750.685 231.938 748.771 228.358C747.426 225.829 742.788 229.382 741.377 230.6C738.974 233.865 729.573 250.273 716.972 250.521L716.932 250.287C727.097 250.782 738.392 235.492 742.594 225.327C742.775 224.986 735.923 232.668 724.668 232.3L724.527 232.085C726.635 232.266 735.97 231.972 742.574 224.812C743.136 224.089 743.538 223.808 743.765 223.527C744.435 222.998 744.93 223.045 744.776 223.56C743.612 225.775 744.428 224.731 741.397 230.319C741.905 229.884 746.081 226.444 748.63 226.933Z" fill="white"/>
<path d="M748.63 226.933L748.577 227.174C749.601 227.388 749.989 228.044 750.009 229.134C750.016 231.082 748.483 234.173 746.275 236.729C744.067 239.292 741.183 241.313 738.593 241.306C738.332 241.306 738.078 241.286 737.83 241.246L737.79 241.487L738.004 241.367L737.951 241.273L737.737 241.393L737.703 241.634C737.964 241.668 738.232 241.688 738.499 241.688C741.223 241.681 743.913 239.767 745.94 237.365C747.968 234.949 749.34 232.039 749.346 229.871C749.346 229.262 749.239 228.713 748.992 228.244C748.617 227.528 747.948 227.221 747.232 227.227C745.131 227.247 742.307 229.496 741.216 230.413L741.183 230.453C738.774 233.758 729.359 250.066 716.966 250.28L716.972 250.521L717.213 250.481L717.173 250.246L716.932 250.287L716.919 250.534L717.414 250.548C722.56 250.534 727.853 246.74 732.397 241.728C736.947 236.709 740.741 230.453 742.815 225.421L742.595 225.327L742.809 225.441L742.842 225.32L742.775 225.153L742.595 225.073L742.447 225.119L742.019 225.501C740.453 226.926 734.444 232.072 725.457 232.072C725.203 232.072 724.942 232.065 724.681 232.059L724.668 232.3L724.875 232.166L724.728 231.952L724.527 232.085L724.507 232.326C724.748 232.346 725.076 232.36 725.471 232.36C728.703 232.36 736.8 231.423 742.755 224.972L742.762 224.959C743.317 224.256 743.692 224.002 743.953 223.681L743.766 223.527L743.92 223.714C744.207 223.48 744.468 223.393 744.555 223.393L744.582 223.4L744.595 223.36L744.562 223.38L744.582 223.4L744.595 223.36L744.562 223.38L744.582 223.366L744.562 223.373V223.38L744.582 223.366L744.562 223.373V223.393L744.542 223.487L744.776 223.56L744.562 223.44C743.378 225.695 744.214 224.611 741.183 230.205L741.243 230.513L741.557 230.506C742.006 230.105 745.713 227.107 748.109 227.127L748.577 227.174L748.63 226.933L748.671 226.692L748.109 226.638C745.378 226.665 741.745 229.717 741.236 230.131L741.397 230.319L741.611 230.433C744.649 224.838 743.839 225.849 744.99 223.674L745.01 223.627L745.05 223.393L744.903 223.038L744.555 222.905C744.268 222.911 743.96 223.065 743.618 223.339L743.578 223.373C743.391 223.614 742.963 223.922 742.38 224.658L742.575 224.812L742.394 224.644C736.592 230.941 728.623 231.871 725.471 231.871C725.083 231.871 724.775 231.858 724.547 231.838L724.32 231.958V232.213L724.467 232.433L724.661 232.547C724.929 232.554 725.196 232.561 725.457 232.561C730.784 232.561 735.08 230.787 738.058 229.027C739.55 228.144 740.708 227.261 741.504 226.598C741.905 226.264 742.213 225.989 742.421 225.802L742.662 225.574L742.722 225.528L742.595 225.34V225.561L742.722 225.528L742.595 225.34V225.561V225.32L742.421 225.481L742.595 225.561V225.32L742.421 225.481L742.595 225.32H742.354L742.421 225.481L742.595 225.32H742.354H742.575L742.38 225.213L742.354 225.32H742.575L742.38 225.213L742.367 225.233C740.313 230.205 736.539 236.435 732.035 241.4C727.538 246.372 722.306 250.066 717.414 250.059L716.946 250.046L716.745 250.126L716.691 250.327L716.732 250.561L716.979 250.768C729.787 250.487 739.175 233.972 741.571 230.747L741.377 230.6L741.537 230.787C742.561 229.884 745.459 227.689 747.232 227.716C747.827 227.722 748.256 227.917 748.557 228.479C748.758 228.847 748.858 229.322 748.858 229.871C748.865 231.831 747.54 234.709 745.566 237.051C743.592 239.399 740.982 241.206 738.499 241.199L737.77 241.146L737.536 241.253L737.522 241.507L737.576 241.601L737.75 241.728C738.031 241.768 738.312 241.795 738.593 241.795C741.437 241.788 744.381 239.66 746.643 237.044C748.905 234.421 750.484 231.309 750.497 229.134C750.517 227.917 749.929 226.92 748.677 226.692L748.63 226.933Z" fill="white"/>
<path d="M749.728 239.239C747.54 242.156 751.053 242.23 752.083 240.035C751.126 239.687 752.01 238.837 752.351 239.573C752.672 238.061 751.715 236.743 749.728 239.239ZM752.378 239.921C755.061 240.209 757.015 239.306 758.36 238.309L758.38 238.443C757.122 239.533 755.021 240.383 752.297 240.069C751.401 241.648 749.982 242.069 749.052 241.507C747.787 240.798 748.497 239.112 749.213 238.295C750.484 236.857 751.909 237.057 752.425 238.034C752.686 238.717 752.679 239.279 752.378 239.921Z" fill="white"/>
<path d="M749.728 239.239L749.534 239.092C749.012 239.788 748.784 240.343 748.778 240.805C748.778 241.126 748.905 241.4 749.119 241.567C749.333 241.741 749.607 241.815 749.895 241.815C750.732 241.808 751.789 241.233 752.304 240.142L752.311 239.941L752.17 239.808C751.896 239.701 751.896 239.614 751.896 239.6L751.983 239.527L752.123 239.674L752.378 239.814L752.585 239.62L752.652 239.011C752.652 238.65 752.585 238.315 752.418 238.054C752.251 237.787 751.963 237.593 751.615 237.599C751.026 237.613 750.364 238.054 749.534 239.092L749.728 239.239L749.922 239.393C750.698 238.396 751.314 238.074 751.615 238.088L752.003 238.309C752.103 238.469 752.17 238.717 752.164 239.011L752.11 239.52L752.351 239.573L752.572 239.473C752.451 239.199 752.217 239.031 751.983 239.038C751.668 239.038 751.414 239.279 751.407 239.6C751.407 239.888 751.635 240.142 752.003 240.263L752.083 240.035L751.863 239.935C751.441 240.845 750.511 241.327 749.895 241.327C749.467 241.3 749.28 241.173 749.266 240.805C749.266 240.517 749.433 240.035 749.922 239.386L749.728 239.239L749.922 239.393L749.728 239.239ZM752.378 239.921L752.351 240.162C752.699 240.202 753.04 240.216 753.375 240.216C755.61 240.216 757.303 239.393 758.507 238.503L758.36 238.309L758.119 238.349L758.146 238.483L758.38 238.442L758.226 238.255C757.189 239.152 755.55 239.888 753.435 239.888C753.074 239.888 752.706 239.868 752.331 239.828L752.09 239.948C751.468 241.032 750.625 241.501 749.922 241.501C749.654 241.501 749.4 241.427 749.179 241.3L749.173 241.293C748.744 241.046 748.604 240.718 748.597 240.303C748.59 239.68 748.992 238.904 749.4 238.456C750.009 237.767 750.625 237.499 751.126 237.499C751.608 237.506 751.99 237.74 752.21 238.148L752.425 238.034L752.197 238.121C752.311 238.429 752.364 238.69 752.364 238.944C752.364 239.225 752.297 239.5 752.157 239.814L752.164 240.042L752.351 240.162L752.378 239.921L752.599 240.022C752.766 239.66 752.853 239.306 752.853 238.944C752.853 238.616 752.786 238.295 752.652 237.954L752.639 237.921C752.344 237.358 751.776 237.01 751.126 237.01C750.451 237.01 749.708 237.365 749.032 238.128C748.57 238.663 748.115 239.486 748.109 240.303C748.102 240.845 748.349 241.4 748.932 241.721L749.052 241.507L748.925 241.715C749.226 241.895 749.567 241.989 749.922 241.989C750.845 241.989 751.836 241.387 752.512 240.189L752.297 240.069L752.271 240.309C752.672 240.356 753.06 240.376 753.435 240.376C755.663 240.376 757.417 239.6 758.547 238.63L758.628 238.402L758.601 238.269L758.454 238.081L758.213 238.115C757.069 238.958 755.489 239.727 753.375 239.727C753.06 239.727 752.732 239.714 752.398 239.674L752.378 239.921L752.599 240.022L752.378 239.921Z" fill="white"/>
<path d="M761.672 236.234C762.596 234.026 760.448 235.585 758.942 237.854C755.958 242.364 766.664 236.877 767.334 236.73C767.862 236.596 767.809 236.676 767.461 236.87C766.524 237.251 761.806 239.399 759.464 239.841C755.101 240.651 759.565 233.524 761.933 234.976C762.241 235.164 762.248 235.579 761.88 236.268L761.672 236.234Z" fill="white"/>
<path d="M761.672 236.234L761.893 236.328C762.054 235.94 762.134 235.666 762.134 235.431L762.034 235.077L761.693 234.923C761.278 234.95 760.869 235.277 760.341 235.773C759.819 236.274 759.243 236.957 758.735 237.72C758.36 238.289 758.179 238.717 758.173 239.085C758.166 239.346 758.3 239.587 758.501 239.714C758.708 239.841 758.949 239.875 759.223 239.875C760.368 239.868 762.261 239.159 763.981 238.449C764.838 238.088 765.641 237.727 766.263 237.446C766.872 237.178 767.334 236.97 767.387 236.964H767.394L767.675 236.904V236.756L767.621 236.897L767.675 236.904V236.756L767.621 236.897L767.708 236.683H767.481L767.621 236.897L767.708 236.683H767.481H767.675L767.534 236.542L767.481 236.683H767.675L767.534 236.542L767.487 236.576L767.34 236.663L767.461 236.87L767.367 236.649C766.424 237.031 761.706 239.172 759.417 239.6L758.835 239.66C758.44 239.66 758.213 239.567 758.079 239.433C757.945 239.299 757.872 239.105 757.872 238.837C757.865 238.195 758.333 237.191 759.009 236.402C759.678 235.599 760.555 235.01 761.224 235.023L761.806 235.184L761.913 235.411C761.92 235.558 761.846 235.819 761.666 236.154L761.88 236.268L761.92 236.027L761.706 235.993L761.672 236.234L761.893 236.328L761.672 236.234L761.632 236.475L761.846 236.509L762.101 236.382C762.295 236.007 762.402 235.699 762.402 235.411C762.409 235.15 762.281 234.896 762.061 234.769C761.8 234.608 761.512 234.535 761.224 234.535C760.294 234.548 759.364 235.237 758.634 236.087C757.912 236.95 757.39 237.988 757.376 238.837C757.376 239.192 757.484 239.533 757.738 239.781C757.992 240.028 758.36 240.149 758.835 240.149L759.511 240.082C761.913 239.627 766.624 237.472 767.554 237.098L767.581 237.084L767.795 236.95L767.882 236.883L767.969 236.683L767.802 236.442L767.675 236.415L767.273 236.489L767.334 236.73L767.28 236.489C767.093 236.535 766.691 236.723 766.062 237.004C764.222 237.84 760.682 239.399 759.223 239.386L758.762 239.299L758.661 239.085C758.655 238.898 758.788 238.523 759.143 237.988C759.632 237.258 760.187 236.596 760.675 236.127C761.151 235.652 761.619 235.391 761.693 235.411V235.384L761.686 235.411H761.693V235.384L761.686 235.411L761.713 235.344L761.646 235.378L761.686 235.411L761.713 235.344L761.646 235.378L761.652 235.431C761.652 235.538 761.592 235.786 761.445 236.141L761.452 236.355L761.632 236.475L761.672 236.234Z" fill="white"/>
<path d="M770.874 234.615C771.804 232.407 769.656 233.959 768.15 236.234C765.166 240.744 775.872 235.257 776.541 235.103C777.07 234.976 777.016 235.056 776.668 235.25C775.732 235.625 771.014 237.773 768.672 238.222C764.309 239.025 768.772 231.905 771.134 233.35C771.449 233.544 771.449 233.952 771.088 234.648L770.874 234.615Z" fill="white"/>
<path d="M770.873 234.615L771.101 234.708C771.261 234.32 771.342 234.039 771.342 233.805L771.235 233.457L770.9 233.303C770.485 233.33 770.077 233.658 769.542 234.153C769.026 234.648 768.451 235.337 767.942 236.1C767.568 236.669 767.387 237.091 767.38 237.465C767.374 237.72 767.501 237.967 767.708 238.088C767.909 238.215 768.157 238.255 768.431 238.255C769.568 238.248 771.469 237.539 773.189 236.823C774.045 236.462 774.848 236.107 775.47 235.826C776.073 235.552 776.541 235.344 776.588 235.344H776.595L776.882 235.284V235.137L776.829 235.271L776.882 235.284V235.137L776.829 235.271L776.916 235.056H776.688L776.829 235.271L776.916 235.056H776.688H776.882L776.742 234.923L776.688 235.056H776.882L776.742 234.923L776.548 235.043L776.668 235.251L776.575 235.023C775.631 235.404 770.913 237.546 768.625 237.981L768.043 238.041C767.648 238.041 767.414 237.941 767.28 237.813C767.146 237.68 767.079 237.486 767.079 237.218C767.066 236.569 767.541 235.572 768.217 234.782C768.886 233.979 769.762 233.39 770.432 233.397L771.014 233.558L771.121 233.785C771.121 233.939 771.054 234.193 770.873 234.528L771.087 234.648L771.128 234.401L770.913 234.367L770.873 234.615L771.101 234.708L770.873 234.615L770.84 234.849L771.054 234.882L771.302 234.755C771.502 234.381 771.609 234.073 771.609 233.785C771.616 233.524 771.489 233.27 771.268 233.143C771.007 232.982 770.719 232.908 770.432 232.908C769.502 232.922 768.571 233.611 767.842 234.461C767.119 235.331 766.597 236.361 766.584 237.218C766.584 237.572 766.684 237.914 766.939 238.161C767.2 238.409 767.568 238.529 768.043 238.529L768.712 238.462C771.121 238.001 775.825 235.846 776.762 235.478L776.789 235.465L777.003 235.331L777.09 235.257L777.177 235.056L777.01 234.822L776.882 234.795L776.481 234.869L776.541 235.103L776.488 234.862C776.3 234.909 775.892 235.103 775.27 235.378C773.43 236.214 769.883 237.78 768.431 237.767L767.969 237.673L767.869 237.465C767.862 237.278 767.996 236.897 768.351 236.368C768.839 235.632 769.394 234.969 769.883 234.501C770.358 234.026 770.826 233.765 770.9 233.792V233.765L770.887 233.785L770.9 233.792V233.765L770.887 233.785L770.92 233.718L770.847 233.752L770.887 233.785L770.92 233.718L770.847 233.752L770.853 233.805C770.86 233.912 770.8 234.16 770.652 234.514L770.659 234.729L770.84 234.849L770.873 234.615Z" fill="white"/>
<path d="M779.559 234.742C779.673 234.414 778.354 236.582 777.217 236.576C774.721 236.596 776.942 233.477 777.712 232.54C777.799 232.427 778.676 232.681 778.482 232.962C775.771 236.04 776.802 238.175 779.485 234.515C779.98 233.805 780.442 233.062 780.723 232.735C781.018 232.413 781.754 232.862 781.499 233.19C781.004 233.906 780.429 234.588 780.449 235.277C780.516 238.001 786.732 233.41 787.094 233.277L787.107 233.377C781.185 237.68 779.044 236.529 779.559 234.742Z" fill="white"/>
<path d="M779.559 234.742L779.786 234.823L779.807 234.715L779.773 234.582L779.559 234.461L779.398 234.521L779.084 234.896C778.669 235.438 777.792 236.362 777.217 236.335H777.21L777.217 236.576L777.21 236.335H777.183C776.809 236.335 776.588 236.248 776.474 236.154L776.307 235.719C776.287 234.883 777.404 233.283 777.906 232.695L777.913 232.681L777.772 232.581L777.819 232.755L777.913 232.681L777.772 232.581L777.819 232.755V232.748V232.755V232.748V232.755L778.14 232.842L778.267 232.922L778.274 232.929L778.361 232.882H778.267L778.274 232.929L778.361 232.882H778.267H778.361L778.281 232.822L778.267 232.882H778.361L778.281 232.822L778.482 232.962L778.301 232.802C777.17 234.086 776.655 235.204 776.641 235.933L776.795 236.455L777.277 236.683C777.899 236.656 778.642 236.04 779.679 234.655C780.181 233.939 780.65 233.19 780.911 232.895L780.723 232.735L780.911 232.895L780.998 232.869L781.225 232.949L781.299 233.023L781.305 233.043H781.319L781.305 233.036V233.043H781.319L781.305 233.036L781.299 233.049C780.824 233.745 780.215 234.428 780.201 235.244V235.284L780.449 235.278L780.201 235.284C780.215 235.632 780.315 235.927 780.529 236.121C780.737 236.315 781.018 236.382 781.312 236.382C782.296 236.375 783.661 235.666 784.872 234.956C785.474 234.602 786.03 234.247 786.451 233.973L786.967 233.631L787.127 233.538L787.167 233.511L787.174 233.504L787.094 233.277L786.853 233.324L786.866 233.417L787.107 233.377L786.967 233.176C783.969 235.358 781.955 236.107 780.85 236.101C779.994 236.074 779.746 235.746 779.726 235.231L779.793 234.809L779.559 234.742L779.786 234.823L779.559 234.742L779.325 234.675L779.238 235.231C779.238 235.605 779.372 235.967 779.659 236.208C779.94 236.462 780.342 236.589 780.85 236.589C782.155 236.582 784.216 235.773 787.254 233.571L787.348 233.33L787.335 233.237L787.214 233.063L787.007 233.049C786.859 233.11 786.619 233.283 786.184 233.565C784.946 234.381 782.456 235.92 781.312 235.893L780.857 235.766C780.77 235.679 780.703 235.545 780.697 235.271V235.244C780.676 234.702 781.198 234.04 781.7 233.33L781.5 233.19L781.694 233.337L781.794 233.043L781.52 232.561L780.998 232.373L780.543 232.574C780.228 232.936 779.78 233.665 779.285 234.374L779.485 234.515L779.285 234.368C778.314 235.726 777.518 236.228 777.277 236.194C777.183 236.181 777.163 236.201 777.13 235.933C777.123 235.431 777.572 234.347 778.662 233.123L778.682 233.103L778.756 232.882C778.722 232.574 778.508 232.487 778.348 232.4L777.819 232.266L777.518 232.4L777.712 232.541L777.525 232.387C777.009 233.036 775.838 234.568 775.818 235.719C775.818 236.014 775.912 236.315 776.16 236.522C776.4 236.73 776.742 236.823 777.183 236.823H777.217C777.893 236.803 778.475 236.288 778.937 235.813L779.505 235.15L779.673 234.943L779.713 234.896L779.659 234.843L779.706 234.903L779.713 234.896L779.659 234.843L779.706 234.903L779.559 234.729V234.956L779.706 234.903L779.559 234.729V234.956V234.715L779.358 234.843L779.559 234.956V234.715L779.358 234.843L779.559 234.715H779.318L779.358 234.843L779.559 234.715H779.318H779.472L779.325 234.662L779.318 234.715H779.472L779.325 234.662V234.675L779.559 234.742Z" fill="white"/>
<path d="M789.871 232.922C789.985 232.594 788.673 234.769 787.529 234.762C785.04 234.782 787.255 231.65 788.031 230.72C788.111 230.6 788.988 230.861 788.794 231.142C786.084 234.213 787.121 236.355 789.797 232.694C790.293 231.985 790.754 231.249 791.042 230.921C791.33 230.587 792.073 231.042 791.812 231.369C791.316 232.085 790.748 232.768 790.761 233.457C790.828 236.187 797.051 231.59 797.406 231.456L797.426 231.557C791.497 235.859 789.356 234.715 789.871 232.922Z" fill="white"/>
<path d="M789.871 232.922L790.105 233.002L790.119 232.895L790.085 232.761L789.878 232.648L789.71 232.701L789.396 233.076C788.988 233.618 788.104 234.548 787.536 234.515H787.516L787.529 234.762L787.522 234.515H787.502C787.121 234.515 786.9 234.428 786.793 234.334L786.626 233.899C786.599 233.069 787.716 231.463 788.218 230.881L788.232 230.861L788.084 230.761L788.131 230.935L788.232 230.861L788.084 230.761L788.131 230.935L788.459 231.022L788.579 231.102L788.593 231.109L788.673 231.055H788.579L788.593 231.109L788.673 231.055H788.579H788.68L788.593 231.001L788.579 231.055H788.68L788.593 231.001L788.794 231.142L788.613 230.981C787.482 232.273 786.967 233.384 786.96 234.106L787.107 234.635L787.589 234.869C788.211 234.836 788.961 234.22 789.998 232.842V232.835C790.5 232.119 790.962 231.376 791.223 231.075L791.31 231.048L791.544 231.129L791.611 231.202L791.624 231.222H791.631L791.624 231.216V231.222H791.631L791.624 231.216L791.611 231.229C791.142 231.925 790.533 232.607 790.52 233.424V233.464L790.761 233.457L790.52 233.464C790.527 233.812 790.627 234.106 790.841 234.3C791.055 234.494 791.336 234.568 791.631 234.568C792.608 234.555 793.973 233.845 795.184 233.143C795.793 232.788 796.342 232.427 796.763 232.152L797.285 231.818L797.439 231.711L797.486 231.691L797.499 231.684L797.473 231.63L797.493 231.684H797.499L797.473 231.63L797.493 231.684L797.406 231.456L797.165 231.497L797.185 231.597L797.426 231.557L797.279 231.356C794.287 233.538 792.273 234.287 791.169 234.28C790.306 234.254 790.065 233.926 790.038 233.41L790.105 232.989L789.871 232.922L790.105 233.002L789.871 232.922L789.637 232.855L789.556 233.41C789.55 233.785 789.684 234.147 789.971 234.394C790.252 234.642 790.661 234.769 791.169 234.769C792.474 234.762 794.528 233.952 797.566 231.758L797.667 231.517L797.647 231.416L797.526 231.242L797.319 231.229C797.172 231.296 796.931 231.463 796.496 231.744C795.258 232.567 792.775 234.1 791.631 234.08L791.176 233.946C791.082 233.859 791.015 233.725 791.008 233.451V233.424C790.995 232.888 791.51 232.219 792.019 231.503L791.812 231.369L792.006 231.517L792.113 231.222L791.832 230.74L791.31 230.56L790.861 230.754C790.54 231.122 790.092 231.851 789.597 232.554L789.797 232.694L789.603 232.554C788.626 233.906 787.83 234.407 787.589 234.374C787.489 234.361 787.475 234.381 787.449 234.106C787.442 233.611 787.89 232.527 788.981 231.303L789.001 231.276L789.068 231.055C789.035 230.747 788.827 230.667 788.66 230.58L788.131 230.446L787.83 230.587L788.031 230.72L787.843 230.567C787.321 231.216 786.157 232.748 786.137 233.899C786.13 234.193 786.231 234.494 786.472 234.702C786.713 234.909 787.054 235.003 787.502 235.003H787.542L787.536 234.829V235.003H787.542L787.536 234.829V235.003C788.211 234.99 788.787 234.468 789.255 233.993L789.817 233.33L789.985 233.123L790.025 233.076L789.971 233.022L790.018 233.083L790.025 233.076L789.971 233.022L790.018 233.083L789.878 232.909V233.136L790.018 233.083L789.878 232.909V233.136V232.888L789.67 233.022L789.878 233.136V232.888L789.67 233.022L789.871 232.895H789.637L789.67 233.022L789.871 232.895H789.637H789.791L789.643 232.842L789.637 232.895H789.791L789.643 232.842L789.637 232.855L789.871 232.922Z" fill="white"/>
<path d="M799.306 230.814C799.728 228.311 807.343 217.685 808.962 215.838L807.617 215.698C806.259 216.628 799.467 228.391 799.092 230.814H799.306ZM799.36 232.701C799.126 233.163 797.118 233.551 798.53 232.299C799.299 231.784 799.554 232.052 799.36 232.701Z" fill="white"/>
<path d="M799.306 230.814L799.547 230.854C799.721 229.723 801.735 226.398 803.883 223.219C806.038 220.027 808.353 216.902 809.143 215.999L809.19 215.751L808.982 215.597L807.644 215.457L807.477 215.497C807.055 215.798 806.413 216.695 805.563 217.98C804.305 219.893 802.705 222.617 801.38 225.099C800.056 227.582 799.012 229.784 798.851 230.774L798.911 230.968L799.092 231.055H799.306L799.547 230.854L799.306 230.814V230.566H799.092V230.814L799.34 230.847C799.493 229.743 801.294 226.157 803.201 222.818C804.151 221.145 805.141 219.512 805.971 218.247C806.787 216.989 807.497 216.066 807.758 215.898L807.617 215.698L807.59 215.939L808.935 216.086L808.962 215.838L808.775 215.678C807.952 216.621 805.65 219.733 803.482 222.945C801.32 226.163 799.306 229.402 799.065 230.774L799.306 230.814V230.566V230.814ZM799.36 232.701L799.139 232.594L798.844 232.788L798.336 232.902L798.229 232.888L798.189 232.962H798.276L798.229 232.888L798.189 232.962H798.276L798.282 232.942C798.302 232.875 798.43 232.708 798.691 232.48L798.53 232.3L798.664 232.5C798.918 232.326 799.112 232.266 799.166 232.273H799.186L799.192 232.246L799.166 232.259L799.186 232.273L799.192 232.246L799.166 232.259L799.179 232.34L799.125 232.634L799.36 232.701L799.139 232.594L799.36 232.701L799.594 232.775L799.667 232.34L799.554 231.958L799.166 231.784C798.931 231.784 798.697 231.898 798.389 232.092L798.363 232.112C797.995 232.46 797.807 232.668 797.787 232.962L798.001 233.317L798.336 233.39C798.784 233.357 799.333 233.21 799.574 232.815L799.594 232.775L799.36 232.701Z" fill="white"/>
<path opacity="0.45" d="M726 100.653V98L1457 184.926V237L726 100.653Z" fill="url(#paint2_linear)"/>
<path opacity="0.55" d="M707 100.653V98L-24 184.926V237L707 100.653Z" fill="url(#paint3_linear)"/>
<defs>
<linearGradient id="paint0_linear" x1="733" y1="91" x2="1381" y2="8.99997" gradientUnits="userSpaceOnUse">
<stop offset="0.100111" stop-color="white"/>
<stop offset="1" stop-color="white" stop-opacity="0"/>
</linearGradient>
<linearGradient id="paint1_linear" x1="699" y1="91" x2="51" y2="8.99997" gradientUnits="userSpaceOnUse">
<stop offset="0.28125" stop-color="white"/>
<stop offset="1" stop-color="white" stop-opacity="0"/>
</linearGradient>
<linearGradient id="paint2_linear" x1="739" y1="105" x2="1457" y2="196" gradientUnits="userSpaceOnUse">
<stop offset="0.177083" stop-color="white"/>
<stop offset="1" stop-color="white" stop-opacity="0"/>
</linearGradient>
<linearGradient id="paint3_linear" x1="694" y1="84" x2="-73" y2="189" gradientUnits="userSpaceOnUse">
<stop offset="0.151042" stop-color="white"/>
<stop offset="0.958333" stop-color="white" stop-opacity="0"/>
</linearGradient>
</defs>
</svg>
