<svg width="32" height="26" viewBox="0 0 32 26" fill="none" xmlns="http://www.w3.org/2000/svg">
<path d="M31.9278 1.62266L31.9242 1.59922C31.9158 1.54692 31.903 1.49543 31.8858 1.44531C31.8834 1.43828 31.8808 1.43125 31.8781 1.42422C31.8595 1.37372 31.8365 1.32495 31.8094 1.27844L31.7975 1.25922C31.7682 1.2117 31.7347 1.16689 31.6975 1.12531C31.6952 1.1225 31.6936 1.11922 31.6911 1.11656C31.6888 1.11406 31.6859 1.11234 31.6836 1.10984C31.6453 1.06902 31.6034 1.03169 31.5584 0.998281C31.5527 0.994062 31.5472 0.989531 31.5413 0.985469C31.4967 0.953979 31.4495 0.926427 31.4002 0.903125C31.3942 0.900313 31.3886 0.897344 31.3828 0.894844C31.3332 0.872728 31.2818 0.855003 31.2291 0.841875L31.2111 0.837188C31.1594 0.82543 31.1067 0.818112 31.0537 0.815313C31.0455 0.814688 31.0375 0.814219 31.0292 0.813906C31.0194 0.813594 31.0098 0.8125 31 0.8125H1C0.990156 0.8125 0.980625 0.81375 0.970937 0.814062C0.9625 0.814218 0.954375 0.814688 0.945937 0.815313C0.893172 0.818146 0.840743 0.825464 0.789219 0.837188L0.770469 0.841875C0.717987 0.854988 0.666751 0.872659 0.617344 0.894688C0.611406 0.897344 0.605625 0.900469 0.599531 0.903281C0.550355 0.926474 0.503301 0.953922 0.458906 0.985312L0.441406 0.998281C0.396521 1.0317 0.35469 1.06903 0.316406 1.10984C0.314063 1.11234 0.31125 1.11406 0.308906 1.11656C0.306406 1.11922 0.304844 1.1225 0.302344 1.12531C0.265103 1.16689 0.231638 1.2117 0.202344 1.25922L0.190625 1.27844C0.163522 1.325 0.140519 1.37383 0.121875 1.42438L0.114062 1.44531C0.0969502 1.49538 0.0841431 1.54682 0.0757811 1.59906L0.0721875 1.62266C0.0660962 1.66484 0.0628596 1.70738 0.0625 1.75V23C0.0631617 23.58 0.293842 24.136 0.703935 24.5461C1.11403 24.9562 1.67004 25.1868 2.25 25.1875H29.75C30.33 25.1868 30.886 24.9562 31.2961 24.5461C31.7062 24.136 31.9368 23.58 31.9375 23V1.75C31.9371 1.70738 31.9339 1.66484 31.9278 1.62266ZM28.5898 2.6875L16 14.2281L3.41016 2.6875H28.5898ZM29.75 23.3125H2.25C2.16715 23.3124 2.08771 23.2795 2.02912 23.2209C1.97053 23.1623 1.93758 23.0829 1.9375 23V3.88125L15.3664 16.1911C15.5393 16.3496 15.7654 16.4376 16 16.4376C16.2346 16.4376 16.4607 16.3496 16.6336 16.1911L30.0625 3.88125V23C30.0624 23.0829 30.0295 23.1623 29.9709 23.2209C29.9123 23.2795 29.8329 23.3124 29.75 23.3125Z" fill="#B48154"/>
</svg>
