<svg width="31" height="31" viewBox="0 0 31 31" fill="none" xmlns="http://www.w3.org/2000/svg">
<path d="M22.5 30.6876C10.2658 30.6876 0.3125 20.7343 0.3125 8.50011C0.31459 6.44767 1.06377 4.46618 2.4201 2.92576C3.77643 1.38535 5.64715 0.391364 7.68281 0.129481C8.15276 0.072912 8.6284 0.169996 9.03859 0.406213C9.44878 0.642431 9.77149 1.00509 9.95844 1.43995L13.0977 8.76464C13.2402 9.09614 13.2983 9.4578 13.2669 9.81726C13.2354 10.1767 13.1153 10.5228 12.9173 10.8245L10.318 14.7962C10.2886 14.8389 10.2707 14.8885 10.2662 14.9402C10.2616 14.9919 10.2704 15.0438 10.2919 15.091C11.498 17.5516 13.4931 19.5376 15.9591 20.7326C16.0066 20.7538 16.0588 20.7624 16.1105 20.7574C16.1623 20.7524 16.2119 20.7341 16.2545 20.7042L20.1662 18.0957C20.4688 17.8932 20.8172 17.7697 21.1797 17.7364C21.5423 17.7031 21.9074 17.7611 22.2417 17.9051L29.56 21.0417C29.9949 21.2285 30.3576 21.5512 30.5938 21.9614C30.8301 22.3715 30.9272 22.8472 30.8706 23.3171C30.6088 25.3528 29.6148 27.2236 28.0744 28.5799C26.534 29.9363 24.5525 30.6855 22.5 30.6876ZM7.95344 1.98761C7.94158 1.98758 7.92973 1.98831 7.91797 1.98979C6.33495 2.19365 4.88028 2.96683 3.82572 4.16491C2.77115 5.36299 2.18882 6.90402 2.1875 8.50011C2.19358 13.8855 4.33559 19.0485 8.14361 22.8565C11.9516 26.6645 17.1147 28.8065 22.5 28.8126C24.0961 28.8113 25.6371 28.229 26.8352 27.1744C28.0333 26.1198 28.8065 24.6652 29.0103 23.0821C29.0173 23.0159 29.0026 22.9493 28.9685 22.8921C28.9344 22.8349 28.8828 22.7903 28.8212 22.7649L21.5031 19.6285C21.4553 19.6081 21.4032 19.5998 21.3514 19.6046C21.2996 19.6093 21.2498 19.6269 21.2066 19.6557L17.2948 22.2643C16.9806 22.4745 16.6172 22.5995 16.2401 22.627C15.863 22.6545 15.4853 22.5836 15.1439 22.4212C12.2995 21.0428 9.99832 18.752 8.60703 15.9139C8.44392 15.5745 8.37131 15.1987 8.39622 14.823C8.42113 14.4473 8.54273 14.0844 8.74922 13.7695L11.3484 9.79761C11.3768 9.75447 11.3939 9.70499 11.3984 9.65359C11.4029 9.60219 11.3946 9.55047 11.3742 9.50308L8.23516 2.1787C8.21185 2.1229 8.1728 2.0751 8.12277 2.04114C8.07274 2.00717 8.0139 1.98852 7.95344 1.98745V1.98761Z" fill="#1A427C"/>
</svg>
