<svg width="90%" height="100%" fill="none" xmlns="http://www.w3.org/2000/svg">
<path d="M705.775 218.678V219.683L430.034 186.746V167.014L705.775 218.678Z" fill="white"/>
<path d="M718.369 214.829V219.009L1870.14 82.0482V0L718.369 214.829Z" fill="url(#paint0_linear)"/>
<path d="M705.764 214.829V219.009L-446.003 82.0482V0L705.764 214.829Z" fill="url(#paint1_linear)"/>
<path d="M958.503 317.318V316.319C958.503 316.656 958.483 316.961 958.468 317.298L958.503 317.318Z" fill="white"/>
<path d="M720.179 378.477L726.834 385.106H697.775L704.438 378.477V378.56H689.49C672.606 378.56 658.754 364.723 658.754 347.859V271.192C658.754 254.322 672.606 240.477 689.49 240.477H704.438V204.301L697.775 197.658H726.834L720.179 204.301V240.477H735.141C752.02 240.477 765.857 254.322 765.857 271.192V347.859C765.857 364.723 752.02 378.56 735.141 378.56H720.179V378.477ZM674.542 347.859C674.542 357.543 681.199 365.569 689.49 365.569H704.438V253.488H689.49C681.199 253.488 674.542 261.522 674.542 271.192V347.859ZM750.084 271.192C750.084 261.522 743.426 253.488 735.141 253.488H720.179V365.569H735.141C743.426 365.569 750.084 357.543 750.084 347.859V271.192Z" fill="white"/>
<path d="M547.185 379.902L544.19 376.904L541.065 343.658L539.914 331.323L535.545 284.989H510.461L513.477 287.988L509.016 335.384L507.562 350.558L505.072 376.904L502.059 379.902H519.737L516.736 376.904L518.501 356.824H530.15L532.023 376.904L529.025 379.902H547.185ZM524.147 295.867H524.635L527.974 332.883L529.153 345.914H519.497L520.608 333.862L524.147 295.867Z" fill="white"/>
<path d="M815.527 329.644V322.227V287.988L818.534 284.989H781.056L784.049 287.988L782.49 317.898L782.224 322.813L780.042 364.486C779.791 368.599 778.043 369.633 776.17 369.633C774.89 369.633 773.414 369.493 772.791 369.233V379.637C773.911 380.139 776.401 380.519 779.177 380.519C785.811 380.519 790.712 375.77 791.446 364.486L793.759 325.163L794.096 319.431L795.467 295.867H803.375V320.634V327.157V376.904L800.368 379.902H818.534L815.527 376.904V329.644Z" fill="white"/>
<path d="M847.549 284C835.517 284 828 292.788 828 303.549V323.463V331.774V360.604C828 371.4 835.517 380.167 847.549 380.167C859.604 380.167 867.12 371.4 867.12 360.604V339.822V328.601V303.549C867.12 292.788 859.604 284 847.549 284ZM854.968 337.32V360.604C854.968 364.757 852.941 369.28 847.549 369.28C842.174 369.28 840.129 364.757 840.129 360.604V334.27V325.062V303.549C840.129 299.431 842.174 294.892 847.549 294.892C852.941 294.892 854.968 299.431 854.968 303.549V327.007V337.32Z" fill="white"/>
<path d="M874.461 284.989V298.909L877.483 295.867H886.271V331.52V344.201V376.904L883.258 379.902H901.436L898.437 376.904V346.72V333.114V295.867H907.196L910.203 298.909V284.989H874.461Z" fill="white"/>
<path d="M949.966 318.2H942.569V287.988L945.576 284.989H919.867V298.909L922.886 295.867H930.408V337.329V353.265V376.904L927.395 379.902H949.966C960.413 379.902 968.943 371.652 969.494 361.333C969.494 360.991 969.514 360.691 969.514 360.345V342.447V337.763C969.514 326.982 960.732 318.2 949.966 318.2ZM957.377 358.829V360.345C957.377 364.486 955.349 368.981 949.966 368.981H942.569V355.787V338.909V329.113H949.966C955.349 329.113 957.377 333.659 957.377 337.763V340.845V358.829Z" fill="white"/>
<path d="M494.068 337.349C492.695 327.891 484.558 320.582 474.739 320.582H467.328V295.867H487.891L490.904 298.909V284.989H452.158L455.165 287.988V376.904L452.158 379.902H474.739C485.509 379.902 494.3 371.129 494.3 360.345V353.277V340.16C494.3 339.203 494.2 338.272 494.068 337.349ZM482.133 360.345C482.133 364.486 480.123 368.981 474.739 368.981H467.328V358.829V340.845V331.506H474.739C479.597 331.506 481.682 335.162 482.062 338.917C482.096 339.314 482.133 339.734 482.133 340.16V355.801V360.345Z" fill="white"/>
<path d="M598.994 331.757V323.575V287.988L601.999 284.989H564.5L567.513 287.988L565.42 327.968L564.855 338.763L563.504 364.486C563.252 368.599 561.493 369.633 559.62 369.633C558.357 369.633 556.875 369.493 556.218 369.233V379.637C557.358 380.139 559.868 380.519 562.63 380.519C569.276 380.519 574.173 375.77 574.907 364.486L576.564 336.358L577.144 326.428L578.934 295.867H586.819V325.157V334.239V376.904L583.826 379.902H601.999L598.994 376.904V331.757Z" fill="white"/>
<path d="M611.032 284.989V298.909L614.028 295.867H622.816V320.457V326.862V376.904L619.803 379.902H637.975L634.968 376.904V324.361V318.843V295.867H643.764L646.771 298.909V284.989H611.032Z" fill="white"/>
<path d="M739.589 387.51C739.637 387.148 739.68 386.811 739.657 386.454L738.526 359.36C738.469 357.558 737.45 356.004 735.965 355.173L731.952 257.678L734.028 253.414C734.819 251.875 734.751 250.035 733.791 248.482C733.323 247.728 732.652 247.134 731.904 246.742V244.946V241.576V238.332V234.948V231.555V231.515H727.003V228.339H729.533V218.306H721.639L712.215 211.889L702.833 218.306H694.94V228.339H697.49V231.515H692.555V231.555V234.948V238.332V241.576V244.946V246.742C691.784 247.148 691.107 247.756 690.659 248.505C689.722 250.001 689.633 251.875 690.416 253.4L692.526 257.655L688.505 355.173C687.037 356.004 686.009 357.558 685.941 359.354L684.807 386.399C684.801 386.776 684.807 387.139 684.898 387.51H739.589Z" fill="white"/>
<path d="M734.385 359.514C734.351 359.06 733.965 358.703 733.54 358.703H731.952L727.751 256.77L730.33 251.538C730.455 251.295 730.435 250.978 730.281 250.721C730.116 250.475 729.847 250.321 729.567 250.321H727.751V242.485H722.836V224.172H725.249L712.215 216.936L699.209 224.172H701.642V242.485H701.628H696.721V250.321H694.888C694.597 250.321 694.337 250.475 694.197 250.721C694.028 250.978 694.017 251.295 694.148 251.538L696.727 256.77L692.526 358.703H690.938C690.493 358.703 690.113 359.06 690.113 359.514L688.959 386.642C688.959 386.854 689.05 387.071 689.205 387.236C689.359 387.419 689.596 387.511 689.799 387.511H734.651C734.862 387.511 735.105 387.419 735.282 387.236C735.399 387.071 735.496 386.854 735.485 386.642L734.385 359.514ZM714.082 242.485H710.37V237.647C710.37 236.624 711.207 235.787 712.215 235.787C713.263 235.787 714.082 236.624 714.082 237.647V242.485ZM713.089 250.321V244.17H715.782H721.122V250.321H713.089ZM708.685 244.17H711.384V250.321H703.327V244.17H708.685ZM726.052 250.321H722.836V244.17H726.052V250.321ZM703.327 224.172H721.122V242.485H715.782V237.647C715.782 235.682 714.2 234.088 712.215 234.088C710.284 234.088 708.685 235.682 708.685 237.652V242.485H703.327V224.172ZM698.412 244.17H701.628V250.321H698.412V244.17ZM697.498 279.109H726.968L728.022 304.509H696.447L697.498 279.109ZM694.24 358.703L695.273 333.308H729.185L730.233 358.703H694.24Z" fill="white"/>
<path d="M708.685 244.169H711.384V250.321H703.327V244.169H708.685Z" fill="#B48154"/>
<path d="M723.488 361.919C723.431 361.919 701.049 361.919 700.966 361.919C697.302 361.919 693.241 362.261 693.241 362.261C693.241 362.261 697.302 362.633 700.966 362.633H723.488C727.198 362.633 731.242 362.261 731.242 362.261C731.242 362.261 727.198 361.919 723.488 361.919Z" fill="#B48154"/>
<path d="M726.394 302.664C726.394 302.664 725.723 302.138 723.961 302.138C722.184 302.138 718.326 302.664 718.326 302.664C718.326 302.664 722.184 303.201 723.961 303.201C725.723 303.201 726.394 302.664 726.394 302.664Z" fill="#B48154"/>
<path d="M726.326 300.265C726.326 300.265 725.66 299.726 723.932 299.726C722.165 299.726 718.326 300.265 718.326 300.265C718.326 300.265 722.165 300.777 723.932 300.777C725.66 300.777 726.326 300.265 726.326 300.265Z" fill="#B48154"/>
<path d="M726.274 297.846C726.274 297.846 725.617 297.329 723.864 297.329C722.142 297.329 718.326 297.846 718.326 297.846C718.326 297.846 722.142 298.372 723.864 298.372C725.617 298.372 726.274 297.846 726.274 297.846Z" fill="#B48154"/>
<path d="M726.206 295.433C726.206 295.433 725.563 294.896 723.821 294.896C722.102 294.896 718.326 295.433 718.326 295.433C718.326 295.433 722.102 295.978 723.821 295.978C725.563 295.978 726.206 295.433 726.206 295.433Z" fill="#B48154"/>
<path d="M726.149 293.022C726.149 293.022 725.535 292.491 723.778 292.491C722.079 292.491 718.326 293.022 718.326 293.022C718.326 293.022 722.079 293.553 723.778 293.553C725.535 293.553 726.149 293.022 726.149 293.022Z" fill="#B48154"/>
<path d="M726.109 290.629C726.109 290.629 725.463 290.078 723.758 290.078C722.059 290.078 718.326 290.629 718.326 290.629C718.326 290.629 722.059 291.135 723.758 291.135C725.463 291.135 726.109 290.629 726.109 290.629Z" fill="#B48154"/>
<path d="M726.031 288.21C726.031 288.21 725.395 287.673 723.724 287.673C722.03 287.673 718.326 288.21 718.326 288.21C718.326 288.21 722.03 288.735 723.724 288.735C725.395 288.735 726.031 288.21 726.031 288.21Z" fill="#B48154"/>
<path d="M725.983 285.8C725.983 285.8 725.346 285.26 723.681 285.26C721.99 285.26 718.326 285.8 718.326 285.8C718.326 285.8 721.99 286.331 723.681 286.331C725.346 286.331 725.983 285.8 725.983 285.8Z" fill="#B48154"/>
<path d="M725.926 283.401C725.926 283.401 725.303 282.864 723.647 282.864C721.953 282.864 718.326 283.401 718.326 283.401C718.326 283.401 721.953 283.904 723.647 283.904C725.303 283.904 725.926 283.401 725.926 283.401Z" fill="#B48154"/>
<path d="M725.877 280.968C725.877 280.968 725.255 280.451 723.598 280.451C721.939 280.451 718.326 280.968 718.326 280.968C718.326 280.968 721.939 281.505 723.598 281.505C725.255 281.505 725.877 280.968 725.877 280.968Z" fill="#B48154"/>
<path d="M727.414 329.744C727.414 329.744 726.771 329.218 725.003 329.218C723.233 329.218 719.369 329.744 719.369 329.744C719.369 329.744 723.233 330.275 725.003 330.275C726.771 330.275 727.414 329.744 727.414 329.744Z" fill="#B48154"/>
<path d="M727.359 327.351C727.359 327.351 726.688 326.814 724.941 326.814C723.198 326.814 719.369 327.351 719.369 327.351C719.369 327.351 723.198 327.876 724.941 327.876C726.688 327.876 727.359 327.351 727.359 327.351Z" fill="#B48154"/>
<path d="M727.282 324.954C727.282 324.954 726.666 324.415 724.912 324.415C723.184 324.415 719.369 324.954 719.369 324.954C719.369 324.954 723.184 325.463 724.912 325.463C726.666 325.463 727.282 324.954 727.282 324.954Z" fill="#B48154"/>
<path d="M727.24 322.527C727.24 322.527 726.617 321.996 724.883 321.996C723.17 321.996 719.369 322.527 719.369 322.527C719.369 322.527 723.17 323.053 724.883 323.053C726.617 323.053 727.24 322.527 727.24 322.527Z" fill="#B48154"/>
<path d="M727.197 320.102C727.197 320.102 726.554 319.605 724.863 319.605C723.136 319.605 719.369 320.102 719.369 320.102C719.369 320.102 723.136 320.647 724.863 320.647C726.554 320.647 727.197 320.102 727.197 320.102Z" fill="#B48154"/>
<path d="M727.128 317.709C727.128 317.709 726.491 317.192 724.806 317.192C723.101 317.192 719.369 317.709 719.369 317.709C719.369 317.709 723.101 318.235 724.806 318.235C726.491 318.235 727.128 317.709 727.128 317.709Z" fill="#B48154"/>
<path d="M727.08 315.298C727.08 315.298 726.457 314.787 724.778 314.787C723.073 314.787 719.369 315.298 719.369 315.298C719.369 315.298 723.073 315.807 724.778 315.807C726.457 315.807 727.08 315.298 727.08 315.298Z" fill="#B48154"/>
<path d="M727.031 312.905C727.031 312.905 726.423 312.368 724.738 312.368C723.053 312.368 719.369 312.905 719.369 312.905C719.369 312.905 723.053 313.425 724.738 313.425C726.423 313.425 727.031 312.905 727.031 312.905Z" fill="#B48154"/>
<path d="M726.974 310.481C726.974 310.481 726.36 309.978 724.689 309.978C723.024 309.978 719.369 310.481 719.369 310.481C719.369 310.481 723.024 311.018 724.689 311.018C726.36 311.018 726.974 310.481 726.974 310.481Z" fill="#B48154"/>
<path d="M726.912 308.076C726.912 308.076 726.303 307.545 724.661 307.545C723.005 307.545 719.369 308.076 719.369 308.076C719.369 308.076 723.005 308.584 724.661 308.584C726.303 308.584 726.912 308.076 726.912 308.076Z" fill="#B48154"/>
<path d="M728.596 356.85C728.596 356.85 727.939 356.342 726.182 356.342C724.429 356.342 720.576 356.85 720.576 356.85C720.576 356.85 724.429 357.384 726.182 357.384C727.939 357.384 728.596 356.85 728.596 356.85Z" fill="#B48154"/>
<path d="M728.541 354.44C728.541 354.44 727.89 353.914 726.148 353.914C724.395 353.914 720.576 354.44 720.576 354.44C720.576 354.44 724.395 354.956 726.148 354.956C727.89 354.956 728.541 354.44 728.541 354.44Z" fill="#B48154"/>
<path d="M728.498 352.02C728.498 352.02 727.856 351.515 726.108 351.515C724.366 351.515 720.576 352.02 720.576 352.02C720.576 352.02 724.366 352.552 726.108 352.552C727.856 352.552 728.498 352.02 728.498 352.02Z" fill="#B48154"/>
<path d="M728.456 349.607C728.456 349.607 727.784 349.11 726.057 349.11C724.352 349.11 720.576 349.607 720.576 349.607C720.576 349.607 724.352 350.144 726.057 350.144C727.784 350.144 728.456 349.607 728.456 349.607Z" fill="#B48154"/>
<path d="M728.379 347.231C728.379 347.231 727.75 346.691 726.017 346.691C724.289 346.691 720.576 347.231 720.576 347.231C720.576 347.231 724.289 347.739 726.017 347.739C727.75 347.739 728.379 347.231 728.379 347.231Z" fill="#B48154"/>
<path d="M728.324 344.789C728.324 344.789 727.693 344.287 726.002 344.287C724.289 344.287 720.576 344.789 720.576 344.789C720.576 344.789 724.289 345.329 726.002 345.329C727.693 345.329 728.324 344.789 728.324 344.789Z" fill="#B48154"/>
<path d="M728.273 342.399C728.273 342.399 727.639 341.873 725.94 341.873C724.246 341.873 720.576 342.399 720.576 342.399C720.576 342.399 724.246 342.921 725.94 342.921C727.639 342.921 728.273 342.399 728.273 342.399Z" fill="#B48154"/>
<path d="M728.219 340.009C728.219 340.009 727.59 339.469 725.911 339.469C724.226 339.469 720.576 340.009 720.576 340.009C720.576 340.009 724.226 340.54 725.911 340.54C727.59 340.54 728.219 340.009 728.219 340.009Z" fill="#B48154"/>
<path d="M728.156 337.581C728.156 337.581 727.527 337.064 725.877 337.064C724.206 337.064 720.576 337.581 720.576 337.581C720.576 337.581 724.206 338.112 725.877 338.112C727.527 338.112 728.156 337.581 728.156 337.581Z" fill="#B48154"/>
<path d="M728.084 335.176C728.084 335.176 727.499 334.645 725.828 334.645C724.177 334.645 720.576 335.176 720.576 335.176C720.576 335.176 724.177 335.707 725.828 335.707C727.499 335.707 728.084 335.176 728.084 335.176Z" fill="#B48154"/>
<path d="M725.158 275.479C725.158 275.479 724.535 274.942 722.739 274.942C720.968 274.942 717.11 275.479 717.11 275.479C717.11 275.479 720.968 276.004 722.739 276.004C724.535 276.004 725.158 275.479 725.158 275.479Z" fill="#B48154"/>
<path d="M725.101 273.059C725.101 273.059 724.435 272.534 722.696 272.534C720.948 272.534 717.11 273.059 717.11 273.059C717.11 273.059 720.948 273.591 722.696 273.591C724.435 273.591 725.101 273.059 725.101 273.059Z" fill="#B48154"/>
<path d="M725.058 270.661C725.058 270.661 724.401 270.138 722.653 270.138C720.934 270.138 717.11 270.661 717.11 270.661C717.11 270.661 720.934 271.172 722.653 271.172C724.401 271.172 725.058 270.661 725.058 270.661Z" fill="#B48154"/>
<path d="M724.984 268.248C724.984 268.248 724.352 267.705 722.619 267.705C720.905 267.705 717.11 268.248 717.11 268.248C717.11 268.248 720.905 268.773 722.619 268.773C724.352 268.773 724.984 268.248 724.984 268.248Z" fill="#B48154"/>
<path d="M724.912 265.829C724.912 265.829 724.29 265.312 722.57 265.312C720.843 265.312 717.11 265.829 717.11 265.829C717.11 265.829 720.843 266.383 722.57 266.383C724.29 266.383 724.912 265.829 724.912 265.829Z" fill="#B48154"/>
<path d="M724.884 263.433C724.884 263.433 724.233 262.901 722.528 262.901C720.837 262.901 717.11 263.433 717.11 263.433C717.11 263.433 720.837 263.964 722.528 263.964C724.233 263.964 724.884 263.433 724.884 263.433Z" fill="#B48154"/>
<path d="M724.829 261.005C724.829 261.005 724.207 260.482 722.508 260.482C720.8 260.482 717.11 261.005 717.11 261.005C717.11 261.005 720.8 261.545 722.508 261.545C724.207 261.545 724.829 261.005 724.829 261.005Z" fill="#B48154"/>
<path d="M724.778 258.609C724.778 258.609 724.135 258.098 722.436 258.098C720.774 258.098 717.11 258.609 717.11 258.609C717.11 258.609 720.774 259.14 722.436 259.14C724.135 259.14 724.778 258.609 724.778 258.609Z" fill="#B48154"/>
<path d="M724.729 256.216C724.729 256.216 724.081 255.684 722.416 255.684C720.774 255.684 717.11 256.216 717.11 256.216C717.11 256.216 720.774 256.721 722.416 256.721C724.081 256.721 724.729 256.216 724.729 256.216Z" fill="#B48154"/>
<path d="M712.215 288.476C710.95 288.476 709.921 289.533 709.921 290.812V295.182H714.571V290.812C714.571 289.533 713.523 288.476 712.215 288.476Z" fill="#B48154"/>
<path d="M712.215 287.253C712.949 287.253 713.663 287.485 714.2 287.853C714.074 287.548 713.529 286.379 711.738 286.134C709.67 285.863 708.097 287.308 707.571 288.384C707.097 289.295 707 289.735 707 291.686C707 292.111 707 296.392 707 296.392H708.696V290.812C708.696 288.861 710.284 287.253 712.215 287.253Z" fill="#B48154"/>
<path d="M712.215 261.293C710.95 261.293 709.921 262.333 709.921 263.607V267.976H714.571V263.607C714.571 262.333 713.523 261.293 712.215 261.293Z" fill="#B48154"/>
<path d="M712.215 260.054C712.949 260.054 713.663 260.271 714.2 260.662C714.074 260.371 713.529 259.209 711.738 258.943C709.67 258.663 708.097 260.117 707.571 261.202C707.097 262.125 707 262.536 707 264.495C707 264.935 707 269.201 707 269.201H708.696V263.607C708.696 261.67 710.284 260.054 712.215 260.054Z" fill="#B48154"/>
<path d="M712.215 315.57C710.95 315.57 709.921 316.618 709.921 317.878V322.261H714.571V317.878C714.571 316.618 713.523 315.57 712.215 315.57Z" fill="#B48154"/>
<path d="M712.215 314.339C712.949 314.339 713.663 314.556 714.2 314.947C714.074 314.653 713.529 313.479 711.738 313.242C709.67 312.948 708.097 314.41 707.571 315.487C707.097 316.424 707 316.829 707 318.771C707 319.205 707 323.486 707 323.486H708.696V317.877C708.696 315.941 710.284 314.339 712.215 314.339Z" fill="#B48154"/>
<path d="M712.215 342.664C710.95 342.664 709.921 343.712 709.921 344.991V349.37H714.571V344.991C714.571 343.712 713.523 342.664 712.215 342.664Z" fill="#B48154"/>
<path d="M712.215 341.453C712.949 341.453 713.663 341.665 714.2 342.036C714.074 341.756 713.529 340.579 711.738 340.342C709.67 340.028 708.097 341.505 707.571 342.553C707.097 343.504 707 343.924 707 345.874C707 346.308 707 350.592 707 350.592H708.696V344.992C708.696 343.027 710.284 341.453 712.215 341.453Z" fill="#B48154"/>
<path d="M734.385 359.514C734.351 359.06 733.965 358.703 733.54 358.703H731.952L727.751 256.77L730.33 251.538C730.455 251.295 730.435 250.978 730.281 250.721C730.116 250.475 729.847 250.321 729.567 250.321H727.751V242.484H722.836V224.172H725.246L712.215 216.935L699.209 224.172H701.642V242.484H701.628H696.721V250.321H694.888C694.597 250.321 694.337 250.475 694.197 250.721C694.028 250.978 694.017 251.295 694.148 251.538L696.727 256.77L692.526 358.703H690.938C690.493 358.703 690.113 359.06 690.113 359.514L688.959 386.642C688.959 386.854 689.05 387.068 689.205 387.236C689.359 387.419 689.596 387.51 689.799 387.51H734.651C734.862 387.51 735.105 387.419 735.282 387.236C735.399 387.068 735.496 386.854 735.485 386.642L734.385 359.514ZM703.327 224.172H721.122V242.484H715.782V237.646C715.782 235.682 714.2 234.088 712.215 234.088C710.284 234.088 708.685 235.682 708.685 237.652V242.484H703.327V224.172ZM696.413 252.097H696.721H698.503H701.559H703.327H711.278H713.089H721.039H722.836H725.96H727.751H728.065L726.12 255.984L725.926 256.39L725.96 256.858L726.814 277.318H697.678L698.503 256.83L698.523 256.39L698.335 255.984L696.413 252.097ZM697.498 279.109H726.968L728.022 304.509H696.447L697.498 279.109ZM696.373 306.214H728.022L729.045 331.609H695.336L696.373 306.214ZM694.24 358.703L695.273 333.308H729.185L730.233 358.703H694.24Z" fill="#B48154"/>
<path d="M712.215 211.204L711.384 218.286H713.089L712.215 211.204Z" fill="#B48154"/>
<path d="M727.751 240.799H696.722V239.094H727.751V240.799Z" fill="#B48154"/>
<path d="M727.751 237.401H696.722V235.701H727.751V237.401Z" fill="#B48154"/>
<path d="M725.352 224.172H699.098V222.473H725.352V224.172Z" fill="#B48154"/>
<path d="M698.412 240.799H696.722V235.673H698.412V240.799Z" fill="#B48154"/>
<path d="M727.751 240.799H726.052V235.673H727.751V240.799Z" fill="#B48154"/>
<path d="M720.566 248.334C720.566 248.334 720 247.654 718.498 247.654C716.944 247.654 713.64 248.334 713.64 248.334C713.64 248.334 716.944 248.988 718.498 248.988C720 248.988 720.566 248.334 720.566 248.334Z" fill="#B48154"/>
<path d="M719.843 246.063C719.843 246.063 719.395 245.526 718.207 245.526C716.976 245.526 714.363 246.063 714.363 246.063C714.363 246.063 716.976 246.569 718.207 246.569C719.395 246.569 719.843 246.063 719.843 246.063Z" fill="#B48154"/>
<path d="M719.842 228.662C719.842 228.662 719.394 228.151 718.206 228.151C716.975 228.151 714.362 228.662 714.362 228.662C714.362 228.662 716.975 229.17 718.206 229.17C719.394 229.17 719.842 228.662 719.842 228.662Z" fill="#B48154"/>
<path d="M719.842 230.99C719.842 230.99 719.394 230.464 718.206 230.464C716.975 230.464 714.362 230.99 714.362 230.99C714.362 230.99 716.975 231.535 718.206 231.535C719.394 231.535 719.842 230.99 719.842 230.99Z" fill="#B48154"/>
<path d="M719.843 226.32C719.843 226.32 719.395 225.801 718.207 225.801C716.976 225.801 714.363 226.32 714.363 226.32C714.363 226.32 716.976 226.843 718.207 226.843C719.395 226.843 719.843 226.32 719.843 226.32Z" fill="#B48154"/>
<path d="M708.579 383.938C708.579 383.938 704.32 384.3 700.462 384.3C696.575 384.3 692.323 383.938 692.323 383.938C692.323 383.938 696.575 383.595 700.462 383.595C704.32 383.595 708.579 383.938 708.579 383.938Z" fill="#B48154"/>
<path d="M692.448 381.548C692.448 381.548 696.658 381.191 700.516 381.191C704.349 381.191 708.578 381.548 708.578 381.548C708.578 381.548 704.349 381.868 700.516 381.868C696.658 381.868 692.448 381.548 692.448 381.548Z" fill="#B48154"/>
<path d="M692.526 379.134C692.526 379.134 696.727 378.757 700.551 378.757C704.393 378.757 708.599 379.134 708.599 379.134C708.599 379.134 704.393 379.491 700.551 379.491C696.727 379.491 692.526 379.134 692.526 379.134Z" fill="#B48154"/>
<path d="M692.631 376.73C692.631 376.73 696.826 376.358 700.636 376.358C704.437 376.358 708.613 376.73 708.613 376.73C708.613 376.73 704.437 377.078 700.636 377.078C696.826 377.078 692.631 376.73 692.631 376.73Z" fill="#B48154"/>
<path d="M692.743 374.311C692.743 374.311 696.904 373.959 700.677 373.959C704.467 373.959 708.622 374.311 708.622 374.311C708.622 374.311 704.467 374.673 700.677 374.673C696.904 374.673 692.743 374.311 692.743 374.311Z" fill="#B48154"/>
<path d="M692.825 371.903C692.825 371.903 697.006 371.549 700.728 371.549C704.48 371.549 708.636 371.903 708.636 371.903C708.636 371.903 704.48 372.254 700.728 372.254C697.006 372.254 692.825 371.903 692.825 371.903Z" fill="#B48154"/>
<path d="M692.945 369.507C692.945 369.507 697.049 369.135 700.805 369.135C704.543 369.135 708.661 369.507 708.661 369.507C708.661 369.507 704.543 369.849 700.805 369.849C697.049 369.849 692.945 369.507 692.945 369.507Z" fill="#B48154"/>
<path d="M693.022 367.079C693.022 367.079 697.132 366.722 700.868 366.722C704.577 366.722 708.684 367.079 708.684 367.079C708.684 367.079 704.577 367.436 700.868 367.436C697.132 367.436 693.022 367.079 693.022 367.079Z" fill="#B48154"/>
<path d="M693.14 364.675C693.14 364.675 697.218 364.318 700.888 364.318C704.615 364.318 708.696 364.675 708.696 364.675C708.696 364.675 704.615 365.037 700.888 365.037C697.218 365.037 693.14 364.675 693.14 364.675Z" fill="#B48154"/>
<path d="M678.641 408.538H681.226V401.204L681.503 399.942L680.609 401.039L678.961 402.172L677.936 400.779L682.168 397.363H683.525V408.538H686.05V410.58H678.641V408.538Z" fill="white"/>
<path d="M687.497 407.402C687.497 406.971 687.551 406.586 687.663 406.243C687.774 405.906 687.934 405.592 688.137 405.315C688.34 405.038 688.582 404.786 688.859 404.566C689.139 404.341 689.436 404.138 689.762 403.95C689.156 403.567 688.677 403.127 688.328 402.624C687.983 402.125 687.811 401.502 687.811 400.759C687.811 400.277 687.9 399.826 688.083 399.403C688.257 398.983 688.517 398.618 688.859 398.309C689.199 397.998 689.613 397.758 690.093 397.584C690.579 397.412 691.124 397.327 691.73 397.327C692.286 397.327 692.795 397.398 693.252 397.547C693.709 397.695 694.1 397.906 694.431 398.178C694.757 398.449 695.008 398.78 695.191 399.172C695.368 399.56 695.462 399.991 695.462 400.462C695.462 401.191 695.297 401.81 694.965 402.319C694.64 402.827 694.16 403.29 693.526 403.71C694.271 404.144 694.834 404.621 695.208 405.138C695.588 405.66 695.776 406.326 695.776 407.145C695.776 407.702 695.671 408.205 695.468 408.656C695.262 409.11 694.977 409.496 694.608 409.818C694.231 410.141 693.786 410.39 693.269 410.57C692.749 410.749 692.181 410.838 691.558 410.838C690.941 410.838 690.379 410.755 689.879 410.587C689.382 410.421 688.954 410.19 688.599 409.893C688.248 409.596 687.977 409.236 687.783 408.813C687.591 408.393 687.497 407.925 687.497 407.402ZM693.472 407.165C693.472 406.877 693.406 406.617 693.269 406.383C693.129 406.146 692.955 405.934 692.738 405.743C692.523 405.552 692.281 405.375 692.018 405.212C691.747 405.052 691.481 404.898 691.207 404.749C690.627 405.083 690.224 405.446 690.01 405.834C689.796 406.223 689.685 406.611 689.685 406.997C689.685 407.491 689.856 407.914 690.199 408.265C690.533 408.619 691.007 408.796 691.615 408.796C692.172 408.796 692.623 408.659 692.963 408.388C693.3 408.113 693.472 407.708 693.472 407.165ZM690.116 400.797C690.116 401.094 690.17 401.351 690.282 401.576C690.39 401.799 690.544 401.993 690.733 402.159C690.924 402.327 691.141 402.482 691.384 402.624C691.627 402.767 691.878 402.901 692.138 403.021C692.878 402.39 693.252 401.699 693.252 400.945C693.252 400.422 693.098 400.031 692.795 399.766C692.492 399.5 692.121 399.366 691.692 399.366C691.147 399.366 690.75 399.509 690.496 399.791C690.242 400.08 690.116 400.411 690.116 400.797Z" fill="white"/>
<path d="M697.836 408.536H700.418V401.202L700.697 399.94L699.804 401.036L698.15 402.17L697.13 400.777L701.366 397.361H702.719V408.536H705.244V410.578H697.836V408.536Z" fill="white"/>
<path d="M715.208 406.548C715.208 407.157 715.108 407.719 714.906 408.239C714.697 408.759 714.409 409.21 714.04 409.596C713.672 409.978 713.218 410.281 712.695 410.504C712.167 410.727 711.587 410.838 710.959 410.838C710.313 410.838 709.725 410.735 709.185 410.532C708.651 410.327 708.18 410.021 707.786 409.613C707.389 409.204 707.08 408.69 706.858 408.073C706.632 407.454 706.523 406.737 706.523 405.917C706.523 404.695 706.698 403.587 707.052 402.599C707.403 401.605 707.877 400.742 708.48 400.008C709.079 399.272 709.779 398.678 710.579 398.223C711.378 397.772 712.221 397.472 713.115 397.327L713.649 399.234C713.032 399.334 712.464 399.529 711.941 399.811C711.421 400.097 710.959 400.437 710.556 400.834C710.153 401.228 709.819 401.67 709.536 402.159C709.262 402.65 709.062 403.153 708.954 403.672C709.202 403.364 709.519 403.101 709.916 402.884C710.313 402.667 710.81 402.559 711.407 402.559C711.961 402.559 712.475 402.647 712.944 402.819C713.412 402.993 713.815 403.247 714.152 403.59C714.486 403.93 714.746 404.346 714.934 404.843C715.114 405.337 715.208 405.906 715.208 406.548ZM712.872 406.68C712.872 405.295 712.19 404.601 710.827 404.601C710.33 404.601 709.916 404.712 709.576 404.935C709.234 405.158 708.997 405.417 708.86 405.714C708.837 405.852 708.825 405.969 708.825 406.066C708.825 406.166 708.825 406.266 708.825 406.366C708.825 406.663 708.865 406.954 708.954 407.245C709.042 407.537 709.168 407.796 709.334 408.028C709.499 408.256 709.713 408.439 709.973 408.582C710.23 408.727 710.545 408.796 710.904 408.796C711.481 408.796 711.955 408.599 712.321 408.202C712.689 407.805 712.872 407.3 712.872 406.68Z" fill="white"/>
<path d="M726.903 403.433H723.393V410.578H720.905V401.296H726.903V403.433Z" fill="white"/>
<path d="M727.289 405.937C727.289 404.367 727.675 403.156 728.443 402.308C729.208 401.462 730.288 401.037 731.67 401.037C732.415 401.037 733.061 401.154 733.601 401.391C734.146 401.625 734.597 401.956 734.957 402.382C735.314 402.81 735.583 403.327 735.765 403.935C735.942 404.541 736.037 405.206 736.037 405.937C736.037 407.508 735.657 408.719 734.894 409.567C734.129 410.415 733.061 410.838 731.67 410.838C730.933 410.838 730.288 410.721 729.742 410.484C729.197 410.25 728.746 409.919 728.374 409.493C728.012 409.065 727.74 408.551 727.56 407.942C727.383 407.337 727.289 406.668 727.289 405.937ZM729.779 405.937C729.779 406.346 729.814 406.723 729.891 407.071C729.962 407.417 730.079 407.719 730.228 407.979C730.371 408.239 730.568 408.439 730.81 408.582C731.047 408.728 731.342 408.796 731.67 408.796C732.304 408.796 732.772 408.568 733.081 408.108C733.389 407.651 733.544 406.926 733.544 405.937C733.544 405.083 733.406 404.395 733.121 403.867C732.835 403.341 732.355 403.081 731.67 403.081C731.076 403.081 730.613 403.304 730.282 403.747C729.945 404.192 729.779 404.924 729.779 405.937Z" fill="white"/>
<path d="M746.932 412.694H745.167L744.887 410.578H738.647L738.373 412.694H736.608V408.442H737.705C737.805 408.308 737.933 408.076 738.087 407.748C738.242 407.419 738.396 406.971 738.55 406.4C738.704 405.832 738.836 405.126 738.947 404.287C739.061 403.444 739.118 402.45 739.118 401.296H745.575V408.442H746.932V412.694ZM743.162 408.556V403.338H741.212C741.189 403.784 741.146 404.258 741.083 404.758C741.017 405.26 740.94 405.746 740.852 406.217C740.76 406.688 740.649 407.125 740.529 407.534C740.401 407.942 740.263 408.282 740.121 408.556H743.162Z" fill="white"/>
<path d="M669.667 407.888H583.424V404.96H669.667V407.888Z" fill="white"/>
<path d="M840.519 408.148H754.276V404.7H840.519V408.148Z" fill="white"/>
<path d="M599.498 467.955L600.616 467.807C615.081 465.962 632.625 452.171 635.936 440.3C637.296 431.918 618.877 441.986 606.499 458.466C605.835 459.351 600.352 466.32 599.498 467.955ZM594.416 482.209C591.053 478.614 593.9 472.425 596.019 469.325L596.82 468.25C592.234 467.649 586.488 465.667 580.889 467.027C576.145 468.303 572.434 471.086 570.884 474.955C570.525 475.462 570.42 475.472 570.557 475.019C571.601 472.541 573.404 470.411 576.64 468.324C583.588 464.423 589.735 467.048 597.063 467.775C603.663 458.476 619.678 437.59 633.806 436.905C635.715 436.894 636.579 438.433 636.263 440.342C633.248 450.158 623.073 458.655 613.922 463.716C609.841 465.688 604.222 467.818 599.235 468.324C596.704 471.613 593.742 478.951 595.914 481.682C600.964 488.04 622.873 473.922 633.026 466.837C633.87 466.363 633.901 466.574 633.427 466.932C622.23 474.312 600.51 488.841 594.416 482.209Z" fill="white"/>
<path d="M599.499 467.955L599.541 468.324L600.658 468.187C615.314 466.289 632.889 452.509 636.305 440.405V440.363L636.39 439.477C636.39 438.665 636.147 437.98 635.662 437.537C635.167 437.084 634.492 436.905 633.712 436.905C630.939 436.915 626.479 439.15 621.439 442.914C616.41 446.689 610.875 452.003 606.194 458.234C605.529 459.13 600.068 466.057 599.151 467.765L599.172 468.166L599.541 468.324L599.499 467.955L599.836 468.124C600.637 466.595 606.151 459.583 606.816 458.698C611.444 452.53 616.937 447.258 621.903 443.537C626.848 439.804 631.339 437.653 633.712 437.674C634.376 437.674 634.84 437.833 635.135 438.107C635.43 438.381 635.609 438.792 635.62 439.477L635.557 440.236L635.936 440.3L635.557 440.194C632.352 451.845 614.85 465.635 600.563 467.428L599.446 467.565L599.499 467.955L599.836 468.124L599.499 467.955ZM594.417 482.209L594.701 481.946C593.658 480.828 593.257 479.458 593.257 477.96C593.246 474.977 594.954 471.571 596.346 469.547L596.019 469.325L596.336 469.557L597.126 468.482L597.168 468.102L596.873 467.87C593.468 467.428 589.324 466.173 585.044 466.173C583.631 466.173 582.218 466.31 580.795 466.658H580.784C575.966 467.955 572.139 470.802 570.515 474.819L570.884 474.956L570.568 474.745L570.367 474.987L570.346 475.019L570.536 475.261V474.956L570.346 475.019L570.536 475.261V474.956V475.325L570.852 475.156L570.536 474.956V475.325L570.852 475.156L570.589 475.293H570.884L570.852 475.156L570.589 475.293H570.884L570.894 475.261L570.926 475.124L570.557 475.019L570.916 475.166C571.928 472.763 573.657 470.717 576.841 468.64L576.641 468.324L576.82 468.651C579.572 467.111 582.176 466.626 584.801 466.626C588.681 466.616 592.614 467.723 597.021 468.166L597.379 467.997C603.927 458.708 620.026 437.896 633.817 437.295L633.807 436.905V437.295H633.817C635.251 437.316 635.905 438.191 635.947 439.593L635.884 440.279L636.263 440.342L635.905 440.226C632.942 449.873 622.831 458.36 613.732 463.379L613.922 463.716L613.753 463.368C609.704 465.33 604.106 467.449 599.193 467.944L598.929 468.081C596.968 470.654 594.786 475.462 594.775 478.983C594.775 480.122 595.007 481.145 595.608 481.914C596.599 483.158 598.16 483.675 599.994 483.664C608.576 483.633 624.834 472.995 633.248 467.154L633.026 466.837L633.216 467.175L633.596 466.985L633.691 466.943L633.68 466.911V466.943H633.691L633.68 466.911V466.943V466.637L633.501 466.89L633.68 466.943V466.637L633.501 466.89L633.701 466.595H633.353L633.501 466.89L633.701 466.595H633.353H633.617L633.385 466.458L633.353 466.595H633.617L633.385 466.458L633.343 466.5L633.195 466.626L633.427 466.932L633.216 466.616C624.033 472.678 607.649 483.548 599.003 483.517C597.147 483.506 595.692 483.021 594.712 481.946H594.701L594.417 482.209L594.142 482.473C595.313 483.749 597.021 484.286 599.003 484.276C608.144 484.255 624.402 473.321 633.638 467.259L633.659 467.238L633.933 466.995L634.123 466.595L633.933 466.257L633.68 466.173L632.836 466.51L632.805 466.521C624.476 472.351 608.07 482.937 599.994 482.905C598.276 482.895 597.01 482.441 596.209 481.44C595.756 480.87 595.545 480.027 595.545 478.983C595.534 475.767 597.675 470.96 599.541 468.556L599.235 468.324L599.267 468.703C604.338 468.197 609.989 466.046 614.08 464.054H614.101C623.305 458.961 633.553 450.442 636.632 440.458L636.643 440.405L636.716 439.593C636.716 438.75 636.474 437.98 635.978 437.421C635.483 436.852 634.734 436.515 633.817 436.515H633.796L633.785 436.525C619.331 437.284 603.389 458.255 596.747 467.554L597.063 467.776L597.095 467.396C592.772 466.964 588.818 465.857 584.801 465.846C582.081 465.846 579.319 466.373 576.451 467.986L576.43 467.997C573.151 470.116 571.274 472.309 570.209 474.871L570.199 474.903L570.114 475.293L570.167 475.514L570.536 475.736L570.947 475.514L571.19 475.188L571.232 475.103C572.729 471.371 576.324 468.651 580.984 467.396L580.89 467.027L580.974 467.407C582.323 467.069 583.684 466.943 585.044 466.943C589.177 466.943 593.278 468.166 596.768 468.64L596.821 468.25L596.515 468.029L595.713 469.094L595.703 469.104C594.258 471.223 592.498 474.692 592.487 477.96C592.487 479.595 592.941 481.197 594.142 482.473L594.417 482.209Z" fill="white"/>
<path d="M631.614 466.816C632.362 465.213 634.513 466.521 631.909 467.586C631.888 471.455 639.954 462.124 641.493 460.648L643.443 460.848C641.377 464.001 638.773 468.777 643.517 468.092C646.659 467.66 653.354 463.853 654.672 462.968L654.714 463.179C651.72 465.076 647.292 467.544 643.928 468.303C637.634 469.684 639.426 464.075 641.25 461.46C641.472 461.154 640.903 461.629 639.954 462.725C636.822 466.331 631.045 471.94 631.614 466.816Z" fill="white"/>
<path d="M631.613 466.816L631.961 466.985C632.162 466.553 632.436 466.458 632.615 466.447L632.763 466.49L632.773 466.5L632.615 466.732C632.467 466.869 632.193 467.048 631.772 467.228L631.529 467.576V467.597L631.761 468.524L632.531 468.904C633.216 468.883 633.922 468.419 634.787 467.765C637.328 465.804 640.828 461.819 641.756 460.933L641.493 460.649L641.461 461.039L643.401 461.239L643.443 460.849L643.116 460.638C641.904 462.515 640.48 464.887 640.459 466.627C640.459 467.154 640.607 467.66 640.997 468.018C641.387 468.387 641.956 468.546 642.684 468.546L643.57 468.472C646.88 467.997 653.512 464.202 654.893 463.284L654.672 462.968L654.292 463.042L654.334 463.253L654.714 463.179L654.503 462.852C651.53 464.739 647.112 467.196 643.844 467.924C643.201 468.061 642.642 468.134 642.167 468.134C641.25 468.124 640.712 467.892 640.396 467.554C640.069 467.217 639.922 466.732 639.922 466.11C639.911 464.739 640.733 462.852 641.566 461.682L641.682 461.376L641.566 461.102L641.292 460.986L641.029 461.07C640.797 461.239 640.343 461.692 639.658 462.483C638.551 463.748 637.107 465.277 635.746 466.479C634.407 467.692 633.068 468.524 632.478 468.493L632.13 468.324C632.035 468.198 631.951 467.924 631.951 467.46L631.993 466.859L631.613 466.816L631.961 466.985L631.613 466.816L631.234 466.774L631.181 467.46C631.192 468.008 631.276 468.44 631.498 468.767L632.478 469.262C633.564 469.231 634.84 468.282 636.252 467.059C637.655 465.825 639.11 464.276 640.238 462.979C640.617 462.546 640.923 462.209 641.155 461.998L641.408 461.756L641.461 461.713L641.292 461.46V461.756L641.461 461.713L641.292 461.46V461.756V461.376L641.018 461.64L641.292 461.756V461.376L641.018 461.64L641.292 461.376H640.913L641.018 461.64L641.292 461.376H640.913H641.229L640.955 461.228L640.913 461.376H641.229L640.955 461.228L640.934 461.239C640.048 462.536 639.162 464.455 639.152 466.11C639.152 466.848 639.331 467.565 639.837 468.082C640.343 468.619 641.124 468.904 642.167 468.904C642.705 468.893 643.317 468.83 644.012 468.672C647.471 467.892 651.899 465.404 654.914 463.506L655.093 463.116L655.051 462.905L654.819 462.61L654.461 462.652C653.206 463.506 646.427 467.312 643.464 467.713L642.684 467.776C642.072 467.776 641.714 467.639 641.524 467.46C641.324 467.28 641.229 467.027 641.229 466.627C641.208 465.298 642.557 462.884 643.759 461.07L643.791 460.691L643.475 460.469L641.535 460.269L641.229 460.374C640.565 461.007 638.815 462.958 636.969 464.771C636.063 465.667 635.124 466.532 634.323 467.154C633.522 467.786 632.794 468.155 632.531 468.134L632.383 468.082L632.299 467.597V467.586H631.909L632.056 467.934C633.016 467.533 633.511 467.101 633.543 466.5C633.532 465.962 633.047 465.688 632.615 465.688C632.12 465.678 631.561 466.005 631.255 466.658L631.234 466.774L631.613 466.816Z" fill="white"/>
<path d="M655.304 462.472C653.301 465.994 657.307 464.296 658.583 461.903C661.356 457.802 657.117 459.204 655.304 462.472ZM660.217 459.373L661.082 458.128C661.967 458.192 662.516 458.529 662.252 458.898C654.208 468.999 668.399 462.188 671.52 460.047L671.551 460.258C669.2 462.103 659.079 466.879 658.182 463.39C650.707 468.956 652.9 457.222 660.217 459.373Z" fill="white"/>
<path d="M655.305 462.472L654.967 462.282C654.567 462.999 654.367 463.516 654.367 463.969L654.63 464.644L655.273 464.866C656.412 464.823 658.067 463.621 658.921 462.082L658.584 461.903L658.9 462.114C659.564 461.123 659.87 460.437 659.881 459.879L659.628 459.214L658.995 458.993C657.835 459.035 656.085 460.342 654.967 462.293V462.282L655.305 462.472L655.632 462.662C656.581 460.912 658.426 459.72 658.995 459.763L659.1 459.773L659.111 459.879C659.122 460.121 658.9 460.754 658.267 461.681L658.236 461.724C657.593 463.01 655.853 464.149 655.273 464.106L655.157 464.085L655.136 463.969C655.126 463.769 655.263 463.316 655.632 462.672V462.662L655.305 462.472ZM660.218 459.372L660.524 459.594L661.399 458.35L661.083 458.128L661.051 458.508L661.81 458.677L661.947 458.771V458.761V458.771V458.761L662.053 458.719H661.937L661.947 458.761L662.053 458.719H661.937H661.989L661.937 458.687V458.719H661.989L661.937 458.687L662.253 458.898L661.947 458.655C660.207 460.88 659.459 462.261 659.438 463.295C659.427 463.737 659.628 464.149 659.965 464.37C660.292 464.591 660.703 464.665 661.156 464.665C664.035 464.634 669.781 461.681 671.731 460.364L671.52 460.047L671.141 460.121L671.173 460.321L671.552 460.258L671.32 459.963C669.675 461.27 663.55 464.275 660.397 464.243C659.29 464.233 658.731 463.948 658.563 463.295L658.32 463.02L657.962 463.073C656.538 464.149 655.495 464.528 654.883 464.518C654.177 464.486 653.966 464.159 653.934 463.453C653.924 462.725 654.335 461.703 655.115 460.901C655.895 460.089 657.013 459.488 658.447 459.488C658.963 459.488 659.512 459.562 660.102 459.741L660.524 459.594L660.218 459.372L660.323 459.003C659.659 458.803 659.037 458.719 658.447 458.719C655.115 458.74 653.175 461.502 653.165 463.453C653.165 463.927 653.281 464.391 653.576 464.739C653.871 465.097 654.335 465.287 654.883 465.287C655.779 465.287 656.918 464.802 658.415 463.695L658.183 463.389L657.814 463.484C658.099 464.612 659.195 465.034 660.397 465.013C663.94 464.992 669.939 461.987 671.795 460.564L671.932 460.195L671.9 459.984L671.668 459.699L671.299 459.731C669.517 460.975 663.602 463.927 661.156 463.896L660.397 463.737L660.207 463.295C660.186 462.683 660.83 461.281 662.559 459.14L662.569 459.119L662.706 458.719L662.137 457.981C661.863 457.854 661.515 457.77 661.104 457.749L660.766 457.907L659.891 459.151L660.218 459.372L660.323 459.003L660.218 459.372Z" fill="white"/>
<path d="M694.588 433.942C696.012 430.905 692.785 431.802 690.866 432.951C686.765 435.418 675.252 451.528 673.86 455.05C682.463 452.182 692.617 438.212 694.588 433.942ZM691.531 432.128C693.608 431.222 695.527 430.926 695.126 433.014C694.166 438.054 681.588 453.363 673.66 455.482C669.284 463.769 674.345 463.094 676.19 460.817C678.278 458.149 675.969 459.267 675.758 459.035C674.619 458.466 677.603 456.526 677.561 458.719C683.718 460.522 686.66 458.044 688.705 456.916L688.747 457.127C686.765 458.286 683.855 460.711 677.497 458.993C675.99 464.328 668.23 463.685 671.098 457.338C679.374 438.971 690.012 432.782 691.531 432.128Z" fill="white"/>
<path d="M694.589 433.942L694.937 434.1C695.19 433.552 695.316 433.099 695.327 432.698L694.895 431.76L693.956 431.486C692.944 431.496 691.668 432.034 690.667 432.624C686.386 435.26 674.999 451.233 673.502 454.913L673.576 455.324L673.977 455.419C682.812 452.425 692.891 438.476 694.937 434.1L694.589 433.942L694.23 433.773C692.333 437.949 682.116 451.929 673.734 454.691L673.861 455.05L674.209 455.197C675.516 451.824 687.156 435.587 691.067 433.278C691.964 432.73 693.229 432.245 693.956 432.255L694.431 432.371L694.557 432.698C694.557 432.919 694.473 433.278 694.241 433.773H694.23L694.589 433.942ZM691.531 432.129L691.689 432.477C692.586 432.076 693.471 431.823 694.03 431.823L694.621 431.981L694.8 432.519L694.747 432.951C694.325 435.281 690.951 440.405 686.713 445.086C682.496 449.778 677.361 454.101 673.565 455.103L673.323 455.292C672.047 457.707 671.541 459.383 671.541 460.575C671.541 461.26 671.72 461.808 672.068 462.177C672.416 462.546 672.901 462.704 673.386 462.704C674.493 462.694 675.706 461.998 676.486 461.049C677.14 460.205 677.414 459.752 677.445 459.278L677.129 458.719L676.644 458.603L675.896 458.687V458.708L675.906 458.687H675.896V458.708L675.906 458.687L675.832 458.961L676.054 458.782L675.906 458.687L675.832 458.961L676.054 458.782L675.927 458.687L675.874 458.656L675.843 458.677H675.885L675.874 458.656L675.843 458.677H675.885L675.938 458.561L676.823 458.086L677.055 458.171L677.171 458.666V458.719L677.445 459.088C679.037 459.552 680.419 459.742 681.642 459.742C685.269 459.742 687.409 458.065 688.885 457.243L688.706 456.916L688.326 456.979L688.368 457.19L688.748 457.127L688.548 456.789C687.019 457.696 685.121 459.204 681.621 459.204C680.471 459.204 679.143 459.035 677.604 458.624L677.129 458.898C676.496 461.144 674.694 462.209 673.196 462.209C671.879 462.177 670.877 461.471 670.845 459.858C670.845 459.225 671.024 458.434 671.446 457.496C679.681 439.214 690.277 433.078 691.689 432.477L691.531 432.129L691.384 431.77C689.749 432.477 679.069 438.718 670.75 457.19C670.286 458.202 670.086 459.088 670.086 459.858C670.076 460.859 670.434 461.66 671.014 462.188C671.594 462.725 672.374 462.978 673.196 462.978C675.042 462.978 677.14 461.671 677.867 459.098L677.498 458.993L677.403 459.373C678.995 459.805 680.398 459.974 681.621 459.974C685.353 459.984 687.493 458.308 688.938 457.454L689.117 457.053L689.085 456.842L688.864 456.568L688.516 456.579C686.945 457.443 685.026 458.961 681.642 458.972C680.503 458.972 679.185 458.793 677.667 458.35L677.561 458.719H677.941L677.952 458.666C677.952 458.255 677.846 457.907 677.635 457.665L676.823 457.317C676.412 457.317 676.022 457.485 675.706 457.717C675.411 457.96 675.136 458.244 675.115 458.677L675.59 459.373L675.758 459.035L675.474 459.288L675.896 459.457L676.644 459.383H676.728H676.75L676.802 459.278H676.676L676.75 459.383L676.802 459.278H676.676C676.697 459.32 676.518 459.784 675.885 460.575C675.263 461.355 674.156 461.945 673.386 461.935C672.743 461.892 672.353 461.692 672.311 460.575C672.311 459.615 672.754 458.002 673.998 455.651L673.66 455.482L673.755 455.851C677.878 454.734 683.002 450.348 687.293 445.592C691.573 440.837 694.968 435.787 695.506 433.099L695.569 432.519C695.569 432.055 695.422 431.654 695.127 431.391C694.821 431.138 694.431 431.053 694.03 431.053C693.26 431.053 692.333 431.359 691.384 431.77L691.531 432.129Z" fill="white"/>
<path d="M689.338 456.473C687.335 459.995 691.352 458.297 692.617 455.893C695.39 451.803 691.162 453.205 689.338 456.473ZM694.251 453.373L695.126 452.129C696.012 452.193 696.56 452.53 696.297 452.899C688.252 463 702.444 456.178 705.554 454.048L705.596 454.259C703.245 456.094 693.123 460.88 692.227 457.38C684.752 462.957 686.934 451.223 694.251 453.373Z" fill="white"/>
<path d="M689.338 456.473L689 456.283C688.6 457 688.41 457.517 688.399 457.96L688.663 458.634L689.306 458.866C690.455 458.814 692.11 457.612 692.964 456.072L692.617 455.893L692.933 456.114C693.608 455.113 693.913 454.438 693.924 453.879L693.66 453.215L693.038 452.994C691.879 453.036 690.118 454.343 689 456.283L689.338 456.473L689.675 456.663C690.613 454.913 692.458 453.711 693.038 453.763L693.133 453.774L693.144 453.879C693.165 454.111 692.933 454.754 692.3 455.682L692.279 455.724C691.636 457.011 689.896 458.149 689.306 458.097L689.19 458.076L689.169 457.96C689.169 457.77 689.295 457.316 689.675 456.663L689.338 456.473ZM694.251 453.373L694.567 453.584L695.432 452.351L695.126 452.129L695.094 452.509L695.853 452.677L695.98 452.762H695.99H695.98H695.99H695.98L696.085 452.709H695.98V452.762L696.085 452.709H695.98H696.033L695.98 452.677V452.709H696.033L695.98 452.677L696.296 452.899L695.99 452.656C694.251 454.87 693.492 456.262 693.471 457.295C693.46 457.728 693.66 458.149 694.008 458.371C694.335 458.592 694.746 458.655 695.2 458.666C698.067 458.634 703.824 455.672 705.775 454.364L705.553 454.048L705.174 454.111L705.216 454.322L705.595 454.259L705.353 453.953C703.708 455.26 697.582 458.276 694.43 458.244C693.334 458.223 692.775 457.938 692.595 457.295L692.353 457.021L691.994 457.074C690.571 458.139 689.527 458.529 688.916 458.518C688.22 458.487 688.009 458.16 687.967 457.454C687.967 456.715 688.368 455.703 689.148 454.891C689.928 454.09 691.046 453.489 692.49 453.489C692.996 453.489 693.544 453.563 694.135 453.742L694.567 453.584L694.251 453.373L694.356 453.004C693.703 452.804 693.07 452.72 692.49 452.72C689.148 452.741 687.208 455.503 687.197 457.454C687.197 457.928 687.324 458.392 687.619 458.74C687.914 459.088 688.378 459.288 688.916 459.288C689.823 459.277 690.961 458.803 692.458 457.696L692.226 457.38L691.857 457.485C692.142 458.603 693.228 459.035 694.43 459.014C697.973 458.982 703.972 455.988 705.827 454.565L705.975 454.196L705.933 453.985L705.701 453.69L705.342 453.732C703.55 454.976 697.646 457.928 695.2 457.896L694.43 457.728L694.24 457.295C694.219 456.673 694.873 455.282 696.591 453.141L696.602 453.12L696.739 452.709L696.18 451.982C695.896 451.844 695.548 451.771 695.147 451.739L694.81 451.908L693.934 453.152L694.251 453.373L694.356 453.004L694.251 453.373Z" fill="white"/>
<path opacity="0.45" d="M734.493 223.914V219.733L1886.26 356.694V438.742L734.493 223.914Z" fill="url(#paint2_linear)"/>
<path opacity="0.55" d="M704.556 223.914V219.733L-447.211 356.694V438.742L704.556 223.914Z" fill="url(#paint3_linear)"/>
<path d="M754.674 409.028H841.667V407.341H754.674V409.028Z" fill="white"/>
<path d="M763.478 423.156C771.955 424.822 757.574 447.88 746.398 446.088L746.314 445.941C756.003 447.332 766.715 431.043 763.7 425.402C761.581 421.417 754.274 427.015 752.049 428.934C748.264 434.079 733.451 459.931 713.598 460.322L713.535 459.953C729.55 460.733 747.347 436.641 753.968 420.626C754.253 420.088 743.457 432.192 725.723 431.612L725.501 431.275C728.822 431.559 743.53 431.096 753.937 419.814C754.822 418.675 755.455 418.233 755.813 417.79C756.868 416.957 757.648 417.031 757.405 417.843C755.571 421.332 756.857 419.688 752.081 428.491C752.882 427.806 759.461 422.387 763.478 423.156Z" fill="white"/>
<path d="M763.479 423.156L763.394 423.536C765.007 423.873 765.619 424.906 765.651 426.625C765.661 429.693 763.247 434.564 759.767 438.592C756.288 442.63 751.744 445.814 747.664 445.803C747.252 445.803 746.852 445.772 746.462 445.708L746.398 446.088L746.736 445.898L746.651 445.751L746.314 445.94L746.261 446.32C746.673 446.373 747.094 446.404 747.516 446.404C751.807 446.394 756.046 443.378 759.24 439.593C762.435 435.787 764.596 431.201 764.607 427.785C764.607 426.825 764.438 425.961 764.048 425.223C763.458 424.095 762.403 423.61 761.275 423.62C757.964 423.652 753.515 427.194 751.797 428.639L751.744 428.702C747.948 433.91 733.114 459.604 713.588 459.942L713.598 460.321L713.978 460.258L713.914 459.889L713.535 459.952L713.514 460.342L714.294 460.364C722.402 460.342 730.742 454.364 737.9 446.467C745.07 438.56 751.048 428.702 754.316 420.773L753.969 420.626L754.306 420.805L754.359 420.615L754.253 420.352L753.969 420.225L753.737 420.299L753.062 420.9C750.595 423.146 741.127 431.253 726.967 431.253C726.566 431.253 726.155 431.243 725.744 431.232L725.723 431.612L726.05 431.401L725.818 431.064L725.502 431.275L725.47 431.654C725.849 431.686 726.366 431.707 726.988 431.707C732.081 431.707 744.838 430.231 754.222 420.067L754.232 420.046C755.107 418.939 755.698 418.538 756.109 418.032L755.814 417.79L756.056 418.085C756.509 417.716 756.921 417.579 757.058 417.579L757.1 417.589L757.121 417.526L757.068 417.558L757.1 417.589L757.121 417.526L757.068 417.558L757.1 417.537L757.068 417.547V417.558L757.1 417.537L757.068 417.547V417.579L757.037 417.726L757.406 417.842L757.068 417.653C755.202 421.206 756.52 419.498 751.744 428.312L751.839 428.797L752.334 428.786C753.041 428.154 758.882 423.43 762.656 423.462L763.394 423.536L763.479 423.156L763.542 422.777L762.656 422.692C758.355 422.734 752.629 427.542 751.828 428.196L752.081 428.491L752.419 428.67C757.205 419.856 755.93 421.448 757.743 418.022L757.775 417.948L757.838 417.579L757.606 417.02L757.058 416.809C756.604 416.82 756.119 417.062 755.582 417.494L755.518 417.547C755.223 417.927 754.548 418.412 753.631 419.571L753.937 419.814L753.652 419.55C744.511 429.472 731.954 430.937 726.988 430.937C726.377 430.937 725.892 430.916 725.533 430.884L725.175 431.074V431.475L725.407 431.823L725.712 432.002C726.134 432.013 726.556 432.023 726.967 432.023C735.36 432.023 742.128 429.229 746.82 426.456C749.171 425.064 750.995 423.673 752.25 422.629C752.883 422.102 753.368 421.67 753.694 421.374L754.074 421.016L754.169 420.942L753.969 420.647V420.995L754.169 420.942L753.969 420.647V420.995V420.615L753.694 420.868L753.969 420.995V420.615L753.694 420.868L753.969 420.615H753.589L753.694 420.868L753.969 420.615H753.589H753.937L753.631 420.447L753.589 420.615H753.937L753.631 420.447L753.61 420.478C750.373 428.312 744.427 438.128 737.331 445.951C730.246 453.785 722.001 459.604 714.294 459.594L713.556 459.573L713.24 459.699L713.155 460.016L713.219 460.385L713.609 460.712C733.789 460.269 748.581 434.248 752.355 429.166L752.05 428.934L752.303 429.229C753.916 427.806 758.481 424.348 761.275 424.39C762.213 424.4 762.888 424.706 763.363 425.592C763.679 426.172 763.837 426.92 763.837 427.785C763.848 430.874 761.76 435.408 758.65 439.098C755.539 442.798 751.428 445.645 747.516 445.635L746.367 445.55L745.998 445.719L745.977 446.12L746.061 446.267L746.335 446.467C746.778 446.531 747.221 446.573 747.664 446.573C752.145 446.562 756.784 443.21 760.347 439.087C763.911 434.954 766.399 430.051 766.42 426.625C766.452 424.706 765.524 423.135 763.552 422.777L763.479 423.156Z" fill="white"/>
<path d="M765.208 442.546C761.76 447.143 767.295 447.259 768.919 443.8C767.411 443.252 768.803 441.913 769.341 443.073C769.847 440.69 768.339 438.613 765.208 442.546ZM769.383 443.621C773.611 444.075 776.69 442.651 778.809 441.08L778.84 441.291C776.858 443.01 773.548 444.349 769.257 443.853C767.844 446.341 765.609 447.006 764.143 446.12C762.15 445.002 763.268 442.345 764.396 441.059C766.399 438.792 768.645 439.109 769.457 440.648C769.868 441.723 769.858 442.609 769.383 443.621Z" fill="white"/>
<path d="M765.207 442.545L764.902 442.313C764.079 443.41 763.721 444.285 763.71 445.012C763.71 445.519 763.911 445.951 764.248 446.214C764.585 446.489 765.018 446.605 765.471 446.605C766.789 446.594 768.455 445.687 769.267 443.969L769.277 443.652L769.056 443.442C768.623 443.273 768.624 443.136 768.624 443.115L768.761 442.999L768.982 443.231L769.383 443.452L769.709 443.146L769.815 442.187C769.815 441.618 769.709 441.09 769.446 440.679C769.182 440.257 768.729 439.952 768.181 439.962C767.253 439.983 766.209 440.679 764.902 442.313L765.207 442.545L765.513 442.788C766.736 441.217 767.706 440.711 768.181 440.732L768.792 441.08C768.95 441.333 769.056 441.723 769.045 442.187L768.961 442.988L769.34 443.073L769.688 442.914C769.499 442.482 769.13 442.219 768.761 442.229C768.265 442.229 767.864 442.609 767.854 443.115C767.854 443.568 768.212 443.969 768.792 444.158L768.919 443.8L768.571 443.642C767.907 445.076 766.441 445.835 765.471 445.835C764.796 445.793 764.501 445.592 764.48 445.012C764.48 444.559 764.744 443.8 765.513 442.777L765.207 442.545L765.513 442.788L765.207 442.545ZM769.383 443.621L769.34 444C769.889 444.064 770.426 444.085 770.954 444.085C774.475 444.085 777.143 442.788 779.04 441.386L778.808 441.08L778.429 441.143L778.471 441.354L778.84 441.291L778.597 440.995C776.963 442.408 774.38 443.568 771.048 443.568C770.479 443.568 769.899 443.536 769.309 443.473L768.929 443.663C767.949 445.371 766.62 446.109 765.513 446.109C765.092 446.109 764.691 445.993 764.343 445.793L764.332 445.782C763.658 445.392 763.436 444.875 763.426 444.222C763.415 443.241 764.048 442.018 764.691 441.312C765.65 440.226 766.62 439.804 767.411 439.804C768.17 439.815 768.771 440.184 769.119 440.827L769.456 440.648L769.098 440.785C769.277 441.27 769.362 441.681 769.362 442.081C769.362 442.524 769.256 442.957 769.035 443.452L769.045 443.811L769.34 444L769.383 443.621L769.731 443.779C769.994 443.21 770.131 442.651 770.131 442.081C770.131 441.565 770.026 441.059 769.815 440.521L769.794 440.468C769.33 439.583 768.434 439.034 767.411 439.034C766.346 439.034 765.176 439.593 764.111 440.795C763.383 441.639 762.667 442.935 762.656 444.222C762.645 445.076 763.036 445.951 763.953 446.457L764.143 446.12L763.942 446.446C764.417 446.731 764.954 446.879 765.513 446.879C766.968 446.879 768.529 445.93 769.593 444.043L769.256 443.853L769.214 444.232C769.847 444.306 770.458 444.338 771.048 444.338C774.559 444.338 777.322 443.115 779.104 441.586L779.23 441.227L779.188 441.017L778.956 440.721L778.576 440.774C776.774 442.103 774.285 443.315 770.954 443.315C770.458 443.315 769.941 443.294 769.414 443.231L769.383 443.621L769.731 443.779L769.383 443.621Z" fill="white"/>
<path d="M784.027 437.812C785.482 434.332 782.098 436.789 779.726 440.363C775.023 447.469 791.893 438.824 792.947 438.592C793.78 438.381 793.695 438.508 793.147 438.813C791.671 439.414 784.238 442.799 780.548 443.495C773.674 444.77 780.706 433.542 784.439 435.83C784.924 436.125 784.934 436.778 784.354 437.864L784.027 437.812Z" fill="white"/>
<path d="M784.028 437.812L784.376 437.959C784.629 437.348 784.755 436.915 784.755 436.546L784.597 435.988L784.059 435.745C783.405 435.787 782.762 436.304 781.929 437.084C781.107 437.875 780.2 438.95 779.399 440.152C778.809 441.048 778.524 441.723 778.513 442.303C778.503 442.714 778.714 443.094 779.03 443.294C779.357 443.494 779.736 443.547 780.169 443.547C781.972 443.537 784.955 442.419 787.665 441.301C789.015 440.732 790.28 440.163 791.26 439.72C792.22 439.298 792.947 438.971 793.032 438.961H793.042L793.485 438.866V438.634L793.401 438.855L793.485 438.866V438.634L793.401 438.855L793.538 438.518H793.179L793.401 438.855L793.538 438.518H793.179H793.485L793.264 438.297L793.179 438.518H793.485L793.264 438.297L793.19 438.349L792.958 438.486L793.148 438.813L793 438.465C791.513 439.066 784.08 442.44 780.474 443.115L779.557 443.21C778.935 443.21 778.577 443.062 778.366 442.851C778.155 442.64 778.039 442.335 778.039 441.913C778.028 440.901 778.766 439.319 779.831 438.075C780.886 436.81 782.267 435.882 783.321 435.903L784.238 436.156L784.407 436.515C784.418 436.747 784.302 437.158 784.017 437.685L784.354 437.864L784.418 437.485L784.08 437.432L784.028 437.812L784.376 437.959L784.028 437.812L783.964 438.191L784.302 438.244L784.702 438.044C785.008 437.453 785.177 436.968 785.177 436.515C785.187 436.104 784.987 435.703 784.639 435.503C784.228 435.25 783.775 435.134 783.321 435.134C781.856 435.155 780.39 436.241 779.241 437.58C778.102 438.94 777.28 440.574 777.259 441.913C777.259 442.472 777.427 443.009 777.828 443.4C778.229 443.79 778.809 443.979 779.557 443.979L780.622 443.874C784.407 443.157 791.83 439.762 793.295 439.172L793.337 439.151L793.675 438.94L793.812 438.834L793.949 438.518L793.685 438.138L793.485 438.096L792.852 438.212L792.947 438.592L792.863 438.212C792.568 438.286 791.935 438.581 790.944 439.024C788.045 440.342 782.467 442.799 780.169 442.777L779.441 442.64L779.283 442.303C779.273 442.008 779.483 441.417 780.042 440.574C780.812 439.425 781.687 438.381 782.457 437.643C783.205 436.894 783.943 436.483 784.059 436.515V436.473L784.049 436.515H784.059V436.473L784.049 436.515L784.091 436.409L783.985 436.462L784.049 436.515L784.091 436.409L783.985 436.462L783.996 436.546C783.996 436.715 783.901 437.105 783.669 437.664L783.68 438.001L783.964 438.191L784.028 437.812Z" fill="white"/>
<path d="M798.525 435.26C799.99 431.781 796.606 434.227 794.234 437.811C789.531 444.918 806.401 436.272 807.455 436.03C808.288 435.829 808.204 435.956 807.655 436.262C806.179 436.852 798.746 440.236 795.056 440.943C788.182 442.208 795.214 430.99 798.936 433.267C799.432 433.573 799.432 434.216 798.862 435.313L798.525 435.26Z" fill="white"/>
<path d="M798.524 435.26L798.883 435.407C799.136 434.796 799.262 434.353 799.262 433.984L799.094 433.436L798.567 433.193C797.913 433.236 797.27 433.752 796.426 434.532C795.614 435.313 794.708 436.399 793.906 437.6C793.316 438.497 793.031 439.161 793.021 439.751C793.01 440.152 793.211 440.542 793.537 440.732C793.854 440.932 794.244 440.995 794.676 440.995C796.468 440.985 799.463 439.867 802.172 438.739C803.522 438.17 804.787 437.611 805.768 437.168C806.717 436.736 807.455 436.409 807.528 436.409H807.539L807.992 436.314V436.082L807.908 436.293L807.992 436.314V436.082L807.908 436.293L808.045 435.956H807.687L807.908 436.293L808.045 435.956H807.687H807.992L807.771 435.745L807.687 435.956H807.992L807.771 435.745L807.465 435.935L807.655 436.261L807.507 435.903C806.021 436.504 798.588 439.878 794.982 440.563L794.065 440.658C793.443 440.658 793.074 440.5 792.863 440.3C792.652 440.089 792.546 439.783 792.546 439.361C792.525 438.338 793.274 436.768 794.339 435.523C795.393 434.258 796.774 433.33 797.829 433.341L798.746 433.594L798.915 433.952C798.915 434.195 798.809 434.596 798.524 435.123L798.862 435.313L798.925 434.922L798.588 434.87L798.524 435.26L798.883 435.407L798.524 435.26L798.472 435.629L798.809 435.682L799.199 435.481C799.516 434.891 799.684 434.406 799.684 433.952C799.695 433.541 799.494 433.141 799.146 432.94C798.735 432.687 798.282 432.571 797.829 432.571C796.363 432.592 794.897 433.678 793.748 435.017C792.61 436.388 791.787 438.012 791.766 439.361C791.766 439.92 791.924 440.458 792.325 440.848C792.736 441.238 793.316 441.428 794.065 441.428L795.119 441.322C798.915 440.595 806.326 437.2 807.803 436.62L807.845 436.599L808.182 436.388L808.319 436.272L808.456 435.956L808.193 435.587L807.992 435.544L807.36 435.66L807.455 436.029L807.37 435.65C807.075 435.724 806.432 436.03 805.451 436.462C802.552 437.78 796.964 440.247 794.676 440.226L793.949 440.078L793.79 439.751C793.78 439.456 793.991 438.855 794.55 438.022C795.319 436.862 796.194 435.819 796.964 435.081C797.713 434.332 798.451 433.921 798.567 433.963V433.921L798.546 433.952L798.567 433.963V433.921L798.546 433.952L798.598 433.847L798.482 433.9L798.546 433.952L798.598 433.847L798.482 433.9L798.493 433.984C798.503 434.153 798.408 434.543 798.176 435.102L798.187 435.439L798.472 435.629L798.524 435.26Z" fill="white"/>
<path d="M812.209 435.46C812.389 434.944 810.312 438.36 808.519 438.349C804.587 438.381 808.087 433.468 809.299 431.992C809.436 431.812 810.818 432.213 810.512 432.656C806.242 437.506 807.866 440.869 812.093 435.102C812.874 433.984 813.601 432.814 814.044 432.297C814.508 431.791 815.668 432.498 815.267 433.014C814.487 434.142 813.58 435.218 813.612 436.304C813.717 440.595 823.512 433.362 824.081 433.151L824.102 433.309C814.771 440.089 811.398 438.275 812.209 435.46Z" fill="white"/>
<path d="M812.21 435.461L812.568 435.587L812.6 435.418L812.547 435.208L812.21 435.018L811.957 435.113L811.461 435.703C810.807 436.557 809.426 438.012 808.519 437.97H808.509L808.519 438.349L808.509 437.97H808.467C807.876 437.97 807.528 437.833 807.349 437.685L807.086 437C807.054 435.682 808.815 433.162 809.605 432.234L809.616 432.213L809.395 432.055L809.468 432.329L809.616 432.213L809.395 432.055L809.468 432.329V432.319V432.329V432.319V432.329L809.974 432.466L810.175 432.593L810.185 432.603L810.322 432.53H810.175L810.185 432.603L810.322 432.53H810.175H810.322L810.196 432.435L810.175 432.53H810.322L810.196 432.435L810.512 432.656L810.227 432.403C808.446 434.427 807.634 436.188 807.613 437.337L807.855 438.16L808.614 438.518C809.595 438.476 810.765 437.506 812.399 435.324C813.19 434.195 813.928 433.015 814.339 432.551L814.044 432.298L814.339 432.551L814.476 432.508L814.835 432.635L814.951 432.751L814.961 432.783H814.983L814.961 432.772V432.783H814.983L814.961 432.772L814.951 432.793C814.202 433.89 813.243 434.965 813.222 436.251V436.315L813.612 436.304L813.222 436.315C813.243 436.863 813.401 437.327 813.738 437.633C814.065 437.938 814.508 438.044 814.972 438.044C816.522 438.033 818.673 436.916 820.581 435.798C821.53 435.239 822.405 434.68 823.069 434.248L823.881 433.71L824.134 433.563L824.197 433.521L824.208 433.51L824.081 433.152L823.702 433.225L823.723 433.373L824.103 433.31L823.881 432.993C819.158 436.431 815.984 437.611 814.244 437.601C812.895 437.559 812.505 437.042 812.473 436.23L812.579 435.566L812.21 435.461L812.568 435.587L812.21 435.461L811.841 435.355L811.704 436.23C811.704 436.821 811.914 437.39 812.368 437.77C812.811 438.17 813.443 438.371 814.244 438.371C816.3 438.36 819.548 437.084 824.334 433.616L824.482 433.236L824.461 433.088L824.271 432.814L823.944 432.793C823.712 432.888 823.333 433.162 822.648 433.605C820.697 434.891 816.775 437.316 814.972 437.274L814.255 437.074C814.118 436.937 814.013 436.726 814.002 436.294V436.251C813.97 435.397 814.793 434.354 815.583 433.236L815.267 433.015L815.573 433.247L815.731 432.783L815.299 432.023L814.476 431.728L813.76 432.045C813.264 432.614 812.558 433.763 811.777 434.881L812.094 435.102L811.777 434.87C810.249 437.01 808.994 437.801 808.614 437.749C808.467 437.727 808.435 437.759 808.382 437.337C808.372 436.547 809.078 434.839 810.797 432.909L810.828 432.877L810.944 432.53C810.892 432.045 810.554 431.908 810.301 431.77L809.468 431.56L808.994 431.77L809.3 431.992L809.004 431.749C808.193 432.772 806.348 435.186 806.316 437C806.316 437.464 806.463 437.938 806.854 438.265C807.233 438.592 807.771 438.74 808.467 438.74H808.519C809.584 438.708 810.502 437.896 811.229 437.148L812.125 436.104L812.389 435.777L812.452 435.703L812.368 435.619L812.442 435.714L812.452 435.703L812.368 435.619L812.442 435.714L812.21 435.44V435.798L812.442 435.714L812.21 435.44V435.798V435.418L811.893 435.619L812.21 435.798V435.418L811.893 435.619L812.21 435.418H811.83L811.893 435.619L812.21 435.418H811.83H812.073L811.841 435.334L811.83 435.418H812.073L811.841 435.334V435.355L812.21 435.461Z" fill="white"/>
<path d="M828.457 432.592C828.636 432.076 826.57 435.502 824.767 435.492C820.845 435.523 824.335 430.589 825.558 429.124C825.684 428.934 827.065 429.345 826.76 429.788C822.49 434.627 824.124 438.001 828.341 432.234C829.121 431.116 829.849 429.957 830.302 429.44C830.756 428.913 831.926 429.63 831.515 430.146C830.735 431.274 829.838 432.35 829.859 433.436C829.965 437.738 839.77 430.494 840.329 430.283L840.361 430.442C831.019 437.221 827.645 435.418 828.457 432.592Z" fill="white"/>
<path d="M828.457 432.592L828.826 432.719L828.848 432.55L828.795 432.339L828.468 432.16L828.204 432.245L827.709 432.835C827.066 433.689 825.674 435.154 824.778 435.102H824.746L824.767 435.492L824.757 435.102H824.725C824.124 435.102 823.776 434.965 823.607 434.817L823.344 434.132C823.302 432.824 825.062 430.294 825.853 429.377L825.874 429.345L825.642 429.187L825.716 429.461L825.874 429.345L825.642 429.187L825.716 429.461L826.233 429.598L826.422 429.725L826.444 429.735L826.57 429.651H826.422L826.444 429.735L826.57 429.651H826.422H826.581L826.444 429.567L826.422 429.651H826.581L826.444 429.567L826.76 429.788L826.475 429.535C824.693 431.57 823.882 433.32 823.871 434.459L824.103 435.292L824.862 435.661C825.843 435.608 827.024 434.638 828.658 432.466V432.455C829.448 431.327 830.176 430.157 830.587 429.682L830.724 429.64L831.093 429.767L831.199 429.883L831.22 429.914H831.23L831.22 429.904V429.914H831.23L831.22 429.904L831.199 429.925C830.461 431.021 829.501 432.097 829.48 433.383V433.446L829.86 433.436L829.48 433.446C829.491 433.995 829.649 434.459 829.986 434.764C830.324 435.07 830.766 435.186 831.23 435.186C832.77 435.165 834.92 434.047 836.829 432.94C837.788 432.382 838.653 431.812 839.317 431.38L840.139 430.853L840.382 430.684L840.456 430.652L840.477 430.642L840.435 430.558L840.466 430.642H840.477L840.435 430.558L840.466 430.642L840.329 430.283L839.95 430.347L839.981 430.505L840.361 430.442L840.129 430.125C835.416 433.562 832.242 434.743 830.503 434.733C829.143 434.691 828.763 434.174 828.721 433.362L828.826 432.698L828.457 432.592L828.826 432.719L828.457 432.592L828.088 432.487L827.962 433.362C827.951 433.953 828.162 434.522 828.616 434.912C829.058 435.302 829.702 435.502 830.503 435.502C832.559 435.492 835.796 434.216 840.582 430.758L840.74 430.378L840.709 430.22L840.519 429.946L840.192 429.925C839.96 430.03 839.581 430.294 838.895 430.737C836.945 432.034 833.033 434.448 831.23 434.416L830.513 434.206C830.366 434.069 830.26 433.858 830.25 433.425V433.383C830.229 432.54 831.04 431.485 831.842 430.357L831.515 430.146L831.821 430.378L831.989 429.914L831.547 429.155L830.724 428.871L830.018 429.176C829.512 429.756 828.805 430.906 828.025 432.013L828.341 432.234L828.036 432.013C826.496 434.142 825.242 434.933 824.862 434.88C824.704 434.859 824.683 434.891 824.641 434.459C824.63 433.678 825.337 431.97 827.055 430.041L827.087 429.999L827.192 429.651C827.139 429.166 826.813 429.039 826.549 428.902L825.716 428.691L825.242 428.913L825.558 429.124L825.263 428.881C824.44 429.904 822.606 432.318 822.574 434.132C822.564 434.596 822.722 435.07 823.101 435.397C823.481 435.724 824.019 435.871 824.725 435.871H824.788L824.778 435.597V435.871H824.788L824.778 435.597V435.871C825.843 435.85 826.749 435.028 827.487 434.279L828.373 433.236L828.637 432.909L828.7 432.835L828.616 432.751L828.689 432.845L828.7 432.835L828.616 432.751L828.689 432.845L828.468 432.571V432.93L828.689 432.845L828.468 432.571V432.93V432.54L828.141 432.751L828.468 432.93V432.54L828.141 432.751L828.457 432.55H828.088L828.141 432.751L828.457 432.55H828.088H828.331L828.099 432.466L828.088 432.55H828.331L828.099 432.466L828.088 432.487L828.457 432.592Z" fill="white"/>
<path d="M843.323 429.271C843.987 425.328 855.986 408.585 858.537 405.675L856.418 405.454C854.278 406.919 843.576 425.455 842.986 429.271H843.323ZM843.407 432.244C843.038 432.972 839.875 433.583 842.1 431.612C843.312 430.8 843.713 431.222 843.407 432.244Z" fill="white"/>
<path d="M843.323 429.271L843.703 429.335C843.977 427.553 847.15 422.313 850.535 417.305C853.93 412.276 857.578 407.352 858.822 405.928L858.896 405.538L858.569 405.296L856.46 405.074L856.196 405.138C855.532 405.612 854.52 407.025 853.181 409.049C851.199 412.065 848.679 416.356 846.591 420.267C844.504 424.179 842.859 427.648 842.606 429.208L842.701 429.514L842.986 429.651H843.323L843.703 429.335L843.323 429.271V428.881H842.986V429.271L843.376 429.324C843.618 427.584 846.454 421.933 849.459 416.672C850.956 414.036 852.517 411.464 853.824 409.471C855.111 407.489 856.228 406.034 856.639 405.77L856.418 405.454L856.376 405.834L858.495 406.066L858.537 405.675L858.242 405.422C856.945 406.909 853.318 411.812 849.902 416.872C846.497 421.944 843.323 427.047 842.943 429.208L843.323 429.271V428.881V429.271ZM843.407 432.245L843.059 432.076L842.596 432.382L841.794 432.561L841.626 432.54L841.562 432.656H841.699L841.626 432.54L841.562 432.656H841.699L841.71 432.624C841.742 432.519 841.942 432.255 842.353 431.897L842.1 431.612L842.311 431.928C842.712 431.654 843.017 431.559 843.102 431.57H843.133L843.144 431.528L843.102 431.549L843.133 431.57L843.144 431.528L843.102 431.549L843.123 431.675L843.038 432.139L843.407 432.245L843.059 432.076L843.407 432.245L843.776 432.361L843.892 431.675L843.713 431.074L843.102 430.8C842.733 430.8 842.364 430.979 841.879 431.285L841.836 431.317C841.257 431.865 840.961 432.192 840.93 432.656L841.267 433.215L841.794 433.331C842.501 433.278 843.365 433.046 843.745 432.424L843.776 432.361L843.407 432.245Z" fill="white"/>
<defs>
<linearGradient id="paint0_linear" x1="738.852" y1="207.98" x2="1759.84" y2="78.7802" gradientUnits="userSpaceOnUse">
<stop offset="0.100111" stop-color="white"/>
<stop offset="0.741454" stop-color="white" stop-opacity="0"/>
</linearGradient>
<linearGradient id="paint1_linear" x1="685.281" y1="207.98" x2="-335.711" y2="78.7802" gradientUnits="userSpaceOnUse">
<stop offset="0.28125" stop-color="white"/>
<stop offset="0.713542" stop-color="white" stop-opacity="0"/>
</linearGradient>
<linearGradient id="paint2_linear" x1="754.976" y1="230.763" x2="1886.26" y2="374.143" gradientUnits="userSpaceOnUse">
<stop offset="0.177083" stop-color="white"/>
<stop offset="0.760417" stop-color="white" stop-opacity="0"/>
</linearGradient>
<linearGradient id="paint3_linear" x1="684.073" y1="197.675" x2="-524.415" y2="363.113" gradientUnits="userSpaceOnUse">
<stop offset="0.151042" stop-color="white"/>
<stop offset="0.65625" stop-color="white" stop-opacity="0"/>
</linearGradient>
</defs>
</svg>
