<svg width="40" height="40" viewBox="0 0 40 40" fill="none" xmlns="http://www.w3.org/2000/svg">
<path d="M35.9278 8.62266L35.9242 8.59922C35.9158 8.54692 35.903 8.49543 35.8858 8.44531C35.8834 8.43828 35.8808 8.43125 35.8781 8.42422C35.8595 8.37372 35.8365 8.32495 35.8094 8.27844L35.7975 8.25922C35.7682 8.2117 35.7347 8.16689 35.6975 8.12531C35.6952 8.1225 35.6936 8.11922 35.6911 8.11656C35.6888 8.11406 35.6859 8.11234 35.6836 8.10984C35.6453 8.06902 35.6034 8.03169 35.5584 7.99828C35.5527 7.99406 35.5472 7.98953 35.5413 7.98547C35.4967 7.95398 35.4495 7.92643 35.4002 7.90313C35.3942 7.90031 35.3886 7.89734 35.3828 7.89484C35.3332 7.87273 35.2818 7.855 35.2291 7.84187L35.2111 7.83719C35.1594 7.82543 35.1067 7.81811 35.0537 7.81531C35.0455 7.81469 35.0375 7.81422 35.0292 7.81391C35.0194 7.81359 35.0098 7.8125 35 7.8125H5C4.99016 7.8125 4.98062 7.81375 4.97094 7.81406C4.9625 7.81422 4.95437 7.81469 4.94594 7.81531C4.89317 7.81815 4.84074 7.82546 4.78922 7.83719L4.77047 7.84187C4.71799 7.85499 4.66675 7.87266 4.61734 7.89469C4.61141 7.89734 4.60563 7.90047 4.59953 7.90328C4.55035 7.92647 4.5033 7.95392 4.45891 7.98531L4.44141 7.99828C4.39652 8.0317 4.35469 8.06903 4.31641 8.10984C4.31406 8.11234 4.31125 8.11406 4.30891 8.11656C4.30641 8.11922 4.30484 8.1225 4.30234 8.12531C4.2651 8.16689 4.23164 8.2117 4.20234 8.25922L4.19062 8.27844C4.16352 8.325 4.14052 8.37383 4.12187 8.42438L4.11406 8.44531C4.09695 8.49538 4.08414 8.54682 4.07578 8.59906L4.07219 8.62266C4.0661 8.66484 4.06286 8.70738 4.0625 8.75V30C4.06316 30.58 4.29384 31.136 4.70393 31.5461C5.11403 31.9562 5.67004 32.1868 6.25 32.1875H33.75C34.33 32.1868 34.886 31.9562 35.2961 31.5461C35.7062 31.136 35.9368 30.58 35.9375 30V8.75C35.9371 8.70738 35.9339 8.66484 35.9278 8.62266ZM32.5898 9.6875L20 21.2281L7.41016 9.6875H32.5898ZM33.75 30.3125H6.25C6.16715 30.3124 6.08771 30.2795 6.02912 30.2209C5.97053 30.1623 5.93758 30.0829 5.9375 30V10.8812L19.3664 23.1911C19.5393 23.3496 19.7654 23.4376 20 23.4376C20.2346 23.4376 20.4607 23.3496 20.6336 23.1911L34.0625 10.8812V30C34.0624 30.0829 34.0295 30.1623 33.9709 30.2209C33.9123 30.2795 33.8329 30.3124 33.75 30.3125Z" fill="white" fill-opacity="0.8"/>
</svg>
