<svg width="40" height="40" viewBox="0 0 40 40" fill="none" xmlns="http://www.w3.org/2000/svg">
<path d="M27.5 34.6876C15.2658 34.6876 5.3125 24.7343 5.3125 12.5001C5.31459 10.4477 6.06377 8.46618 7.4201 6.92576C8.77643 5.38535 10.6471 4.39136 12.6828 4.12948C13.1528 4.07291 13.6284 4.17 14.0386 4.40621C14.4488 4.64243 14.7715 5.00509 14.9584 5.43995L18.0977 12.7646C18.2402 13.0961 18.2983 13.4578 18.2669 13.8173C18.2354 14.1767 18.1153 14.5228 17.9173 14.8245L15.318 18.7962C15.2886 18.8389 15.2707 18.8885 15.2662 18.9402C15.2616 18.9919 15.2704 19.0438 15.2919 19.091C16.498 21.5516 18.4931 23.5376 20.9591 24.7326C21.0066 24.7538 21.0588 24.7624 21.1105 24.7574C21.1623 24.7524 21.2119 24.7341 21.2545 24.7042L25.1662 22.0957C25.4688 21.8932 25.8172 21.7697 26.1797 21.7364C26.5423 21.7031 26.9074 21.7611 27.2417 21.9051L34.56 25.0417C34.9949 25.2285 35.3576 25.5512 35.5938 25.9614C35.8301 26.3715 35.9272 26.8472 35.8706 27.3171C35.6088 29.3528 34.6148 31.2236 33.0744 32.5799C31.534 33.9363 29.5525 34.6855 27.5 34.6876ZM12.9534 5.98761C12.9416 5.98758 12.9297 5.98831 12.918 5.98979C11.3349 6.19365 9.88028 6.96683 8.82572 8.16491C7.77115 9.36299 7.18882 10.904 7.1875 12.5001C7.19358 17.8855 9.33559 23.0485 13.1436 26.8565C16.9516 30.6645 22.1147 32.8065 27.5 32.8126C29.0961 32.8113 30.6371 32.229 31.8352 31.1744C33.0333 30.1198 33.8065 28.6652 34.0103 27.0821C34.0173 27.0159 34.0026 26.9493 33.9685 26.8921C33.9344 26.8349 33.8828 26.7903 33.8212 26.7649L26.5031 23.6285C26.4553 23.6081 26.4032 23.5998 26.3514 23.6046C26.2996 23.6093 26.2498 23.6269 26.2066 23.6557L22.2948 26.2643C21.9806 26.4745 21.6172 26.5995 21.2401 26.627C20.863 26.6545 20.4853 26.5836 20.1439 26.4212C17.2995 25.0428 14.9983 22.752 13.607 19.9139C13.4439 19.5745 13.3713 19.1987 13.3962 18.823C13.4211 18.4473 13.5427 18.0844 13.7492 17.7695L16.3484 13.7976C16.3768 13.7545 16.3939 13.705 16.3984 13.6536C16.4029 13.6022 16.3946 13.5505 16.3742 13.5031L13.2352 6.1787C13.2119 6.1229 13.1728 6.0751 13.1228 6.04114C13.0727 6.00717 13.0139 5.98852 12.9534 5.98745V5.98761Z" fill="white" fill-opacity="0.8"/>
</svg>
