<svg width="30" height="18" viewBox="0 0 30 18" fill="none" xmlns="http://www.w3.org/2000/svg">
<path fill-rule="evenodd" clip-rule="evenodd" d="M28.4004 1.73438C28.609 1.07344 28.4004 0.592969 27.4775 0.592969H24.409C23.635 0.592969 23.2775 1.01367 23.0689 1.46367C23.0689 1.46367 21.4904 5.30742 19.2861 7.79941C18.5713 8.52012 18.2437 8.76035 17.8564 8.76035C17.6479 8.76035 17.3795 8.52012 17.3795 7.85977V1.70332C17.3795 0.922852 17.1416 0.5625 16.4859 0.5625H11.6602C11.1832 0.5625 10.8855 0.922852 10.8855 1.2832C10.8855 2.03379 11.9877 2.21426 12.1066 4.31602V8.88281C12.1066 9.87363 11.9309 10.0547 11.5406 10.0547C10.4982 10.0547 7.96641 6.18105 6.44766 1.76719C6.15234 0.892969 5.85234 0.5625 5.07773 0.5625H1.97988C1.08633 0.5625 0.9375 0.982617 0.9375 1.4332C0.9375 2.24414 1.97988 6.32754 5.79258 11.7322C8.32441 15.4236 11.9285 17.4076 15.1752 17.4076C17.1416 17.4076 17.3795 16.957 17.3795 16.2064V13.4139C17.3795 12.5133 17.5582 12.3633 18.184 12.3633C18.6305 12.3633 19.435 12.6029 21.252 14.3748C23.3367 16.4766 23.6941 17.4375 24.8561 17.4375H27.924C28.8176 17.4375 29.2348 16.9869 28.9963 16.1162C28.7285 15.2455 27.7154 13.9846 26.4047 12.4834C25.6898 11.6432 24.6176 10.7121 24.29 10.2615C23.8436 9.66094 23.9625 9.4207 24.29 8.88047C24.2602 8.88047 28.0137 3.53555 28.4004 1.73203" fill="white"/>
</svg>
