<svg width="1440" height="394" viewBox="0 0 1440 394" fill="none" xmlns="http://www.w3.org/2000/svg">
<g clip-path="url(#clip0)">
<path fill-rule="evenodd" clip-rule="evenodd" d="M-5.96289 137.966V142.783C8.8432 136.072 15.2712 128.541 37.0389 125.262C102.818 115.341 111.419 170.791 175.858 168.853C218.428 167.575 230.935 142.65 260.991 130.791C297.514 116.377 333.021 128.986 356.053 146.749C381.543 166.419 414.267 176.905 451.26 162.402C481.819 150.422 492.953 125.313 537.067 124.239C581.892 123.152 598.044 150.81 624.036 161.252C660.165 175.761 695.608 167.156 720.787 147.963C744.339 130.003 776.175 115.208 814.159 129.812C845.435 141.836 884.759 192.176 950.043 157.388C964.538 149.66 973.138 139.396 988.262 132.939C1022.99 118.125 1057.98 124.626 1084.23 143.667C1110.39 162.65 1137.33 177.642 1179.33 163.819C1212.21 152.996 1221.7 128.3 1263.61 124.601C1281.33 123.038 1300.26 127.372 1314.42 134.776C1329.84 142.847 1336.47 151.693 1352.48 159.301C1377.56 171.223 1402.52 172.189 1429.11 161.83C1437.81 158.443 1442.9 154.127 1449.96 150.835V145.923C1442.75 149.183 1437.15 153.848 1428.88 157.197C1402.5 167.861 1377.79 166.724 1352.76 154.661C1337.21 147.162 1329.68 138.36 1314.31 130.441C1249.18 96.8794 1211.52 148.052 1179.21 159.46C1138.58 173.81 1109.68 157.146 1085.18 139.72C1058.59 120.813 1024.54 111.865 989.126 127.982C960.269 141.112 944.815 166.844 901.064 164.531C857.929 162.256 847.144 137.42 815.378 125.656C778.849 112.126 744.911 123.571 721.314 142.644C697.85 161.601 660.591 172.869 625.255 157.146C598.006 145.027 554.896 94.833 489.765 133.854C476.915 141.55 468.442 150.715 452.137 157.407C415.633 172.373 381.676 162.199 356.942 142.917C332.964 124.22 298.696 111.306 261.893 125.745C230.877 137.915 218.428 162.3 177.147 164.359C131.687 166.628 115.389 140.203 90.1528 128.726C51.8831 111.331 24.8434 120.705 -5.96289 137.966H-5.96289Z" fill="#F7F9FA"/>
<path fill-rule="evenodd" clip-rule="evenodd" d="M-5.96289 197.686V202.529C8.60183 195.672 15.646 188.115 37.0008 184.9C103.866 174.846 113.089 232.291 177.528 228.579C220.556 226.094 230.75 201.824 261.951 189.933C300.29 175.322 331.541 188.37 356.713 207.251C381.377 225.751 416.192 236.974 452.219 221.595C479.704 209.863 521.759 159.352 586.598 197.28C600.426 205.37 607.54 214.235 625.135 221.347C662.63 236.498 695.392 226.507 721.505 206.952C745.972 188.624 777.064 175.36 815.257 189.869C845.587 201.391 883.876 252.208 951.066 216.65C965.351 209.094 973.176 198.843 989.158 192.132C1023.55 177.705 1060.14 184.518 1085.02 204.042C1108.51 222.478 1140.82 236.936 1179.28 223.622C1211.73 212.386 1222.45 187.899 1263.63 184.239C1328.67 178.449 1339.24 236.746 1404.87 227.925C1427.29 224.906 1434.22 217.972 1449.96 210.403V205.624C1417.29 223.304 1393.43 233.238 1352.66 214.445C1336.69 207.079 1332.4 199.377 1314.48 190.079C1249.29 156.25 1210.52 208.401 1179.18 219.065C1138.29 232.971 1113.34 218.487 1085.27 199.377C1058.21 180.966 1025.42 171.013 989.126 187.709C970.134 196.447 965.23 204.105 951.694 211.445C883.4 248.477 846.902 197.013 816.49 185.694C779.929 172.087 745.921 182.389 721.994 201.595C697.463 221.283 663.665 232.017 626.284 217.267C608.931 210.416 601.557 201.22 587.748 193.174C521.124 154.369 478.649 205.789 453.077 216.587C386.217 244.811 359.356 192.106 316.398 182.072C298.353 177.858 279.85 178.57 262.96 185.109C235.381 195.78 188.835 247.956 127.463 212.329C113.839 204.417 105.353 195.144 90.2227 188.408C51.7688 171.293 25.142 179.892 -5.96289 197.686H-5.96289Z" fill="#F7F9FA"/>
<path fill-rule="evenodd" clip-rule="evenodd" d="M-5.96289 257.324V262.109C9.13538 255.252 14.725 248.045 36.7594 244.652C103.581 234.356 114.099 292.246 177.522 288.179C219.425 285.49 233.456 261.118 261.881 249.571C343.946 216.256 366.762 316.714 452.143 281.232C480.135 269.602 495.939 243.527 538.553 243.451C582.952 243.368 595.7 268.878 625.128 281.054C660.578 295.722 696.961 285.332 721.447 266.596C745.254 248.395 777.877 234.731 815.321 249.494C847.677 262.249 883.241 311.305 950.958 276.288C965.275 268.891 972.516 259.694 989.151 251.839C1023.11 235.799 1060.61 244.842 1085.1 263.654C1109.52 282.408 1139.86 296.549 1179.21 283.222C1212.39 271.979 1221.3 248.128 1263.57 243.883C1331.62 237.038 1348.88 312.627 1428.9 281.067C1439.62 276.841 1445.78 271.757 1449.96 270.193V265.332C1434.95 272.818 1425.94 280.343 1404.79 283.12C1338.98 291.776 1328.52 233.301 1263.59 239.364C1209.76 244.391 1188.76 299.078 1125.07 280.533C1106.63 275.163 1097.32 267.632 1085.37 258.995C1059.5 240.298 1024.04 231.058 989.069 247.378C961.26 260.362 944.504 285.49 902.512 283.87C858.933 282.192 847.359 257.165 816.572 245.338C780.132 231.344 745.927 242.338 721.898 261.239C697.177 280.692 664.097 291.871 626.354 276.892C609.446 270.174 601.379 260.788 587.786 252.824C521.74 214.102 478.744 264.982 452.969 276.199C416.103 292.246 384.28 281.817 357.965 262.847C346.525 254.598 334.399 245.916 316.474 241.779C248.104 225.98 236.645 278.779 178.996 283.641C161.058 285.154 140.65 279.815 127.54 271.954C120.159 267.524 115.439 264.169 109.386 259.567C103.257 254.915 97.7178 251.337 90.3053 248.014C51.0828 230.416 25.1483 240.311 -5.96289 257.324H-5.96289Z" fill="#F7F9FA"/>
<path fill-rule="evenodd" clip-rule="evenodd" d="M-5.96289 18.7862V23.1904C-0.176383 21.036 5.92771 16.117 13.6198 12.8631C21.5849 9.50122 28.0765 7.38492 37.1596 6.00583C55.5037 3.22223 75.0355 6.51425 89.8606 13.9753C118.133 28.2047 133.078 51.6429 177.497 49.463C219.965 47.3849 231.322 22.6756 262.166 11.0265C299.61 -3.11395 333.377 9.1771 357.412 28.8593C379.936 47.3022 419.31 57.2863 452.448 42.6502C482.949 29.1771 495.971 4.55684 540.052 5.00806C583.759 5.45928 595.377 30.8866 626.018 42.7137C714.765 76.9622 730.194 -21.5187 816.147 11.268C842.056 21.1504 859.701 48.497 902.512 49.5647C948.608 50.715 963.09 24.4933 989.443 13.2508C1024.43 -1.67766 1060.42 6.03125 1085.72 25.5927C1109.67 44.1055 1142.1 57.9028 1179.54 44.6457C1209.72 33.9626 1224.51 7.8997 1265.06 5.2432C1330.73 0.940699 1337.07 57.2927 1405.41 48.8656C1430.99 45.7071 1438.97 35.6404 1449.96 31.5094V26.6159C1434.28 34.0706 1428.96 40.7563 1406.57 44.1882C1341.22 54.1913 1330.02 -2.76441 1266.47 0.603871C1224.2 2.84727 1212.54 27.6582 1181.59 39.39C1096.79 71.5157 1079.97 -27.6961 991.285 7.77895C964.614 18.4558 948.722 45.6626 903.954 45.1796C860.628 44.7156 848.014 19.7904 818.357 7.55651C782.012 -7.44187 746.302 3.29214 722.083 22.485C697.285 42.1418 664.821 52.8377 628.19 39.0849C598.413 27.906 586.09 1.93212 541.507 0.533963C512.276 -0.381193 494.332 10.7532 474.539 25.4084C469.14 29.4059 461.309 34.0388 454.29 37.191C389.857 66.1583 359.699 14.8396 318.488 3.67346C299.922 -1.3599 281.806 0.0509641 264.11 5.62452C231.989 15.7548 196.927 68.5351 129.248 34.2422C106.541 22.7328 86.3481 -5.03324 38.5443 1.22669C16.1224 4.16281 9.28148 11.8971 -5.96289 18.7862Z" fill="#F7F9FA"/>
<path fill-rule="evenodd" clip-rule="evenodd" d="M-5.96289 317.025V321.544C8.71616 314.172 17.4563 306.825 38.1314 303.965C104.489 294.782 114.982 352.926 179.002 347.747C220.81 344.359 231.106 321.417 262.954 308.96C279.469 302.497 298.778 301.277 316.455 305.929C335.473 310.937 344.899 317.756 357.52 327.353C382.07 345.999 418.275 354.763 453.064 340.413C468.772 333.937 478.122 324.613 490.737 316.898C521.899 297.839 556.434 299.008 587.564 317.19C601.9 325.56 607.744 333.568 626.189 341.162C662.591 356.155 697.234 344.912 722.159 325.554C746.493 306.66 779.459 295.1 816.496 309.577C845.149 320.768 858.844 346.647 902.512 347.956C945.603 349.246 960.752 325.128 989.202 311.63C1023.3 295.443 1061.11 305.255 1085.18 323.317C1112.66 343.921 1142.6 355.691 1179.22 342.999C1213.72 331.039 1246.97 280.781 1314.36 313.937C1329.17 321.22 1336.76 330.727 1352.67 338.309C1367.44 345.344 1385.89 349.57 1404.74 347.27C1413.39 346.215 1421.27 343.673 1428.81 340.686C1441.2 335.78 1443.03 332.894 1449.96 329.691V324.849C1435.25 332.99 1425.62 339.987 1404.75 342.7C1358.12 348.757 1337.76 321.328 1314.58 309.335C1249.66 275.754 1212.21 326.571 1178.95 338.271C1141.08 351.598 1113.06 338.989 1085.46 318.633C1059.59 299.542 1023.67 291.039 989.011 307.035C960.028 320.413 945.933 345.046 902.512 343.501C858.844 341.957 847.245 316.491 816.687 304.976C780.037 291.166 746.334 301.741 721.797 320.883C689.294 346.24 644.381 353.689 605.616 325.319C599.162 320.591 595.065 316.466 587.812 312.551C516.951 274.318 482.244 323.87 452.937 335.869C364.272 372.17 349.783 272.869 262.903 304.569C233.329 315.367 192.163 367.086 127.635 331.623C113.216 323.698 106.172 314.928 90.3942 307.645C52.1626 290.003 24.9387 299.911 -5.96289 317.025H-5.96289Z" fill="#F7F9FA"/>
<path fill-rule="evenodd" clip-rule="evenodd" d="M-5.96289 78.2395V82.9932C8.97659 76.8096 14.9092 69.0308 37.077 65.6244C102.24 55.6148 112.486 111.471 177.23 109.177C234.441 107.143 248.053 51.0391 316.195 67.175C335.162 71.6682 344.981 79.3326 357.355 88.6431C381.32 106.673 418.377 117.064 452.321 102.269C473.765 92.9202 477.792 85.4019 490.883 78.1315C558.981 40.2733 597.009 90.8102 625.986 102.51C712.269 137.343 730.365 38.1887 816.236 70.8929C847.328 82.7327 857.935 108.198 902.595 109.234C949.332 110.314 963.382 83.5716 989.329 72.8376C1024.94 58.1061 1060.03 65.8023 1085.79 85.2239C1110.45 103.826 1140.53 117.445 1179.38 104.169C1211.75 93.0981 1248.97 41.8748 1315.23 75.672C1330.28 83.3428 1336.77 92.2147 1353.38 100.14C1378.33 112.037 1403.32 112.107 1429.19 102.167C1438.26 98.678 1442.93 94.4454 1449.96 91.128V86.3679C1443.45 89.0307 1437.76 94.0832 1428.98 97.5849C1368.95 121.519 1338.51 82.1416 1314.28 70.7403C1222.99 27.7852 1208.52 123.769 1126.05 101.811C1108.44 97.121 1097.35 89.2913 1086.14 80.5211C1061.66 61.3663 1024.77 53.9561 990.155 67.7979C974.498 74.0641 964.906 84.474 951.65 91.9732C885.744 129.266 846.35 77.9091 816.331 66.4505C779.751 52.4817 746.245 63.2983 721.994 82.148C696.567 101.906 663.011 113.378 626.183 97.909C595.377 84.957 583.645 60.7689 540.001 60.1144C495.628 59.4471 482.752 84.563 453.261 97.318C388.314 125.415 358.524 73.2316 317.446 62.9488C250.752 46.2599 233.958 100.426 178.989 104.696C134.361 108.166 118.323 82.6628 90.0512 69.1134C52.3849 51.0772 24.113 62.0082 -5.96289 78.2395H-5.96289Z" fill="#F7F9FA"/>
</g>
<defs>
<clipPath id="clip0">
<rect width="1456" height="394" fill="white" transform="translate(-6)"/>
</clipPath>
</defs>
</svg>
